<svg xmlns="http://www.w3.org/2000/svg" xmlns:xlink="http://www.w3.org/1999/xlink" width="500" zoomAndPan="magnify" viewBox="0 0 375 374.999991" height="500" preserveAspectRatio="xMidYMid meet" version="1.0"><defs><g/><clipPath id="0b6b8bc300"><path d="M 76.671875 116.707031 L 147.148438 116.707031 L 147.148438 186.300781 L 76.671875 186.300781 Z M 76.671875 116.707031 " clip-rule="nonzero"/></clipPath><clipPath id="fa7adbf5da"><path d="M 147.148438 116.707031 L 216.605469 116.707031 L 216.605469 186.300781 L 147.148438 186.300781 Z M 147.148438 116.707031 " clip-rule="nonzero"/></clipPath><clipPath id="a9503b1294"><path d="M 216.605469 116.707031 L 286.023438 116.707031 L 286.023438 186.300781 L 216.605469 186.300781 Z M 216.605469 116.707031 " clip-rule="nonzero"/></clipPath><clipPath id="011b1fa389"><path d="M 95 116.707031 L 147.277344 116.707031 L 147.277344 167 L 95 167 Z M 95 116.707031 " clip-rule="nonzero"/></clipPath><clipPath id="9fb6e76301"><path d="M 94.777344 116.707031 L 147.277344 116.707031 L 147.277344 167.730469 L 94.777344 167.730469 Z M 94.777344 116.707031 " clip-rule="nonzero"/></clipPath><clipPath id="386b854456"><path d="M 127 116.707031 L 147.277344 116.707031 L 147.277344 136 L 127 136 Z M 127 116.707031 " clip-rule="nonzero"/></clipPath><clipPath id="4217dc6972"><path d="M 164.769531 116.707031 L 216.519531 116.707031 L 216.519531 168.125 L 164.769531 168.125 Z M 164.769531 116.707031 " clip-rule="nonzero"/></clipPath><clipPath id="27030a63c4"><path d="M 169 116.707031 L 216.519531 116.707031 L 216.519531 163 L 169 163 Z M 169 116.707031 " clip-rule="nonzero"/></clipPath><clipPath id="0effcab6e1"><path d="M 245 116.707031 L 286.027344 116.707031 L 286.027344 154 L 245 154 Z M 245 116.707031 " clip-rule="nonzero"/></clipPath><clipPath id="324d0329ae"><path d="M 241.027344 148 L 251 148 L 251 159 L 241.027344 159 Z M 241.027344 148 " clip-rule="nonzero"/></clipPath><clipPath id="899a687793"><path d="M 263 116.707031 L 286.027344 116.707031 L 286.027344 149 L 263 149 Z M 263 116.707031 " clip-rule="nonzero"/></clipPath><clipPath id="560ca3063f"><path d="M 250 116.707031 L 286.027344 116.707031 L 286.027344 136 L 250 136 Z M 250 116.707031 " clip-rule="nonzero"/></clipPath><clipPath id="453d99a67d"><path d="M 241.027344 148 L 252 148 L 252 159.457031 L 241.027344 159.457031 Z M 241.027344 148 " clip-rule="nonzero"/></clipPath><clipPath id="797f0bec36"><path d="M 259 116.707031 L 286.027344 116.707031 L 286.027344 133 L 259 133 Z M 259 116.707031 " clip-rule="nonzero"/></clipPath></defs><g clip-path="url(#0b6b8bc300)"><path fill="#3583f0" d="M 76.671875 116.707031 L 147.078125 116.707031 L 147.078125 186.300781 L 76.671875 186.300781 Z M 76.671875 116.707031 " fill-opacity="1" fill-rule="nonzero"/></g><g clip-path="url(#fa7adbf5da)"><path fill="#2e6e4b" d="M 147.148438 116.707031 L 216.605469 116.707031 L 216.605469 186.164062 L 147.148438 186.164062 Z M 147.148438 116.707031 " fill-opacity="1" fill-rule="nonzero"/></g><g clip-path="url(#a9503b1294)"><path fill="#fe6e6e" d="M 216.605469 116.707031 L 286.023438 116.707031 L 286.023438 186.398438 L 216.605469 186.398438 Z M 216.605469 116.707031 " fill-opacity="1" fill-rule="nonzero"/></g><g fill="#231f20" fill-opacity="1"><g transform="translate(103.866627, 217.466484)"><g><path d="M 0.84375 0 L 0.84375 -24.09375 L 4.4375 -24.09375 L 4.4375 -3.296875 L 8 -3.296875 L 8 0 Z M 0.84375 0 "/></g></g></g><g fill="#231f20" fill-opacity="1"><g transform="translate(111.796506, 217.466484)"><g><path d="M 5.375 0.359375 C 3.820312 0.359375 2.644531 -0.0976562 1.84375 -1.015625 C 1.039062 -1.929688 0.640625 -3.273438 0.640625 -5.046875 L 0.640625 -19.03125 C 0.640625 -20.78125 1.039062 -22.113281 1.84375 -23.03125 C 2.644531 -23.945312 3.820312 -24.40625 5.375 -24.40625 C 6.90625 -24.40625 8.070312 -23.945312 8.875 -23.03125 C 9.6875 -22.113281 10.09375 -20.78125 10.09375 -19.03125 L 10.09375 -5.046875 C 10.09375 -3.273438 9.691406 -1.929688 8.890625 -1.015625 C 8.097656 -0.0976562 6.925781 0.359375 5.375 0.359375 Z M 4.234375 -4.5625 C 4.234375 -3.414062 4.613281 -2.84375 5.375 -2.84375 C 6.125 -2.84375 6.5 -3.414062 6.5 -4.5625 L 6.5 -19.515625 C 6.5 -20.117188 6.398438 -20.550781 6.203125 -20.8125 C 6.015625 -21.070312 5.738281 -21.203125 5.375 -21.203125 C 5.03125 -21.203125 4.753906 -21.070312 4.546875 -20.8125 C 4.335938 -20.550781 4.234375 -20.117188 4.234375 -19.515625 Z M 4.234375 -4.5625 "/></g></g></g><g fill="#231f20" fill-opacity="1"><g transform="translate(122.218645, 217.466484)"><g><path d="M 0.84375 0 L 0.84375 -24.09375 L 4.4375 -24.09375 L 4.4375 -13.921875 L 5.046875 -13.921875 L 6.734375 -24.09375 L 10.515625 -24.09375 L 7.96875 -12.4375 L 7.96875 -12.328125 L 10.75 0 L 6.953125 0 L 5.046875 -10.84375 L 4.4375 -10.84375 L 4.4375 0 Z M 0.84375 0 "/></g></g></g><g fill="#231f20" fill-opacity="1"><g transform="translate(132.770261, 217.466484)"><g><path d="M 0.125 0 L 3.046875 -24.09375 L 8.15625 -24.09375 L 11.109375 0 L 7.453125 0 L 7.03125 -4.015625 L 4.171875 -4.015625 L 3.75 0 Z M 4.5 -7.0625 L 6.734375 -7.0625 L 5.828125 -15.953125 L 5.640625 -18.90625 L 5.5625 -18.90625 L 5.40625 -15.953125 Z M 4.5 -7.0625 "/></g></g></g><g fill="#231f20" fill-opacity="1"><g transform="translate(143.677916, 217.466484)"><g><path d="M 5.140625 0.359375 C 3.648438 0.359375 2.492188 -0.0195312 1.671875 -0.78125 C 0.859375 -1.550781 0.453125 -2.71875 0.453125 -4.28125 L 0.453125 -8.609375 L 3.984375 -8.609375 L 3.984375 -4.28125 C 3.984375 -3.863281 4.0625 -3.503906 4.21875 -3.203125 C 4.382812 -2.898438 4.707031 -2.75 5.1875 -2.75 C 5.507812 -2.75 5.757812 -2.859375 5.9375 -3.078125 C 6.125 -3.296875 6.21875 -3.578125 6.21875 -3.921875 L 6.21875 -8.515625 C 6.21875 -9.242188 6.023438 -9.769531 5.640625 -10.09375 C 5.265625 -10.425781 4.644531 -10.816406 3.78125 -11.265625 C 3.070312 -11.671875 2.472656 -12.078125 1.984375 -12.484375 C 1.503906 -12.898438 1.144531 -13.394531 0.90625 -13.96875 C 0.664062 -14.539062 0.546875 -15.269531 0.546875 -16.15625 L 0.546875 -20.265625 C 0.546875 -21.609375 0.96875 -22.632812 1.8125 -23.34375 C 2.65625 -24.050781 3.753906 -24.40625 5.109375 -24.40625 C 6.597656 -24.40625 7.742188 -24 8.546875 -23.1875 C 9.347656 -22.382812 9.738281 -21.257812 9.71875 -19.8125 L 9.71875 -15.890625 L 6.28125 -15.890625 L 6.28125 -19.8125 C 6.28125 -20.78125 5.898438 -21.265625 5.140625 -21.265625 C 4.796875 -21.265625 4.539062 -21.171875 4.375 -20.984375 C 4.21875 -20.804688 4.140625 -20.566406 4.140625 -20.265625 L 4.140625 -16.1875 C 4.140625 -15.5625 4.3125 -15.09375 4.65625 -14.78125 C 5.007812 -14.46875 5.441406 -14.160156 5.953125 -13.859375 C 7.335938 -13.191406 8.328125 -12.476562 8.921875 -11.71875 C 9.515625 -10.96875 9.8125 -9.921875 9.8125 -8.578125 L 9.8125 -3.890625 C 9.8125 -2.546875 9.382812 -1.5 8.53125 -0.75 C 7.675781 -0.0078125 6.546875 0.359375 5.140625 0.359375 Z M 5.140625 0.359375 "/></g></g></g><g fill="#231f20" fill-opacity="1"><g transform="translate(153.614549, 217.466484)"><g><path d="M 3.46875 0 L 3.46875 -6.640625 L 0.125 -24.09375 L 3.8125 -24.09375 L 5.140625 -12.890625 L 5.21875 -11.59375 L 5.28125 -11.59375 L 5.375 -12.890625 L 6.671875 -24.09375 L 10.359375 -24.09375 L 7.0625 -6.640625 L 7.0625 0 Z M 3.46875 0 "/></g></g></g><g fill="#231f20" fill-opacity="1"><g transform="translate(163.777754, 217.466484)"><g><path d="M 5.375 0.359375 C 3.820312 0.359375 2.644531 -0.0976562 1.84375 -1.015625 C 1.039062 -1.929688 0.640625 -3.273438 0.640625 -5.046875 L 0.640625 -19.03125 C 0.640625 -20.78125 1.039062 -22.113281 1.84375 -23.03125 C 2.644531 -23.945312 3.820312 -24.40625 5.375 -24.40625 C 6.90625 -24.40625 8.070312 -23.945312 8.875 -23.03125 C 9.6875 -22.113281 10.09375 -20.78125 10.09375 -19.03125 L 10.09375 -5.046875 C 10.09375 -3.273438 9.691406 -1.929688 8.890625 -1.015625 C 8.097656 -0.0976562 6.925781 0.359375 5.375 0.359375 Z M 4.234375 -4.5625 C 4.234375 -3.414062 4.613281 -2.84375 5.375 -2.84375 C 6.125 -2.84375 6.5 -3.414062 6.5 -4.5625 L 6.5 -19.515625 C 6.5 -20.117188 6.398438 -20.550781 6.203125 -20.8125 C 6.015625 -21.070312 5.738281 -21.203125 5.375 -21.203125 C 5.03125 -21.203125 4.753906 -21.070312 4.546875 -20.8125 C 4.335938 -20.550781 4.234375 -20.117188 4.234375 -19.515625 Z M 4.234375 -4.5625 "/></g></g></g><g fill="#231f20" fill-opacity="1"><g transform="translate(174.199894, 217.466484)"><g><path d="M 0.84375 0 L 0.84375 -24.09375 L 4.53125 -24.09375 L 6.796875 -13.3125 L 7.34375 -9.78125 L 7.40625 -9.78125 L 7.1875 -13.984375 L 7.1875 -24.09375 L 10.6875 -24.09375 L 10.6875 0 L 7 0 L 4.734375 -10.71875 L 4.171875 -14.25 L 4.109375 -14.25 L 4.34375 -10.0625 L 4.34375 0 Z M 0.84375 0 "/></g></g></g><g fill="#231f20" fill-opacity="1"><g transform="translate(185.398846, 217.466484)"><g/></g></g><g fill="#231f20" fill-opacity="1"><g transform="translate(189.994914, 217.466484)"><g><path d="M 0.84375 0 L 0.84375 -24.09375 L 5.3125 -24.09375 L 7 -11.953125 L 7.125 -9.453125 L 7.1875 -9.453125 L 7.34375 -11.953125 L 9.03125 -24.09375 L 13.5 -24.09375 L 13.5 0 L 10 0 L 10 -9.84375 L 10.328125 -17.1875 L 10.265625 -17.1875 L 9.96875 -14.859375 L 8.390625 -3.65625 L 5.953125 -3.65625 L 4.34375 -14.859375 L 4.078125 -17.1875 L 4.015625 -17.1875 L 4.34375 -9.84375 L 4.34375 0 Z M 0.84375 0 "/></g></g></g><g fill="#231f20" fill-opacity="1"><g transform="translate(204.009817, 217.466484)"><g><path d="M 0.125 0 L 3.046875 -24.09375 L 8.15625 -24.09375 L 11.109375 0 L 7.453125 0 L 7.03125 -4.015625 L 4.171875 -4.015625 L 3.75 0 Z M 4.5 -7.0625 L 6.734375 -7.0625 L 5.828125 -15.953125 L 5.640625 -18.90625 L 5.5625 -18.90625 L 5.40625 -15.953125 Z M 4.5 -7.0625 "/></g></g></g><g fill="#231f20" fill-opacity="1"><g transform="translate(214.917466, 217.466484)"><g><path d="M 2.8125 0 L 2.8125 -20.75 L 0.1875 -20.75 L 0.1875 -24.09375 L 9.03125 -24.09375 L 9.03125 -20.75 L 6.40625 -20.75 L 6.40625 0 Z M 2.8125 0 "/></g></g></g><g fill="#231f20" fill-opacity="1"><g transform="translate(223.818348, 217.466484)"><g><path d="M 0.84375 0 L 0.84375 -24.09375 L 8.28125 -24.09375 L 8.28125 -20.875 L 4.4375 -20.875 L 4.4375 -13.890625 L 7.828125 -13.890625 L 7.828125 -10.8125 L 4.4375 -10.8125 L 4.4375 -3.203125 L 8.421875 -3.203125 L 8.421875 0 Z M 0.84375 0 "/></g></g></g><g fill="#231f20" fill-opacity="1"><g transform="translate(232.298466, 217.466484)"><g><path d="M 0.84375 0 L 0.84375 -24.09375 L 5.3125 -24.09375 L 7 -11.953125 L 7.125 -9.453125 L 7.1875 -9.453125 L 7.34375 -11.953125 L 9.03125 -24.09375 L 13.5 -24.09375 L 13.5 0 L 10 0 L 10 -9.84375 L 10.328125 -17.1875 L 10.265625 -17.1875 L 9.96875 -14.859375 L 8.390625 -3.65625 L 5.953125 -3.65625 L 4.34375 -14.859375 L 4.078125 -17.1875 L 4.015625 -17.1875 L 4.34375 -9.84375 L 4.34375 0 Z M 0.84375 0 "/></g></g></g><g fill="#231f20" fill-opacity="1"><g transform="translate(246.313357, 217.466484)"><g><path d="M 0.125 0 L 3.046875 -24.09375 L 8.15625 -24.09375 L 11.109375 0 L 7.453125 0 L 7.03125 -4.015625 L 4.171875 -4.015625 L 3.75 0 Z M 4.5 -7.0625 L 6.734375 -7.0625 L 5.828125 -15.953125 L 5.640625 -18.90625 L 5.5625 -18.90625 L 5.40625 -15.953125 Z M 4.5 -7.0625 "/></g></g></g><g fill="#231f20" fill-opacity="1"><g transform="translate(257.221006, 217.466484)"><g><path d="M 2.8125 0 L 2.8125 -20.75 L 0.1875 -20.75 L 0.1875 -24.09375 L 9.03125 -24.09375 L 9.03125 -20.75 L 6.40625 -20.75 L 6.40625 0 Z M 2.8125 0 "/></g></g></g><g fill="#231f20" fill-opacity="1"><g transform="translate(266.121888, 217.466484)"><g><path d="M 0.84375 0 L 0.84375 -24.09375 L 4.4375 -24.09375 L 4.4375 0 Z M 1 -26.90625 C 1 -27.914062 1.5625 -28.421875 2.6875 -28.421875 C 3.8125 -28.421875 4.375 -27.914062 4.375 -26.90625 C 4.375 -25.914062 3.8125 -25.421875 2.6875 -25.421875 C 1.5625 -25.421875 1 -25.914062 1 -26.90625 Z M 1 -26.90625 "/></g></g></g><g fill="#231f20" fill-opacity="1"><g transform="translate(271.073987, 217.466484)"><g><path d="M 0.84375 0 L 0.84375 -24.09375 L 4.4375 -24.09375 L 4.4375 -13.921875 L 5.046875 -13.921875 L 6.734375 -24.09375 L 10.515625 -24.09375 L 7.96875 -12.4375 L 7.96875 -12.328125 L 10.75 0 L 6.953125 0 L 5.046875 -10.84375 L 4.4375 -10.84375 L 4.4375 0 Z M 0.84375 0 "/></g></g></g><g fill="#231f20" fill-opacity="1"><g transform="translate(108.554315, 233.731873)"><g><path d="M 0.828125 0 L 0.828125 -7.4375 L 2.328125 -7.4375 L 3.984375 -2.84375 L 4.09375 -2.4375 L 4.125 -2.4375 L 4.234375 -2.84375 L 5.90625 -7.4375 L 7.390625 -7.4375 L 7.390625 0 L 6.265625 0 L 6.265625 -4.875 L 6.296875 -5.625 L 6.265625 -5.625 L 6.15625 -5.296875 L 4.578125 -1.046875 L 3.640625 -1.046875 L 2.0625 -5.296875 L 1.953125 -5.625 L 1.9375 -5.625 L 1.953125 -4.875 L 1.953125 0 Z M 0.828125 0 "/></g></g></g><g fill="#231f20" fill-opacity="1"><g transform="translate(119.161064, 233.731873)"><g><path d="M 0.125 0 L 2.4375 -7.4375 L 3.921875 -7.4375 L 6.234375 0 L 5.046875 0 L 4.53125 -1.765625 L 1.828125 -1.765625 L 1.3125 0 Z M 2.09375 -2.703125 L 4.265625 -2.703125 L 3.3125 -5.90625 L 3.1875 -6.421875 L 3.171875 -6.421875 L 3.046875 -5.90625 Z M 2.09375 -2.703125 "/></g></g></g><g fill="#231f20" fill-opacity="1"><g transform="translate(127.91855, 233.731873)"><g><path d="M 2.015625 0 L 2.015625 -6.453125 L 0.046875 -6.453125 L 0.046875 -7.4375 L 5.109375 -7.4375 L 5.109375 -6.453125 L 3.15625 -6.453125 L 3.15625 0 Z M 2.015625 0 "/></g></g></g><g fill="#231f20" fill-opacity="1"><g transform="translate(135.466509, 233.731873)"><g><path d="M 0.828125 0 L 0.828125 -7.4375 L 5.15625 -7.4375 L 5.15625 -6.453125 L 1.96875 -6.453125 L 1.96875 -4.265625 L 4.796875 -4.265625 L 4.796875 -3.3125 L 1.96875 -3.3125 L 1.96875 -0.984375 L 5.203125 -0.984375 L 5.203125 0 Z M 0.828125 0 "/></g></g></g><g fill="#231f20" fill-opacity="1"><g transform="translate(143.354337, 233.731873)"><g><path d="M 0.828125 0 L 0.828125 -7.4375 L 2.328125 -7.4375 L 3.984375 -2.84375 L 4.09375 -2.4375 L 4.125 -2.4375 L 4.234375 -2.84375 L 5.90625 -7.4375 L 7.390625 -7.4375 L 7.390625 0 L 6.265625 0 L 6.265625 -4.875 L 6.296875 -5.625 L 6.265625 -5.625 L 6.15625 -5.296875 L 4.578125 -1.046875 L 3.640625 -1.046875 L 2.0625 -5.296875 L 1.953125 -5.625 L 1.9375 -5.625 L 1.953125 -4.875 L 1.953125 0 Z M 0.828125 0 "/></g></g></g><g fill="#231f20" fill-opacity="1"><g transform="translate(153.961087, 233.731873)"><g><path d="M 0.125 0 L 2.4375 -7.4375 L 3.921875 -7.4375 L 6.234375 0 L 5.046875 0 L 4.53125 -1.765625 L 1.828125 -1.765625 L 1.3125 0 Z M 2.09375 -2.703125 L 4.265625 -2.703125 L 3.3125 -5.90625 L 3.1875 -6.421875 L 3.171875 -6.421875 L 3.046875 -5.90625 Z M 2.09375 -2.703125 "/></g></g></g><g fill="#231f20" fill-opacity="1"><g transform="translate(162.718575, 233.731873)"><g><path d="M 2.015625 0 L 2.015625 -6.453125 L 0.046875 -6.453125 L 0.046875 -7.4375 L 5.109375 -7.4375 L 5.109375 -6.453125 L 3.15625 -6.453125 L 3.15625 0 Z M 2.015625 0 "/></g></g></g><g fill="#231f20" fill-opacity="1"><g transform="translate(170.266536, 233.731873)"><g><path d="M 0.828125 0 L 0.828125 -7.4375 L 1.96875 -7.4375 L 1.96875 0 Z M 0.890625 -8.390625 C 0.890625 -8.679688 1.066406 -8.828125 1.421875 -8.828125 C 1.609375 -8.828125 1.738281 -8.785156 1.8125 -8.703125 C 1.894531 -8.628906 1.9375 -8.523438 1.9375 -8.390625 C 1.9375 -8.242188 1.894531 -8.132812 1.8125 -8.0625 C 1.738281 -7.988281 1.609375 -7.953125 1.421875 -7.953125 C 1.234375 -7.953125 1.097656 -7.988281 1.015625 -8.0625 C 0.929688 -8.132812 0.890625 -8.242188 0.890625 -8.390625 Z M 0.890625 -8.390625 "/></g></g></g><g fill="#231f20" fill-opacity="1"><g transform="translate(175.455425, 233.731873)"><g><path d="M 0.828125 0 L 0.828125 -7.4375 L 1.96875 -7.4375 L 1.96875 -4.296875 L 3.015625 -4.296875 L 4.5 -7.4375 L 5.78125 -7.4375 L 3.953125 -3.84375 L 3.953125 -3.796875 L 6.09375 0 L 4.8125 0 L 3.015625 -3.3125 L 1.96875 -3.3125 L 1.96875 0 Z M 0.828125 0 "/></g></g></g><g fill="#231f20" fill-opacity="1"><g transform="translate(184.082965, 233.731873)"><g><path d="M 2.015625 0 L 2.015625 -6.453125 L 0.046875 -6.453125 L 0.046875 -7.4375 L 5.109375 -7.4375 L 5.109375 -6.453125 L 3.15625 -6.453125 L 3.15625 0 Z M 2.015625 0 "/></g></g></g><g fill="#231f20" fill-opacity="1"><g transform="translate(191.630926, 233.731873)"><g><path d="M 0.828125 0 L 0.828125 -7.4375 L 5.15625 -7.4375 L 5.15625 -6.453125 L 1.96875 -6.453125 L 1.96875 -4.265625 L 4.796875 -4.265625 L 4.796875 -3.3125 L 1.96875 -3.3125 L 1.96875 -0.984375 L 5.203125 -0.984375 L 5.203125 0 Z M 0.828125 0 "/></g></g></g><g fill="#231f20" fill-opacity="1"><g transform="translate(199.518755, 233.731873)"><g/></g></g><g fill="#231f20" fill-opacity="1"><g transform="translate(204.607684, 233.731873)"><g><path d="M 2.9375 0.140625 C 2.070312 0.140625 1.421875 -0.0703125 0.984375 -0.5 C 0.554688 -0.9375 0.34375 -1.519531 0.34375 -2.25 L 1.453125 -2.25 C 1.453125 -2.03125 1.492188 -1.8125 1.578125 -1.59375 C 1.660156 -1.375 1.804688 -1.1875 2.015625 -1.03125 C 2.234375 -0.882812 2.539062 -0.8125 2.9375 -0.8125 C 3.394531 -0.8125 3.726562 -0.914062 3.9375 -1.125 C 4.15625 -1.34375 4.265625 -1.628906 4.265625 -1.984375 C 4.265625 -2.304688 4.203125 -2.550781 4.078125 -2.71875 C 3.960938 -2.894531 3.78125 -3.035156 3.53125 -3.140625 C 3.28125 -3.253906 2.96875 -3.367188 2.59375 -3.484375 C 2.15625 -3.617188 1.78125 -3.769531 1.46875 -3.9375 C 1.164062 -4.113281 0.9375 -4.332031 0.78125 -4.59375 C 0.625 -4.863281 0.546875 -5.210938 0.546875 -5.640625 C 0.546875 -6.222656 0.75 -6.6875 1.15625 -7.03125 C 1.5625 -7.382812 2.132812 -7.5625 2.875 -7.5625 C 3.707031 -7.5625 4.320312 -7.347656 4.71875 -6.921875 C 5.113281 -6.503906 5.316406 -5.957031 5.328125 -5.28125 L 4.25 -5.28125 C 4.238281 -5.507812 4.191406 -5.722656 4.109375 -5.921875 C 4.035156 -6.128906 3.90625 -6.289062 3.71875 -6.40625 C 3.53125 -6.53125 3.257812 -6.59375 2.90625 -6.59375 C 2.476562 -6.59375 2.164062 -6.5 1.96875 -6.3125 C 1.78125 -6.125 1.6875 -5.894531 1.6875 -5.625 C 1.6875 -5.363281 1.738281 -5.160156 1.84375 -5.015625 C 1.957031 -4.867188 2.117188 -4.75 2.328125 -4.65625 C 2.535156 -4.5625 2.78125 -4.476562 3.0625 -4.40625 C 3.59375 -4.257812 4.03125 -4.085938 4.375 -3.890625 C 4.71875 -3.691406 4.972656 -3.441406 5.140625 -3.140625 C 5.316406 -2.835938 5.40625 -2.453125 5.40625 -1.984375 C 5.40625 -1.316406 5.1875 -0.796875 4.75 -0.421875 C 4.320312 -0.046875 3.71875 0.140625 2.9375 0.140625 Z M 2.9375 0.140625 "/></g></g></g><g fill="#231f20" fill-opacity="1"><g transform="translate(212.795394, 233.731873)"><g><path d="M 3.28125 0.140625 C 1.425781 0.140625 0.5 -0.992188 0.5 -3.265625 L 0.5 -4.1875 C 0.5 -6.4375 1.421875 -7.5625 3.265625 -7.5625 C 5.117188 -7.5625 6.046875 -6.4375 6.046875 -4.1875 L 6.046875 -3.265625 C 6.046875 -0.992188 5.125 0.140625 3.28125 0.140625 Z M 1.640625 -3.203125 C 1.640625 -2.398438 1.78125 -1.804688 2.0625 -1.421875 C 2.34375 -1.046875 2.75 -0.859375 3.28125 -0.859375 C 3.8125 -0.859375 4.210938 -1.046875 4.484375 -1.421875 C 4.765625 -1.804688 4.90625 -2.398438 4.90625 -3.203125 L 4.90625 -4.234375 C 4.90625 -5.035156 4.765625 -5.625 4.484375 -6 C 4.210938 -6.375 3.8125 -6.5625 3.28125 -6.5625 C 2.75 -6.5625 2.34375 -6.375 2.0625 -6 C 1.78125 -5.625 1.640625 -5.035156 1.640625 -4.234375 Z M 1.640625 -3.203125 "/></g></g></g><g fill="#231f20" fill-opacity="1"><g transform="translate(221.732805, 233.731873)"><g><path d="M 0.828125 0 L 0.828125 -7.4375 L 2.109375 -7.4375 L 4.875 -2.34375 L 5.109375 -1.890625 L 5.125 -1.890625 L 5.125 -7.4375 L 6.234375 -7.4375 L 6.234375 0 L 4.953125 0 L 2.203125 -5.078125 L 1.96875 -5.546875 L 1.953125 -5.546875 L 1.953125 0 Z M 0.828125 0 "/></g></g></g><g fill="#231f20" fill-opacity="1"><g transform="translate(231.20001, 233.731873)"><g/></g></g><g fill="#231f20" fill-opacity="1"><g transform="translate(236.288945, 233.731873)"><g><path d="M 0.828125 0 L 0.828125 -7.4375 L 2.109375 -7.4375 L 4.875 -2.34375 L 5.109375 -1.890625 L 5.125 -1.890625 L 5.125 -7.4375 L 6.234375 -7.4375 L 6.234375 0 L 4.953125 0 L 2.203125 -5.078125 L 1.96875 -5.546875 L 1.953125 -5.546875 L 1.953125 0 Z M 0.828125 0 "/></g></g></g><g fill="#231f20" fill-opacity="1"><g transform="translate(245.75615, 233.731873)"><g><path d="M 3.28125 0.140625 C 1.425781 0.140625 0.5 -0.992188 0.5 -3.265625 L 0.5 -4.1875 C 0.5 -6.4375 1.421875 -7.5625 3.265625 -7.5625 C 5.117188 -7.5625 6.046875 -6.4375 6.046875 -4.1875 L 6.046875 -3.265625 C 6.046875 -0.992188 5.125 0.140625 3.28125 0.140625 Z M 1.640625 -3.203125 C 1.640625 -2.398438 1.78125 -1.804688 2.0625 -1.421875 C 2.34375 -1.046875 2.75 -0.859375 3.28125 -0.859375 C 3.8125 -0.859375 4.210938 -1.046875 4.484375 -1.421875 C 4.765625 -1.804688 4.90625 -2.398438 4.90625 -3.203125 L 4.90625 -4.234375 C 4.90625 -5.035156 4.765625 -5.625 4.484375 -6 C 4.210938 -6.375 3.8125 -6.5625 3.28125 -6.5625 C 2.75 -6.5625 2.34375 -6.375 2.0625 -6 C 1.78125 -5.625 1.640625 -5.035156 1.640625 -4.234375 Z M 1.640625 -3.203125 "/></g></g></g><g fill="#231f20" fill-opacity="1"><g transform="translate(254.693561, 233.731873)"><g><path d="M 0.828125 0 L 0.828125 -7.4375 L 1.96875 -7.4375 L 1.96875 -4.296875 L 3.015625 -4.296875 L 4.5 -7.4375 L 5.78125 -7.4375 L 3.953125 -3.84375 L 3.953125 -3.796875 L 6.09375 0 L 4.8125 0 L 3.015625 -3.3125 L 1.96875 -3.3125 L 1.96875 0 Z M 0.828125 0 "/></g></g></g><g fill="#231f20" fill-opacity="1"><g transform="translate(263.321102, 233.731873)"><g><path d="M 2.015625 0 L 2.015625 -6.453125 L 0.046875 -6.453125 L 0.046875 -7.4375 L 5.109375 -7.4375 L 5.109375 -6.453125 L 3.15625 -6.453125 L 3.15625 0 Z M 2.015625 0 "/></g></g></g><g fill="#231f20" fill-opacity="1"><g transform="translate(270.869063, 233.731873)"><g><path d="M 0.125 0 L 2.4375 -7.4375 L 3.921875 -7.4375 L 6.234375 0 L 5.046875 0 L 4.53125 -1.765625 L 1.828125 -1.765625 L 1.3125 0 Z M 2.09375 -2.703125 L 4.265625 -2.703125 L 3.3125 -5.90625 L 3.1875 -6.421875 L 3.171875 -6.421875 L 3.046875 -5.90625 Z M 2.09375 -2.703125 "/></g></g></g><g clip-path="url(#011b1fa389)"><path fill="#fe6e6e" d="M 230.375 43.605469 L 117.511719 156.464844 L 95.964844 166.785156 L 106.28125 145.234375 L 219.144531 32.375 Z M 230.375 43.605469 " fill-opacity="1" fill-rule="nonzero"/></g><path fill="#231f20" d="M 97.175781 165.582031 L 107.953125 160.421875 L 102.335938 154.800781 Z M 97.175781 165.582031 " fill-opacity="1" fill-rule="nonzero"/><path fill="#f0c960" d="M 116.785156 155.582031 L 114.710938 148.046875 L 107.179688 145.976562 L 106.636719 145.824219 L 102.855469 153.71875 L 109.039062 159.898438 L 116.933594 156.121094 Z M 116.785156 155.582031 " fill-opacity="1" fill-rule="nonzero"/><g clip-path="url(#9fb6e76301)"><path stroke-linecap="round" transform="matrix(1.145823, 0, 0, 1.145823, 94.089066, 22.000227)" fill="none" stroke-linejoin="round" d="M 118.941522 18.855654 L 20.441772 117.351995 L 1.637058 126.358894 L 10.640548 107.55077 L 109.140298 9.054429 " stroke="#333333" stroke-width="2" stroke-opacity="1" stroke-miterlimit="10"/></g><path stroke-linecap="round" transform="matrix(1.145823, 0, 0, 1.145823, 94.089066, 22.000227)" fill="none" stroke-linejoin="round" d="M 10.715548 107.479178 L 18.399708 109.592834 L 20.513364 117.280403 " stroke="#333333" stroke-width="2" stroke-opacity="1" stroke-miterlimit="10"/><g clip-path="url(#386b854456)"><path stroke-linecap="round" transform="matrix(1.145823, 0, 0, 1.145823, 94.089066, 22.000227)" fill="none" stroke-linejoin="round" d="M 30.300952 97.698409 L 111.243726 16.755635 " stroke="#333333" stroke-width="2" stroke-opacity="1" stroke-miterlimit="10"/></g><path stroke-linecap="round" transform="matrix(1.145823, 0, 0, 1.145823, 94.089066, 22.000227)" fill="none" stroke-linejoin="round" d="M 18.399708 109.599652 L 23.271343 104.731426 " stroke="#333333" stroke-width="2" stroke-opacity="1" stroke-miterlimit="10"/><path stroke-linecap="round" transform="matrix(1.145823, 0, 0, 1.145823, 94.089066, 22.000227)" fill="none" stroke-linejoin="round" d="M 7.200744 115.200839 L 12.798522 120.798616 " stroke="#333333" stroke-width="2" stroke-opacity="1" stroke-miterlimit="10"/><g clip-path="url(#4217dc6972)"><path fill="#f8f1e9" d="M 174.144531 144.78125 C 174.144531 144.773438 174.144531 144.761719 174.140625 144.753906 C 174.140625 144.753906 174.140625 144.753906 174.140625 144.75 C 174.144531 144.761719 174.144531 144.773438 174.144531 144.78125 Z M 180.6875 136.835938 C 180.6875 136.828125 180.6875 136.820312 180.6875 136.8125 C 180.6875 136.816406 180.6875 136.824219 180.6875 136.832031 C 180.6875 136.832031 180.6875 136.835938 180.6875 136.835938 Z M 180.683594 136.753906 C 180.683594 136.757812 180.683594 136.757812 180.683594 136.761719 C 180.679688 136.746094 180.679688 136.734375 180.675781 136.71875 C 180.675781 136.722656 180.675781 136.726562 180.679688 136.726562 C 180.679688 136.738281 180.679688 136.746094 180.683594 136.753906 Z M 180.6875 136.808594 C 180.6875 136.800781 180.6875 136.796875 180.683594 136.789062 C 180.6875 136.796875 180.6875 136.804688 180.6875 136.8125 C 180.6875 136.808594 180.6875 136.808594 180.6875 136.808594 Z M 174.140625 145.058594 C 174.144531 145.035156 174.148438 145.015625 174.148438 144.992188 C 174.148438 144.992188 174.148438 144.992188 174.148438 144.996094 C 174.148438 145.015625 174.144531 145.035156 174.140625 145.058594 Z M 174.152344 144.878906 C 174.152344 144.90625 174.152344 144.9375 174.152344 144.96875 C 174.152344 144.9375 174.152344 144.910156 174.152344 144.878906 C 174.152344 144.875 174.152344 144.871094 174.152344 144.867188 C 174.152344 144.871094 174.152344 144.875 174.152344 144.878906 Z M 180.667969 136.679688 C 180.671875 136.683594 180.671875 136.6875 180.671875 136.6875 C 180.667969 136.675781 180.667969 136.664062 180.664062 136.648438 C 180.664062 136.652344 180.664062 136.652344 180.664062 136.65625 C 180.667969 136.664062 180.667969 136.671875 180.667969 136.679688 Z M 180.144531 136.003906 C 180.144531 136.003906 180.144531 136.003906 180.148438 136.003906 C 180.144531 136.003906 180.144531 136.003906 180.144531 136.003906 Z M 180.5625 136.390625 C 180.558594 136.386719 180.554688 136.378906 180.550781 136.371094 C 180.554688 136.375 180.554688 136.375 180.554688 136.375 C 180.558594 136.382812 180.558594 136.386719 180.5625 136.390625 Z M 180.148438 136.003906 C 180.148438 136.003906 180.152344 136.003906 180.152344 136.007812 C 180.148438 136.003906 180.148438 136.003906 180.148438 136.003906 Z M 180.597656 136.453125 C 180.59375 136.453125 180.59375 136.453125 180.59375 136.449219 C 180.59375 136.453125 180.59375 136.453125 180.59375 136.453125 C 180.59375 136.453125 180.59375 136.453125 180.597656 136.453125 Z M 180.59375 136.449219 C 180.59375 136.445312 180.589844 136.441406 180.589844 136.4375 C 180.589844 136.441406 180.59375 136.445312 180.59375 136.449219 Z M 180.65625 136.617188 C 180.652344 136.609375 180.652344 136.601562 180.648438 136.59375 C 180.648438 136.597656 180.652344 136.605469 180.652344 136.609375 C 180.652344 136.609375 180.652344 136.613281 180.65625 136.617188 Z M 180.648438 136.59375 C 180.648438 136.589844 180.644531 136.585938 180.644531 136.582031 C 180.644531 136.582031 180.644531 136.582031 180.644531 136.585938 C 180.648438 136.589844 180.648438 136.589844 180.648438 136.59375 Z M 180.632812 136.542969 C 180.628906 136.535156 180.625 136.523438 180.621094 136.515625 C 180.621094 136.515625 180.621094 136.515625 180.625 136.519531 C 180.625 136.523438 180.625 136.527344 180.628906 136.53125 C 180.628906 136.535156 180.632812 136.539062 180.632812 136.542969 Z M 174.109375 145.199219 C 174.113281 145.191406 174.117188 145.179688 174.121094 145.167969 C 174.117188 145.179688 174.113281 145.191406 174.109375 145.199219 Z M 174.003906 145.4375 C 174.003906 145.4375 174.007812 145.433594 174.007812 145.433594 C 174.007812 145.433594 174.003906 145.4375 174.003906 145.4375 Z M 173.945312 144.292969 C 173.949219 144.296875 173.953125 144.300781 173.957031 144.304688 C 173.953125 144.300781 173.949219 144.296875 173.945312 144.292969 Z M 173.882812 144.21875 C 173.882812 144.222656 173.886719 144.222656 173.886719 144.226562 C 173.886719 144.222656 173.882812 144.222656 173.882812 144.21875 Z M 174.007812 144.378906 C 174.011719 144.382812 174.011719 144.386719 174.015625 144.390625 C 174.011719 144.386719 174.011719 144.382812 174.007812 144.378906 Z M 174.128906 144.679688 C 174.128906 144.671875 174.125 144.664062 174.125 144.65625 C 174.125 144.65625 174.125 144.660156 174.125 144.660156 C 174.125 144.667969 174.128906 144.671875 174.128906 144.679688 Z M 174.128906 144.683594 C 174.128906 144.683594 174.128906 144.679688 174.128906 144.679688 C 174.128906 144.683594 174.128906 144.683594 174.128906 144.683594 Z M 173.894531 144.234375 C 173.894531 144.230469 173.890625 144.230469 173.886719 144.226562 C 173.890625 144.230469 173.894531 144.230469 173.894531 144.234375 Z M 174.015625 144.390625 C 174.015625 144.390625 174.015625 144.394531 174.015625 144.394531 C 174.015625 144.390625 174.015625 144.390625 174.015625 144.390625 Z M 174.09375 145.25 C 174.101562 145.234375 174.105469 145.21875 174.109375 145.199219 C 174.105469 145.21875 174.101562 145.234375 174.09375 145.25 Z M 174.097656 144.570312 C 174.097656 144.566406 174.09375 144.558594 174.09375 144.554688 C 174.09375 144.554688 174.09375 144.558594 174.09375 144.558594 C 174.09375 144.5625 174.097656 144.566406 174.097656 144.570312 Z M 180.214844 136.039062 Z M 174.019531 145.414062 C 174.027344 145.394531 174.039062 145.375 174.046875 145.355469 C 174.039062 145.375 174.027344 145.394531 174.019531 145.414062 Z M 174.121094 145.15625 C 174.128906 145.132812 174.132812 145.109375 174.136719 145.082031 C 174.136719 145.082031 174.136719 145.085938 174.136719 145.085938 C 174.132812 145.109375 174.128906 145.132812 174.121094 145.15625 Z M 174.058594 145.332031 C 174.0625 145.328125 174.0625 145.324219 174.066406 145.320312 C 174.0625 145.324219 174.0625 145.328125 174.058594 145.332031 Z M 174.0625 144.484375 C 174.058594 144.476562 174.058594 144.46875 174.054688 144.460938 C 174.058594 144.46875 174.058594 144.476562 174.0625 144.484375 Z M 174.066406 145.320312 C 174.070312 145.304688 174.078125 145.289062 174.085938 145.273438 C 174.078125 145.289062 174.070312 145.304688 174.066406 145.320312 Z M 185.789062 159.785156 C 185.78125 160.042969 185.890625 160.300781 186.125 160.503906 C 185.890625 160.300781 185.78125 160.042969 185.789062 159.785156 Z M 226.75 109.78125 C 227.035156 110 227.207031 110.132812 227.34375 110.171875 C 227.207031 110.132812 227.035156 110 226.75 109.78125 Z M 225.226562 111.117188 C 225.277344 111.164062 225.328125 111.207031 225.378906 111.25 C 225.328125 111.207031 225.277344 111.164062 225.226562 111.117188 Z M 224.839844 110.269531 C 224.84375 110.222656 224.851562 110.171875 224.863281 110.121094 C 224.851562 110.171875 224.84375 110.222656 224.839844 110.269531 Z M 224.839844 110.324219 C 224.835938 110.589844 224.949219 110.832031 225.148438 111.039062 C 224.949219 110.832031 224.835938 110.589844 224.839844 110.324219 Z M 232.628906 103.726562 C 232.550781 103.8125 232.484375 103.914062 232.414062 104.007812 C 232.484375 103.914062 232.550781 103.8125 232.628906 103.726562 Z M 211.914062 126.972656 C 211.792969 126.90625 211.667969 126.867188 211.535156 126.851562 C 211.667969 126.867188 211.792969 126.90625 211.914062 126.972656 Z M 232.570312 103.3125 C 232.730469 103.429688 232.785156 103.546875 232.644531 103.710938 C 232.785156 103.546875 232.730469 103.429688 232.570312 103.3125 Z M 219.523438 120.054688 C 219.554688 120.082031 219.578125 120.109375 219.597656 120.140625 C 219.578125 120.109375 219.554688 120.082031 219.523438 120.054688 Z M 247.722656 86.0625 C 247.808594 86.140625 247.878906 86.222656 247.933594 86.304688 C 247.878906 86.222656 247.808594 86.140625 247.722656 86.0625 Z M 180.207031 136.035156 C 180.207031 136.035156 180.210938 136.039062 180.214844 136.039062 C 180.210938 136.039062 180.207031 136.035156 180.207031 136.035156 Z M 205.476562 138.410156 C 205.585938 138.40625 205.675781 138.277344 205.886719 137.996094 C 205.675781 138.277344 205.585938 138.40625 205.476562 138.410156 Z M 219.097656 117.382812 C 218.726562 117.3125 218.363281 117.453125 218.136719 117.761719 C 218.363281 117.453125 218.726562 117.3125 219.097656 117.382812 Z M 257.40625 73.382812 C 257.382812 76.695312 256.332031 79.640625 254.316406 82.28125 C 253.570312 83.257812 252.867188 84.273438 252.109375 85.242188 C 250.011719 87.921875 247.910156 90.601562 245.816406 93.28125 C 244.34375 95.164062 242.875 97.050781 241.402344 98.9375 C 239.589844 101.257812 237.777344 103.574219 235.96875 105.894531 C 234.667969 107.5625 233.367188 109.230469 232.066406 110.898438 C 230.394531 113.046875 228.71875 115.195312 227.046875 117.34375 C 224.605469 120.476562 222.164062 123.613281 219.722656 126.746094 C 216.960938 130.285156 214.195312 133.820312 211.433594 137.359375 C 209.226562 140.1875 207.023438 143.019531 204.816406 145.84375 C 202.292969 149.078125 199.765625 152.308594 197.242188 155.542969 C 194.785156 158.691406 192.332031 161.839844 189.878906 164.988281 C 189.222656 165.828125 188.570312 166.671875 187.910156 167.511719 C 187.691406 167.792969 187.445312 168.039062 187.0625 168.070312 C 186.789062 168.09375 186.546875 168.023438 186.347656 167.839844 C 185.359375 166.925781 184.25 166.164062 183.191406 165.339844 C 180.597656 163.3125 177.988281 161.304688 175.378906 159.289062 C 172.699219 157.222656 170.019531 155.15625 167.339844 153.089844 C 166.726562 152.617188 166.121094 152.136719 165.511719 151.660156 C 164.863281 151.15625 164.78125 150.613281 165.285156 149.953125 C 165.84375 149.222656 166.429688 148.511719 166.992188 147.789062 C 169.597656 144.453125 172.199219 141.117188 174.800781 137.78125 C 177.269531 134.617188 179.734375 131.457031 182.199219 128.292969 C 184.824219 124.929688 187.449219 121.566406 190.074219 118.199219 C 192.429688 115.183594 194.78125 112.167969 197.136719 109.152344 C 200 105.480469 202.859375 101.8125 205.726562 98.144531 C 208.171875 95.011719 210.628906 91.890625 213.074219 88.757812 C 214.828125 86.511719 216.566406 84.25 218.324219 82.003906 C 220.769531 78.871094 223.222656 75.75 225.667969 72.617188 C 227.523438 70.238281 229.371094 67.851562 231.222656 65.472656 C 231.8125 64.71875 232.375 63.941406 233.066406 63.273438 C 235.222656 61.179688 237.765625 59.800781 240.746094 59.320312 C 245.035156 58.625 248.890625 59.660156 252.253906 62.410156 C 254.917969 64.59375 256.539062 67.414062 257.179688 70.800781 C 257.34375 71.652344 257.429688 72.507812 257.40625 73.382812 Z M 174.125 144.65625 C 174.125 144.65625 174.125 144.660156 174.125 144.660156 C 174.125 144.667969 174.128906 144.671875 174.128906 144.679688 C 174.128906 144.683594 174.128906 144.683594 174.128906 144.683594 C 174.128906 144.683594 174.128906 144.679688 174.128906 144.679688 C 174.128906 144.671875 174.125 144.664062 174.125 144.65625 Z M 173.894531 144.234375 C 173.894531 144.230469 173.890625 144.230469 173.886719 144.226562 C 173.886719 144.222656 173.882812 144.222656 173.882812 144.21875 C 173.882812 144.222656 173.886719 144.222656 173.886719 144.226562 C 173.890625 144.230469 173.894531 144.230469 173.894531 144.234375 Z M 173.957031 144.304688 C 173.953125 144.300781 173.949219 144.296875 173.945312 144.292969 C 173.949219 144.296875 173.953125 144.300781 173.957031 144.304688 Z M 174.007812 145.433594 C 174.007812 145.433594 174.003906 145.4375 174.003906 145.4375 C 174.003906 145.4375 174.007812 145.433594 174.007812 145.433594 Z M 174.015625 144.394531 C 174.015625 144.390625 174.015625 144.390625 174.015625 144.390625 C 174.011719 144.386719 174.011719 144.382812 174.007812 144.378906 C 174.011719 144.382812 174.011719 144.386719 174.015625 144.390625 C 174.015625 144.390625 174.015625 144.394531 174.015625 144.394531 Z M 174.046875 145.355469 C 174.039062 145.375 174.027344 145.394531 174.019531 145.414062 C 174.027344 145.394531 174.039062 145.375 174.046875 145.355469 Z M 174.054688 144.460938 C 174.058594 144.46875 174.058594 144.476562 174.0625 144.484375 C 174.058594 144.476562 174.058594 144.46875 174.054688 144.460938 Z M 174.085938 145.273438 C 174.078125 145.289062 174.070312 145.304688 174.066406 145.320312 C 174.0625 145.324219 174.0625 145.328125 174.058594 145.332031 C 174.0625 145.328125 174.0625 145.324219 174.066406 145.320312 C 174.070312 145.304688 174.078125 145.289062 174.085938 145.273438 Z M 174.09375 144.554688 C 174.09375 144.554688 174.09375 144.558594 174.09375 144.558594 C 174.09375 144.5625 174.097656 144.566406 174.097656 144.570312 C 174.097656 144.566406 174.09375 144.558594 174.09375 144.554688 Z M 174.121094 145.167969 C 174.117188 145.179688 174.113281 145.191406 174.109375 145.199219 C 174.105469 145.21875 174.101562 145.234375 174.09375 145.25 C 174.101562 145.234375 174.105469 145.21875 174.109375 145.199219 C 174.113281 145.191406 174.117188 145.179688 174.121094 145.167969 Z M 174.136719 145.082031 C 174.136719 145.082031 174.136719 145.085938 174.136719 145.085938 C 174.132812 145.109375 174.128906 145.132812 174.121094 145.15625 C 174.128906 145.132812 174.132812 145.109375 174.136719 145.082031 Z M 174.140625 144.75 C 174.144531 144.761719 174.144531 144.773438 174.144531 144.78125 C 174.144531 144.773438 174.144531 144.761719 174.140625 144.753906 C 174.140625 144.753906 174.140625 144.753906 174.140625 144.75 Z M 174.148438 144.992188 C 174.148438 144.992188 174.148438 144.992188 174.148438 144.996094 C 174.148438 145.015625 174.144531 145.035156 174.140625 145.058594 C 174.144531 145.035156 174.148438 145.015625 174.148438 144.992188 Z M 174.152344 144.878906 C 174.152344 144.875 174.152344 144.871094 174.152344 144.867188 C 174.152344 144.871094 174.152344 144.875 174.152344 144.878906 C 174.152344 144.90625 174.152344 144.9375 174.152344 144.96875 C 174.152344 144.9375 174.152344 144.910156 174.152344 144.878906 Z M 180.683594 136.789062 C 180.6875 136.796875 180.6875 136.804688 180.6875 136.8125 C 180.6875 136.816406 180.6875 136.824219 180.6875 136.832031 C 180.6875 136.832031 180.6875 136.835938 180.6875 136.835938 C 180.6875 136.828125 180.6875 136.820312 180.6875 136.8125 C 180.6875 136.808594 180.6875 136.808594 180.6875 136.808594 C 180.6875 136.800781 180.6875 136.796875 180.683594 136.789062 Z M 180.675781 136.71875 C 180.675781 136.722656 180.675781 136.726562 180.679688 136.726562 C 180.679688 136.738281 180.679688 136.746094 180.683594 136.753906 C 180.683594 136.757812 180.683594 136.757812 180.683594 136.761719 C 180.679688 136.746094 180.679688 136.734375 180.675781 136.71875 Z M 180.664062 136.648438 C 180.664062 136.652344 180.664062 136.652344 180.664062 136.65625 C 180.667969 136.664062 180.667969 136.671875 180.667969 136.679688 C 180.671875 136.683594 180.671875 136.6875 180.671875 136.6875 C 180.667969 136.675781 180.667969 136.664062 180.664062 136.648438 Z M 180.644531 136.582031 C 180.644531 136.582031 180.644531 136.582031 180.644531 136.585938 C 180.648438 136.589844 180.648438 136.589844 180.648438 136.59375 C 180.652344 136.601562 180.652344 136.609375 180.65625 136.617188 C 180.652344 136.613281 180.652344 136.609375 180.652344 136.609375 C 180.652344 136.605469 180.648438 136.597656 180.648438 136.59375 C 180.648438 136.589844 180.644531 136.585938 180.644531 136.582031 Z M 180.621094 136.515625 C 180.625 136.523438 180.628906 136.535156 180.632812 136.542969 C 180.632812 136.539062 180.628906 136.535156 180.628906 136.53125 C 180.625 136.527344 180.625 136.523438 180.625 136.519531 C 180.621094 136.515625 180.621094 136.515625 180.621094 136.515625 Z M 180.589844 136.4375 C 180.589844 136.441406 180.59375 136.445312 180.59375 136.449219 C 180.59375 136.453125 180.59375 136.453125 180.59375 136.453125 C 180.59375 136.453125 180.59375 136.453125 180.597656 136.453125 C 180.59375 136.453125 180.59375 136.453125 180.59375 136.449219 C 180.59375 136.445312 180.589844 136.441406 180.589844 136.4375 Z M 180.550781 136.371094 C 180.554688 136.375 180.554688 136.375 180.554688 136.375 C 180.558594 136.382812 180.558594 136.386719 180.5625 136.390625 C 180.558594 136.386719 180.554688 136.378906 180.550781 136.371094 Z M 180.152344 136.007812 C 180.148438 136.003906 180.148438 136.003906 180.148438 136.003906 C 180.144531 136.003906 180.144531 136.003906 180.144531 136.003906 C 180.144531 136.003906 180.144531 136.003906 180.148438 136.003906 C 180.148438 136.003906 180.152344 136.003906 180.152344 136.007812 Z M 180.214844 136.039062 C 180.210938 136.039062 180.207031 136.035156 180.207031 136.035156 C 180.207031 136.035156 180.210938 136.039062 180.214844 136.039062 Z M 180.273438 136.074219 C 180.269531 136.074219 180.269531 136.074219 180.269531 136.074219 C 180.269531 136.074219 180.269531 136.074219 180.265625 136.070312 C 180.265625 136.070312 180.269531 136.074219 180.269531 136.074219 C 180.269531 136.074219 180.269531 136.074219 180.273438 136.074219 Z M 180.4375 136.21875 C 180.4375 136.214844 180.433594 136.210938 180.429688 136.210938 C 180.433594 136.210938 180.433594 136.214844 180.4375 136.21875 Z M 180.484375 136.277344 C 180.480469 136.269531 180.476562 136.265625 180.472656 136.261719 C 180.476562 136.265625 180.480469 136.269531 180.484375 136.273438 C 180.484375 136.273438 180.484375 136.273438 180.484375 136.277344 Z M 180.523438 136.328125 C 180.527344 136.332031 180.527344 136.332031 180.527344 136.332031 C 180.527344 136.332031 180.523438 136.328125 180.523438 136.328125 C 180.519531 136.324219 180.519531 136.320312 180.515625 136.3125 C 180.515625 136.316406 180.515625 136.316406 180.515625 136.316406 C 180.519531 136.320312 180.523438 136.324219 180.523438 136.328125 Z M 180.691406 136.910156 C 180.691406 136.890625 180.691406 136.871094 180.6875 136.851562 C 180.691406 136.871094 180.691406 136.890625 180.691406 136.910156 C 180.695312 137.117188 180.632812 137.304688 180.527344 137.472656 C 180.632812 137.304688 180.695312 137.117188 180.691406 136.910156 Z M 193.648438 149.109375 C 193.648438 149.144531 193.648438 149.179688 193.652344 149.210938 C 193.65625 149.242188 193.660156 149.273438 193.664062 149.300781 C 193.703125 149.511719 193.8125 149.714844 193.996094 149.886719 C 194.039062 149.929688 194.085938 149.96875 194.132812 150.011719 C 194.085938 149.96875 194.039062 149.929688 193.996094 149.886719 C 193.8125 149.714844 193.703125 149.511719 193.664062 149.300781 C 193.660156 149.273438 193.65625 149.242188 193.652344 149.210938 C 193.648438 149.179688 193.648438 149.144531 193.648438 149.109375 Z M 192.679688 154.917969 C 193.550781 153.804688 194.417969 152.6875 195.289062 151.574219 C 195.300781 151.554688 195.316406 151.539062 195.328125 151.523438 C 195.316406 151.539062 195.300781 151.554688 195.289062 151.574219 C 194.417969 152.6875 193.550781 153.804688 192.679688 154.917969 Z M 188.652344 159.910156 C 188.648438 159.910156 188.648438 159.910156 188.648438 159.910156 C 188.648438 159.910156 188.648438 159.910156 188.652344 159.910156 Z M 185.847656 159.484375 C 185.863281 159.441406 185.878906 159.402344 185.898438 159.363281 C 185.878906 159.402344 185.863281 159.441406 185.847656 159.484375 Z M 186.9375 161.179688 C 186.660156 160.957031 186.390625 160.734375 186.125 160.503906 C 185.890625 160.300781 185.78125 160.042969 185.789062 159.785156 C 185.78125 160.042969 185.890625 160.300781 186.125 160.503906 C 186.390625 160.734375 186.660156 160.957031 186.9375 161.179688 Z M 188.050781 159.511719 C 187.917969 159.410156 187.785156 159.3125 187.652344 159.210938 C 187.535156 159.125 187.417969 159.03125 187.289062 158.964844 C 186.804688 158.710938 186.304688 158.808594 186 159.207031 C 185.960938 159.253906 185.929688 159.304688 185.902344 159.355469 C 185.929688 159.304688 185.960938 159.253906 186 159.207031 C 186.304688 158.808594 186.804688 158.710938 187.289062 158.964844 C 187.417969 159.03125 187.535156 159.125 187.652344 159.210938 C 187.785156 159.3125 187.917969 159.410156 188.050781 159.511719 Z M 188.460938 162.332031 C 188.433594 162.316406 188.40625 162.300781 188.378906 162.285156 C 188.40625 162.300781 188.433594 162.316406 188.460938 162.332031 Z M 189 162.414062 C 188.957031 162.421875 188.914062 162.429688 188.867188 162.429688 C 188.75 162.429688 188.632812 162.410156 188.523438 162.363281 C 188.503906 162.355469 188.488281 162.347656 188.472656 162.339844 C 188.488281 162.347656 188.503906 162.355469 188.523438 162.363281 C 188.632812 162.410156 188.75 162.429688 188.867188 162.429688 C 188.914062 162.429688 188.957031 162.421875 189 162.414062 Z M 196.269531 153.5625 C 194.148438 156.277344 192.03125 158.996094 189.910156 161.710938 C 189.863281 161.773438 189.816406 161.832031 189.765625 161.890625 C 189.816406 161.832031 189.863281 161.773438 189.910156 161.710938 C 192.03125 158.996094 194.148438 156.277344 196.269531 153.5625 Z M 203.371094 137.121094 Z M 203.023438 137.167969 C 203.015625 137.171875 203.003906 137.175781 202.992188 137.179688 C 203.003906 137.175781 203.015625 137.171875 203.023438 137.167969 Z M 202.957031 139.058594 C 203.019531 139.105469 203.078125 139.15625 203.140625 139.203125 C 203.277344 139.3125 203.414062 139.421875 203.550781 139.527344 C 203.414062 139.421875 203.277344 139.3125 203.140625 139.203125 C 203.078125 139.15625 203.019531 139.105469 202.957031 139.058594 Z M 202.363281 138.097656 C 202.363281 138.136719 202.367188 138.175781 202.371094 138.214844 C 202.378906 138.257812 202.386719 138.296875 202.398438 138.335938 C 202.402344 138.355469 202.410156 138.378906 202.417969 138.398438 C 202.457031 138.503906 202.515625 138.609375 202.59375 138.710938 C 202.515625 138.609375 202.457031 138.503906 202.417969 138.398438 C 202.410156 138.378906 202.402344 138.355469 202.398438 138.335938 C 202.386719 138.296875 202.378906 138.257812 202.371094 138.214844 C 202.367188 138.175781 202.363281 138.136719 202.363281 138.097656 C 202.359375 137.875 202.4375 137.652344 202.597656 137.460938 C 202.671875 137.367188 202.765625 137.292969 202.867188 137.238281 C 202.765625 137.292969 202.671875 137.367188 202.597656 137.460938 C 202.4375 137.652344 202.359375 137.875 202.363281 138.097656 Z M 202.683594 138.8125 C 202.679688 138.8125 202.679688 138.808594 202.679688 138.808594 C 202.679688 138.808594 202.679688 138.8125 202.683594 138.8125 Z M 203.554688 140.980469 C 203.339844 141.257812 203.121094 141.539062 202.90625 141.816406 C 201.949219 143.042969 200.988281 144.269531 200.03125 145.492188 C 200.988281 144.269531 201.949219 143.042969 202.90625 141.816406 C 203.121094 141.539062 203.339844 141.257812 203.554688 140.980469 Z M 204.160156 140.09375 C 204.160156 140.105469 204.160156 140.117188 204.160156 140.128906 C 204.160156 140.148438 204.152344 140.171875 204.144531 140.195312 C 204.152344 140.171875 204.160156 140.148438 204.160156 140.128906 C 204.160156 140.117188 204.160156 140.105469 204.160156 140.09375 Z M 204.21875 137.515625 C 204.117188 137.4375 204.011719 137.359375 203.898438 137.289062 C 203.792969 137.222656 203.683594 137.175781 203.574219 137.148438 C 203.683594 137.175781 203.792969 137.222656 203.898438 137.289062 C 204.011719 137.359375 204.117188 137.4375 204.21875 137.515625 Z M 205.105469 138.195312 C 205.019531 138.128906 204.914062 138.046875 204.78125 137.953125 C 204.773438 137.945312 204.761719 137.9375 204.75 137.929688 C 204.761719 137.9375 204.773438 137.945312 204.78125 137.953125 C 204.914062 138.046875 205.019531 138.128906 205.105469 138.195312 Z M 209.195312 133.765625 C 208.152344 135.101562 207.105469 136.441406 206.058594 137.777344 C 205.992188 137.859375 205.9375 137.933594 205.886719 137.996094 C 205.675781 138.277344 205.585938 138.40625 205.476562 138.410156 C 205.414062 138.414062 205.34375 138.375 205.242188 138.300781 C 205.230469 138.292969 205.21875 138.285156 205.210938 138.277344 C 205.21875 138.285156 205.230469 138.292969 205.242188 138.300781 C 205.34375 138.375 205.414062 138.414062 205.476562 138.410156 C 205.585938 138.40625 205.675781 138.277344 205.886719 137.996094 C 205.9375 137.933594 205.992188 137.859375 206.058594 137.777344 C 207.105469 136.441406 208.152344 135.101562 209.195312 133.765625 Z M 210.910156 126.972656 C 210.5625 127.164062 210.386719 127.542969 210.4375 127.925781 C 210.386719 127.542969 210.5625 127.164062 210.910156 126.972656 Z M 211.097656 126.890625 C 211.050781 126.90625 211.007812 126.921875 210.96875 126.941406 C 211.007812 126.921875 211.050781 126.90625 211.097656 126.890625 Z M 211.734375 129.328125 C 211.609375 129.230469 211.480469 129.136719 211.355469 129.042969 C 211.269531 128.976562 211.183594 128.914062 211.101562 128.847656 C 211.183594 128.914062 211.269531 128.976562 211.355469 129.042969 C 211.480469 129.136719 211.609375 129.230469 211.734375 129.328125 Z M 212.84375 127.667969 C 212.597656 127.476562 212.351562 127.285156 212.101562 127.09375 C 212.058594 127.058594 212.011719 127.027344 211.96875 127 C 211.949219 126.992188 211.933594 126.980469 211.914062 126.972656 C 211.792969 126.90625 211.667969 126.867188 211.535156 126.851562 C 211.667969 126.867188 211.792969 126.90625 211.914062 126.972656 C 211.933594 126.980469 211.949219 126.992188 211.96875 127 C 212.011719 127.027344 212.058594 127.058594 212.101562 127.09375 C 212.351562 127.285156 212.597656 127.476562 212.84375 127.667969 Z M 240.183594 73.367188 C 240.210938 75.242188 241.675781 76.328125 243.175781 76.335938 C 244.503906 76.34375 246.222656 75.222656 246.128906 73.347656 C 246.125 71.675781 244.824219 70.378906 243.148438 70.378906 C 241.691406 70.375 240.15625 71.511719 240.183594 73.367188 Z M 245.585938 86.96875 C 245.570312 86.894531 245.511719 86.824219 245.402344 86.75 C 245.25 86.652344 245.109375 86.542969 244.972656 86.421875 C 245.109375 86.542969 245.25 86.652344 245.402344 86.75 C 245.511719 86.824219 245.570312 86.894531 245.585938 86.96875 Z M 244.6875 84.953125 C 244.765625 84.851562 244.859375 84.765625 244.960938 84.703125 C 244.859375 84.765625 244.765625 84.851562 244.6875 84.953125 C 244.453125 85.257812 244.429688 85.644531 244.601562 85.984375 C 244.429688 85.644531 244.453125 85.257812 244.6875 84.953125 Z M 240.925781 93.09375 C 240.941406 93.074219 240.957031 93.050781 240.976562 93.027344 C 240.957031 93.050781 240.941406 93.074219 240.925781 93.09375 Z M 240.511719 93.164062 C 240.476562 93.136719 240.433594 93.109375 240.390625 93.074219 C 240.433594 93.109375 240.476562 93.136719 240.511719 93.164062 C 240.671875 93.273438 240.746094 93.28125 240.859375 93.167969 C 240.746094 93.28125 240.671875 93.273438 240.511719 93.164062 Z M 240.042969 92.796875 C 240.070312 92.816406 240.09375 92.839844 240.121094 92.859375 C 240.09375 92.839844 240.070312 92.816406 240.042969 92.796875 Z M 238.679688 92.566406 C 238.902344 92.433594 239.179688 92.398438 239.453125 92.46875 C 239.179688 92.398438 238.902344 92.433594 238.679688 92.566406 Z M 238.207031 93.4375 C 238.207031 93.402344 238.207031 93.371094 238.210938 93.335938 C 238.207031 93.371094 238.207031 93.402344 238.207031 93.4375 Z M 237.363281 97.660156 C 237.976562 96.871094 238.589844 96.085938 239.203125 95.296875 C 239.503906 94.90625 239.5 94.902344 239.125 94.609375 C 239.054688 94.554688 238.980469 94.503906 238.90625 94.449219 C 238.980469 94.503906 239.054688 94.554688 239.125 94.609375 C 239.5 94.902344 239.503906 94.90625 239.203125 95.296875 C 238.589844 96.085938 237.976562 96.871094 237.363281 97.660156 Z M 234.246094 101.65625 C 234.1875 101.730469 234.140625 101.777344 234.097656 101.804688 C 234.140625 101.777344 234.1875 101.730469 234.246094 101.65625 Z M 231.503906 102.441406 C 231.535156 102.476562 231.566406 102.507812 231.597656 102.539062 C 231.566406 102.507812 231.535156 102.476562 231.503906 102.441406 C 231.179688 102.0625 231.171875 101.542969 231.46875 101.171875 C 231.746094 100.824219 232.246094 100.714844 232.671875 100.917969 C 233.023438 101.085938 233.292969 101.371094 233.605469 101.601562 C 233.644531 101.628906 233.679688 101.652344 233.710938 101.675781 C 233.679688 101.652344 233.644531 101.628906 233.605469 101.601562 C 233.292969 101.371094 233.023438 101.085938 232.671875 100.917969 C 232.246094 100.714844 231.746094 100.824219 231.46875 101.171875 C 231.171875 101.542969 231.179688 102.0625 231.503906 102.441406 Z M 232.644531 103.710938 C 232.785156 103.546875 232.730469 103.429688 232.570312 103.3125 C 232.414062 103.199219 232.261719 103.082031 232.105469 102.960938 C 232.261719 103.082031 232.414062 103.199219 232.570312 103.3125 C 232.730469 103.429688 232.785156 103.546875 232.644531 103.710938 Z M 232.414062 104.007812 C 232.484375 103.914062 232.550781 103.8125 232.628906 103.726562 C 232.550781 103.8125 232.484375 103.914062 232.414062 104.007812 Z M 227.691406 110.035156 C 227.777344 109.949219 227.882812 109.816406 228.015625 109.644531 C 229.335938 107.957031 230.648438 106.269531 231.964844 104.582031 C 230.648438 106.269531 229.335938 107.957031 228.015625 109.644531 C 227.882812 109.816406 227.777344 109.949219 227.691406 110.035156 Z M 227.378906 110.179688 C 227.382812 110.179688 227.386719 110.179688 227.394531 110.179688 C 227.386719 110.179688 227.382812 110.179688 227.378906 110.179688 Z M 226.59375 109.667969 C 226.648438 109.707031 226.699219 109.742188 226.75 109.78125 C 227.035156 110 227.207031 110.132812 227.34375 110.171875 C 227.207031 110.132812 227.035156 110 226.75 109.78125 C 226.699219 109.742188 226.648438 109.707031 226.59375 109.667969 Z M 225.226562 111.117188 C 225.277344 111.164062 225.328125 111.207031 225.378906 111.25 C 225.328125 111.207031 225.277344 111.164062 225.226562 111.117188 Z M 224.839844 110.324219 C 224.835938 110.589844 224.949219 110.832031 225.148438 111.039062 C 224.949219 110.832031 224.835938 110.589844 224.839844 110.324219 C 224.839844 110.304688 224.839844 110.285156 224.839844 110.269531 C 224.84375 110.222656 224.851562 110.171875 224.863281 110.121094 C 224.851562 110.171875 224.84375 110.222656 224.839844 110.269531 C 224.839844 110.285156 224.839844 110.304688 224.839844 110.324219 Z M 221.539062 117.949219 C 221.53125 117.960938 221.519531 117.976562 221.511719 117.988281 C 221.519531 117.976562 221.53125 117.960938 221.539062 117.949219 Z M 220.339844 118.171875 C 220.34375 118.171875 220.34375 118.175781 220.34375 118.175781 C 220.34375 118.175781 220.34375 118.171875 220.339844 118.171875 Z M 219.625 117.617188 C 219.65625 117.640625 219.683594 117.660156 219.714844 117.683594 C 219.683594 117.660156 219.65625 117.640625 219.625 117.617188 Z M 219.625 120.199219 C 219.628906 120.214844 219.632812 120.230469 219.636719 120.246094 C 219.632812 120.230469 219.628906 120.214844 219.625 120.199219 Z M 219.523438 120.054688 C 219.554688 120.082031 219.578125 120.109375 219.597656 120.140625 C 219.578125 120.109375 219.554688 120.082031 219.523438 120.054688 Z M 219.449219 119.992188 C 219.476562 120.011719 219.503906 120.03125 219.523438 120.054688 C 219.503906 120.03125 219.476562 120.011719 219.449219 119.992188 C 219.152344 119.777344 218.859375 119.550781 218.574219 119.316406 C 218.539062 119.285156 218.503906 119.257812 218.46875 119.226562 C 218.503906 119.257812 218.539062 119.285156 218.574219 119.316406 C 218.859375 119.550781 219.152344 119.777344 219.449219 119.992188 Z M 218.953125 121.25 C 219.066406 121.109375 219.179688 120.964844 219.289062 120.820312 C 219.179688 120.964844 219.066406 121.109375 218.953125 121.25 Z M 219.390625 117.476562 C 219.417969 117.492188 219.445312 117.503906 219.46875 117.519531 C 219.445312 117.503906 219.417969 117.492188 219.390625 117.476562 Z M 218.007812 117.996094 C 218.039062 117.914062 218.082031 117.835938 218.136719 117.761719 C 218.363281 117.453125 218.726562 117.3125 219.097656 117.382812 C 218.726562 117.3125 218.363281 117.453125 218.136719 117.761719 C 218.082031 117.835938 218.039062 117.914062 218.007812 117.996094 Z M 218.140625 118.894531 C 218.230469 119.011719 218.339844 119.113281 218.449219 119.210938 C 218.339844 119.113281 218.230469 119.011719 218.140625 118.894531 Z M 217.945312 118.328125 C 217.945312 118.328125 217.945312 118.324219 217.945312 118.324219 C 217.945312 118.324219 217.945312 118.328125 217.945312 118.328125 Z M 216.410156 124.515625 C 215.554688 125.613281 214.699219 126.710938 213.839844 127.808594 C 213.667969 128.027344 213.59375 128.121094 213.488281 128.109375 C 213.59375 128.121094 213.667969 128.027344 213.839844 127.808594 C 214.699219 126.710938 215.554688 125.613281 216.410156 124.515625 Z M 246.496094 89.203125 C 246.472656 89.230469 246.453125 89.261719 246.429688 89.289062 C 242.929688 93.777344 239.425781 98.261719 235.925781 102.746094 C 231.777344 108.058594 227.628906 113.371094 223.484375 118.683594 C 221.125 121.703125 218.769531 124.726562 216.410156 127.746094 C 218.769531 124.726562 221.125 121.703125 223.484375 118.683594 C 227.628906 113.371094 231.777344 108.058594 235.925781 102.746094 C 239.425781 98.261719 242.929688 93.777344 246.429688 89.289062 C 246.453125 89.261719 246.472656 89.230469 246.496094 89.203125 Z M 247.28125 85.675781 C 246.882812 85.339844 246.457031 85.027344 246.023438 84.742188 C 245.902344 84.664062 245.78125 84.609375 245.65625 84.585938 C 245.78125 84.609375 245.902344 84.664062 246.023438 84.742188 C 246.457031 85.027344 246.882812 85.339844 247.28125 85.675781 Z M 247.933594 86.304688 C 247.878906 86.222656 247.808594 86.140625 247.722656 86.0625 C 247.601562 85.949219 247.476562 85.839844 247.351562 85.730469 C 247.476562 85.839844 247.601562 85.949219 247.722656 86.0625 C 247.808594 86.140625 247.878906 86.222656 247.933594 86.304688 Z M 218.449219 119.210938 C 218.339844 119.113281 218.230469 119.011719 218.140625 118.894531 C 218.230469 119.011719 218.339844 119.113281 218.449219 119.210938 Z M 247.28125 85.675781 C 246.882812 85.339844 246.457031 85.027344 246.023438 84.742188 C 246.457031 85.027344 246.882812 85.339844 247.28125 85.675781 Z M 213.488281 128.109375 C 213.59375 128.121094 213.667969 128.027344 213.839844 127.808594 C 213.667969 128.027344 213.59375 128.121094 213.488281 128.109375 Z M 247.722656 86.0625 C 247.601562 85.949219 247.476562 85.839844 247.351562 85.730469 C 247.476562 85.839844 247.601562 85.949219 247.722656 86.0625 Z M 180.515625 136.316406 C 180.519531 136.320312 180.523438 136.324219 180.523438 136.328125 C 180.519531 136.324219 180.519531 136.320312 180.515625 136.3125 C 180.515625 136.316406 180.515625 136.316406 180.515625 136.316406 Z M 209.195312 133.765625 C 208.152344 135.101562 207.105469 136.441406 206.058594 137.777344 C 207.105469 136.441406 208.152344 135.101562 209.195312 133.765625 Z M 180.527344 136.332031 C 180.527344 136.332031 180.527344 136.332031 180.523438 136.328125 C 180.523438 136.328125 180.527344 136.332031 180.527344 136.332031 Z M 180.265625 136.070312 C 180.269531 136.074219 180.269531 136.074219 180.269531 136.074219 C 180.269531 136.074219 180.265625 136.070312 180.265625 136.070312 Z M 180.429688 136.210938 C 180.433594 136.210938 180.433594 136.214844 180.4375 136.21875 C 180.4375 136.214844 180.433594 136.210938 180.429688 136.210938 Z M 180.273438 136.074219 C 180.269531 136.074219 180.269531 136.074219 180.269531 136.074219 C 180.269531 136.074219 180.269531 136.074219 180.273438 136.074219 Z M 180.691406 136.910156 C 180.695312 137.117188 180.632812 137.304688 180.527344 137.472656 C 180.632812 137.304688 180.695312 137.117188 180.691406 136.910156 C 180.691406 136.890625 180.691406 136.871094 180.6875 136.851562 C 180.691406 136.871094 180.691406 136.890625 180.691406 136.910156 Z M 180.472656 136.261719 C 180.476562 136.265625 180.480469 136.269531 180.484375 136.273438 C 180.484375 136.273438 180.484375 136.273438 180.484375 136.277344 C 180.480469 136.269531 180.476562 136.265625 180.472656 136.261719 Z M 202.867188 137.238281 C 202.765625 137.292969 202.671875 137.367188 202.597656 137.460938 C 202.671875 137.367188 202.765625 137.292969 202.867188 137.238281 Z M 204.21875 137.515625 C 204.117188 137.4375 204.011719 137.359375 203.898438 137.289062 C 204.011719 137.359375 204.117188 137.4375 204.21875 137.515625 Z M 205.105469 138.195312 C 205.019531 138.128906 204.914062 138.046875 204.78125 137.953125 C 204.914062 138.046875 205.019531 138.128906 205.105469 138.195312 Z M 188.867188 162.429688 C 188.75 162.429688 188.632812 162.410156 188.523438 162.363281 C 188.632812 162.410156 188.75 162.429688 188.867188 162.429688 Z M 185.847656 159.484375 C 185.863281 159.441406 185.878906 159.402344 185.898438 159.363281 C 185.878906 159.402344 185.863281 159.441406 185.847656 159.484375 Z M 186.9375 161.179688 C 186.660156 160.957031 186.390625 160.734375 186.125 160.503906 C 186.390625 160.734375 186.660156 160.957031 186.9375 161.179688 Z M 193.664062 149.300781 C 193.703125 149.511719 193.8125 149.714844 193.996094 149.886719 C 193.8125 149.714844 193.703125 149.511719 193.664062 149.300781 Z M 193.664062 149.300781 " fill-opacity="1" fill-rule="nonzero"/></g><g clip-path="url(#27030a63c4)"><path fill="#231f20" d="M 225.84375 109.34375 C 226.042969 109.335938 226.253906 109.390625 226.4375 109.527344 C 226.542969 109.601562 226.644531 109.679688 226.746094 109.757812 C 227.46875 110.3125 227.472656 110.3125 228.015625 109.617188 C 229.476562 107.746094 230.9375 105.871094 232.398438 104 C 232.476562 103.898438 232.546875 103.789062 232.632812 103.695312 C 232.785156 103.527344 232.734375 103.40625 232.570312 103.289062 C 232.34375 103.125 232.125 102.957031 231.910156 102.785156 C 231.769531 102.667969 231.621094 102.554688 231.5 102.417969 C 231.175781 102.039062 231.171875 101.515625 231.46875 101.144531 C 231.746094 100.800781 232.242188 100.691406 232.667969 100.894531 C 233.023438 101.058594 233.292969 101.347656 233.605469 101.574219 C 234.035156 101.890625 234.035156 101.898438 234.34375 101.503906 C 235.964844 99.429688 237.582031 97.351562 239.199219 95.273438 C 239.503906 94.882812 239.5 94.878906 239.121094 94.585938 C 238.949219 94.449219 238.757812 94.328125 238.597656 94.183594 C 238.15625 93.789062 238.082031 93.230469 238.402344 92.792969 C 238.710938 92.375 239.289062 92.28125 239.789062 92.585938 C 239.976562 92.703125 240.136719 92.855469 240.3125 92.992188 C 240.730469 93.3125 240.734375 93.3125 241.042969 92.917969 C 242.082031 91.585938 243.125 90.246094 244.164062 88.910156 C 244.597656 88.359375 245.019531 87.804688 245.460938 87.257812 C 245.636719 87.042969 245.648438 86.890625 245.398438 86.726562 C 245.199219 86.59375 245.011719 86.441406 244.839844 86.277344 C 244.429688 85.882812 244.375 85.335938 244.683594 84.929688 C 245 84.515625 245.546875 84.402344 246.019531 84.714844 C 246.621094 85.109375 247.191406 85.546875 247.71875 86.035156 C 248.175781 86.457031 248.203125 86.929688 247.808594 87.472656 C 247.367188 88.082031 246.890625 88.667969 246.425781 89.265625 C 242.925781 93.75 239.425781 98.234375 235.921875 102.722656 C 231.777344 108.035156 227.628906 113.34375 223.480469 118.65625 C 219.800781 123.375 216.117188 128.09375 212.4375 132.8125 C 208.269531 138.15625 204.097656 143.496094 199.929688 148.839844 C 196.589844 153.121094 193.25 157.40625 189.90625 161.6875 C 189.78125 161.847656 189.65625 162.007812 189.503906 162.140625 C 189.152344 162.445312 188.699219 162.503906 188.328125 162.226562 C 187.574219 161.667969 186.832031 161.089844 186.121094 160.476562 C 185.703125 160.117188 185.691406 159.582031 185.996094 159.183594 C 186.300781 158.785156 186.800781 158.683594 187.285156 158.941406 C 187.414062 159.007812 187.53125 159.097656 187.648438 159.1875 C 187.898438 159.375 188.152344 159.5625 188.390625 159.765625 C 188.609375 159.949219 188.761719 159.917969 188.933594 159.695312 C 189.480469 158.976562 190.042969 158.269531 190.597656 157.558594 C 192.160156 155.554688 193.726562 153.554688 195.285156 151.546875 C 195.597656 151.148438 195.59375 151.144531 195.199219 150.828125 C 194.796875 150.507812 194.367188 150.214844 193.992188 149.863281 C 193.484375 149.382812 193.550781 148.644531 194.109375 148.300781 C 194.519531 148.046875 194.925781 148.121094 195.300781 148.390625 C 195.671875 148.660156 196.027344 148.953125 196.398438 149.226562 C 196.820312 149.542969 196.792969 149.625 197.160156 149.152344 C 199.070312 146.691406 200.988281 144.242188 202.902344 141.789062 C 203.277344 141.3125 203.644531 140.828125 204.03125 140.359375 C 204.207031 140.140625 204.214844 139.984375 203.972656 139.816406 C 203.683594 139.617188 203.414062 139.394531 203.140625 139.179688 C 202.980469 139.050781 202.816406 138.929688 202.675781 138.785156 C 202.28125 138.375 202.257812 137.84375 202.59375 137.4375 C 202.902344 137.066406 203.445312 136.980469 203.898438 137.265625 C 204.207031 137.460938 204.484375 137.710938 204.78125 137.925781 C 205.617188 138.535156 205.386719 138.605469 206.054688 137.75 C 208 135.273438 209.9375 132.789062 211.867188 130.300781 C 212.296875 129.75 212.4375 129.859375 211.730469 129.304688 C 211.398438 129.042969 211.042969 128.804688 210.742188 128.507812 C 210.171875 127.9375 210.414062 127.023438 211.164062 126.847656 C 211.507812 126.765625 211.820312 126.855469 212.097656 127.066406 C 212.449219 127.335938 212.796875 127.613281 213.148438 127.878906 C 213.527344 128.167969 213.535156 128.171875 213.839844 127.78125 C 215.3125 125.894531 216.785156 124.007812 218.257812 122.121094 C 218.675781 121.582031 219.089844 121.042969 219.515625 120.511719 C 219.695312 120.289062 219.675781 120.132812 219.445312 119.964844 C 219.148438 119.75 218.855469 119.523438 218.574219 119.292969 C 218.417969 119.164062 218.257812 119.027344 218.140625 118.867188 C 217.875 118.515625 217.882812 118.078125 218.132812 117.738281 C 218.398438 117.378906 218.839844 117.25 219.265625 117.402344 C 219.605469 117.523438 219.84375 117.789062 220.136719 117.980469 C 220.421875 118.164062 220.640625 118.578125 220.988281 118.511719 C 221.289062 118.449219 221.429688 118.042969 221.632812 117.785156 C 223.066406 115.960938 224.492188 114.128906 225.917969 112.300781 C 226.238281 111.890625 226.234375 111.886719 225.832031 111.570312 C 225.601562 111.390625 225.347656 111.226562 225.148438 111.015625 C 224.863281 110.71875 224.75 110.351562 224.910156 109.949219 C 225.058594 109.566406 225.394531 109.347656 225.84375 109.34375 Z M 186.710938 127.257812 C 186.230469 127.21875 185.917969 127.484375 185.648438 127.835938 C 184.632812 129.140625 183.613281 130.449219 182.59375 131.753906 C 182.46875 131.914062 182.355469 132.082031 182.292969 132.273438 C 182.15625 132.683594 182.28125 133.121094 182.605469 133.367188 C 182.929688 133.617188 183.382812 133.636719 183.738281 133.394531 C 183.859375 133.3125 183.972656 133.210938 184.0625 133.097656 C 185.15625 131.710938 186.242188 130.316406 187.328125 128.925781 C 187.488281 128.71875 187.585938 128.480469 187.597656 128.238281 C 187.601562 127.726562 187.199219 127.296875 186.710938 127.257812 Z M 179.257812 136.015625 C 179.09375 136.105469 178.960938 136.234375 178.847656 136.378906 C 177.875 137.621094 176.902344 138.871094 175.933594 140.117188 C 175.820312 140.265625 175.730469 140.425781 175.6875 140.609375 C 175.59375 141.011719 175.726562 141.398438 176.050781 141.636719 C 176.375 141.871094 176.789062 141.894531 177.132812 141.660156 C 177.285156 141.558594 177.421875 141.425781 177.535156 141.285156 C 178.5 140.058594 179.460938 138.824219 180.421875 137.59375 C 180.585938 137.386719 180.695312 137.15625 180.6875 136.882812 C 180.703125 136.117188 179.933594 135.648438 179.257812 136.015625 Z M 173.472656 143.949219 C 172.980469 143.792969 172.609375 144 172.3125 144.367188 C 171.910156 144.867188 171.519531 145.378906 171.125 145.882812 C 170.640625 146.507812 170.144531 147.125 169.675781 147.757812 C 169.246094 148.339844 169.378906 149.03125 169.941406 149.320312 C 170.371094 149.539062 170.863281 149.441406 171.222656 148.992188 C 172.128906 147.859375 173.007812 146.710938 173.898438 145.5625 C 174.0625 145.355469 174.160156 145.121094 174.152344 144.851562 C 174.140625 144.425781 173.878906 144.074219 173.472656 143.949219 Z M 173.472656 143.949219 " fill-opacity="1" fill-rule="nonzero"/></g><g clip-path="url(#0effcab6e1)"><path fill="#ffcae2" d="M 251.515625 134.886719 L 317.476562 68.925781 L 330.296875 81.746094 L 264.335938 147.710938 L 250.949219 153.550781 L 245.671875 148.277344 Z M 251.515625 134.886719 " fill-opacity="1" fill-rule="nonzero"/></g><g clip-path="url(#324d0329ae)"><path fill="#f8f1e9" d="M 244.527344 158.972656 L 241.976562 152.972656 L 246.175781 148.777344 L 250.449219 153.050781 Z M 244.527344 158.972656 " fill-opacity="1" fill-rule="nonzero"/></g><g clip-path="url(#899a687793)"><path stroke-linecap="round" transform="matrix(0.765686, 0, 0, 0.765686, 239.684154, 62.395434)" fill="none" stroke-linejoin="round" d="M 118.341808 25.272303 L 32.190562 111.423549 " stroke="#333333" stroke-width="2" stroke-opacity="1" stroke-miterlimit="10"/></g><g clip-path="url(#560ca3063f)"><path stroke-linecap="round" transform="matrix(0.765686, 0, 0, 0.765686, 239.684154, 62.395434)" fill="none" stroke-linejoin="round" d="M 15.45211 94.674894 L 101.598255 8.528749 " stroke="#333333" stroke-width="2" stroke-opacity="1" stroke-miterlimit="10"/></g><g clip-path="url(#453d99a67d)"><path stroke-linecap="round" transform="matrix(0.765686, 0, 0, 0.765686, 239.684154, 62.395434)" fill="none" stroke-linejoin="round" d="M 6.325292 126.131552 L 2.993926 118.295446 L 8.47818 112.816294 L 14.059365 118.397479 Z M 6.325292 126.131552 " stroke="#333333" stroke-width="2" stroke-opacity="1" stroke-miterlimit="10"/></g><path stroke-linecap="round" transform="matrix(0.765686, 0, 0, 0.765686, 239.684154, 62.395434)" fill="none" stroke-linejoin="round" d="M 28.042936 107.270821 L 15.45211 94.679995 L 7.82007 112.168387 L 14.712373 119.055589 L 32.195664 111.423549 " stroke="#333333" stroke-width="2" stroke-opacity="1" stroke-miterlimit="10"/><g clip-path="url(#797f0bec36)"><path stroke-linecap="round" transform="matrix(0.765686, 0, 0, 0.765686, 239.684154, 62.395434)" fill="none" stroke-linejoin="round" d="M 91.226638 27.272142 L 92.624485 28.669989 C 94.160076 30.20558 94.160076 32.715583 92.624485 34.251174 L 37.72073 89.149827 C 36.185139 90.69052 33.675137 90.69052 32.139546 89.149827 L 26.558361 83.573744 " stroke="#333333" stroke-width="2" stroke-opacity="1" stroke-miterlimit="10"/></g></svg>