<svg xmlns="http://www.w3.org/2000/svg" xmlns:xlink="http://www.w3.org/1999/xlink" width="500" zoomAndPan="magnify" viewBox="0 0 375 74.999997" height="100" preserveAspectRatio="xMidYMid meet" version="1.0"><defs><g/><clipPath id="e53da1e730"><path d="M 72.597656 15.960938 L 106.9375 15.960938 L 106.9375 47.402344 L 72.597656 47.402344 Z M 72.597656 15.960938 " clip-rule="nonzero"/></clipPath><clipPath id="a4d80c2137"><path d="M 106.9375 15.601562 L 138.601562 15.601562 L 138.601562 47.402344 L 106.9375 47.402344 Z M 106.9375 15.601562 " clip-rule="nonzero"/></clipPath><clipPath id="6ffd300d46"><path d="M 138.601562 15.601562 L 169.941406 15.601562 L 169.941406 47.402344 L 138.601562 47.402344 Z M 138.601562 15.601562 " clip-rule="nonzero"/></clipPath><clipPath id="ea0e6db3fc"><path d="M 82 15.960938 L 107.003906 15.960938 L 107.003906 40.710938 L 82 40.710938 Z M 82 15.960938 " clip-rule="nonzero"/></clipPath><clipPath id="64244ea05c"><path d="M 81.503906 15.960938 L 107.003906 15.960938 L 107.003906 40.710938 L 81.503906 40.710938 Z M 81.503906 15.960938 " clip-rule="nonzero"/></clipPath><clipPath id="30e22d40a3"><path d="M 97 15.960938 L 107.003906 15.960938 L 107.003906 25 L 97 25 Z M 97 15.960938 " clip-rule="nonzero"/></clipPath><clipPath id="e5289eaf9b"><path d="M 115.324219 15.601562 L 138.574219 15.601562 L 138.574219 38.851562 L 115.324219 38.851562 Z M 115.324219 15.601562 " clip-rule="nonzero"/></clipPath><clipPath id="6248a51833"><path d="M 117 15.601562 L 138.574219 15.601562 L 138.574219 37 L 117 37 Z M 117 15.601562 " clip-rule="nonzero"/></clipPath><clipPath id="77c7b70636"><path d="M 149 15.960938 L 169.949219 15.960938 L 169.949219 35 L 149 35 Z M 149 15.960938 " clip-rule="nonzero"/></clipPath><clipPath id="5be64f79f7"><path d="M 147.449219 31 L 153 31 L 153 37.632812 L 147.449219 37.632812 Z M 147.449219 31 " clip-rule="nonzero"/></clipPath><clipPath id="fc54a59b29"><path d="M 158 15.960938 L 169.949219 15.960938 L 169.949219 32 L 158 32 Z M 158 15.960938 " clip-rule="nonzero"/></clipPath><clipPath id="33d572f800"><path d="M 152 15.960938 L 169.949219 15.960938 L 169.949219 26 L 152 26 Z M 152 15.960938 " clip-rule="nonzero"/></clipPath><clipPath id="7b603a52c2"><path d="M 147.449219 31 L 153 31 L 153 37.632812 L 147.449219 37.632812 Z M 147.449219 31 " clip-rule="nonzero"/></clipPath><clipPath id="f4285407b3"><path d="M 156 15.960938 L 169.949219 15.960938 L 169.949219 24 L 156 24 Z M 156 15.960938 " clip-rule="nonzero"/></clipPath></defs><rect x="-37.5" width="450" fill="#ffffff" y="-7.5" height="89.999996" fill-opacity="1"/><rect x="-37.5" width="450" fill="#f8f1e9" y="-7.5" height="89.999996" fill-opacity="1"/><g clip-path="url(#e53da1e730)"><path fill="#3583f0" d="M 72.597656 15.960938 L 106.988281 15.960938 L 106.988281 47.402344 L 72.597656 47.402344 Z M 72.597656 15.960938 " fill-opacity="1" fill-rule="nonzero"/></g><g clip-path="url(#a4d80c2137)"><path fill="#2e6e4b" d="M 106.9375 15.601562 L 138.601562 15.601562 L 138.601562 47.390625 L 106.9375 47.390625 Z M 106.9375 15.601562 " fill-opacity="1" fill-rule="nonzero"/></g><g clip-path="url(#6ffd300d46)"><path fill="#fe6e6e" d="M 138.601562 15.601562 L 169.941406 15.601562 L 169.941406 47.429688 L 138.601562 47.429688 Z M 138.601562 15.601562 " fill-opacity="1" fill-rule="nonzero"/></g><g clip-path="url(#ea0e6db3fc)"><path fill="#fe6e6e" d="M 147.597656 -19.675781 L 92.585938 35.335938 L 82.082031 40.363281 L 87.113281 29.859375 L 142.125 -25.148438 Z M 147.597656 -19.675781 " fill-opacity="1" fill-rule="nonzero"/></g><path fill="#231f20" d="M 82.671875 39.777344 L 87.929688 37.261719 L 85.191406 34.523438 Z M 82.671875 39.777344 " fill-opacity="1" fill-rule="nonzero"/><path fill="#f0c960" d="M 92.230469 34.902344 L 91.222656 31.230469 L 87.550781 30.222656 L 87.285156 30.148438 L 85.441406 33.996094 L 88.457031 37.007812 L 92.304688 35.167969 Z M 92.230469 34.902344 " fill-opacity="1" fill-rule="nonzero"/><g clip-path="url(#64244ea05c)"><path stroke-linecap="round" transform="matrix(0.558505, 0, 0, 0.558505, 81.169417, -30.207349)" fill="none" stroke-linejoin="round" d="M 118.939446 18.856722 L 20.441226 117.354942 L 1.634032 126.356377 L 10.642461 107.549183 L 109.140681 9.057957 " stroke="#333333" stroke-width="2" stroke-opacity="1" stroke-miterlimit="10"/></g><path stroke-linecap="round" transform="matrix(0.558505, 0, 0, 0.558505, 81.169417, -30.207349)" fill="none" stroke-linejoin="round" d="M 10.712402 107.479242 L 18.398942 109.591466 L 20.518161 117.278007 " stroke="#333333" stroke-width="2" stroke-opacity="1" stroke-miterlimit="10"/><g clip-path="url(#30e22d40a3)"><path stroke-linecap="round" transform="matrix(0.558505, 0, 0, 0.558505, 81.169417, -30.207349)" fill="none" stroke-linejoin="round" d="M 30.302938 97.701459 L 111.245912 16.751491 " stroke="#333333" stroke-width="2" stroke-opacity="1" stroke-miterlimit="10"/></g><path stroke-linecap="round" transform="matrix(0.558505, 0, 0, 0.558505, 81.169417, -30.207349)" fill="none" stroke-linejoin="round" d="M 18.398942 109.598461 L 23.273845 104.730552 " stroke="#333333" stroke-width="2" stroke-opacity="1" stroke-miterlimit="10"/><path stroke-linecap="round" transform="matrix(0.558505, 0, 0, 0.558505, 81.169417, -30.207349)" fill="none" stroke-linejoin="round" d="M 7.201353 115.200752 L 12.79665 120.79605 " stroke="#333333" stroke-width="2" stroke-opacity="1" stroke-miterlimit="10"/><g clip-path="url(#e5289eaf9b)"><path fill="#f8f1e9" d="M 119.53125 28.207031 C 119.53125 28.203125 119.53125 28.199219 119.53125 28.195312 C 119.53125 28.199219 119.53125 28.207031 119.53125 28.210938 C 119.53125 28.210938 119.53125 28.210938 119.53125 28.207031 Z M 122.472656 24.640625 C 122.46875 24.636719 122.46875 24.632812 122.46875 24.628906 C 122.46875 24.632812 122.46875 24.636719 122.46875 24.640625 C 122.46875 24.640625 122.472656 24.640625 122.472656 24.640625 Z M 122.46875 24.605469 C 122.46875 24.605469 122.46875 24.605469 122.46875 24.609375 C 122.46875 24.601562 122.464844 24.59375 122.464844 24.589844 C 122.464844 24.589844 122.464844 24.589844 122.464844 24.59375 C 122.464844 24.597656 122.46875 24.601562 122.46875 24.605469 Z M 122.46875 24.628906 C 122.46875 24.625 122.46875 24.625 122.46875 24.621094 C 122.46875 24.625 122.46875 24.628906 122.46875 24.628906 Z M 119.53125 28.332031 C 119.53125 28.332031 119.53125 28.332031 119.53125 28.335938 C 119.53125 28.324219 119.535156 28.3125 119.535156 28.304688 C 119.535156 28.3125 119.53125 28.324219 119.53125 28.332031 Z M 119.535156 28.253906 C 119.535156 28.265625 119.535156 28.28125 119.535156 28.292969 C 119.535156 28.28125 119.535156 28.265625 119.535156 28.253906 C 119.535156 28.25 119.535156 28.25 119.535156 28.246094 C 119.535156 28.25 119.535156 28.25 119.535156 28.253906 Z M 122.460938 24.570312 C 122.460938 24.574219 122.460938 24.574219 122.460938 24.574219 C 122.460938 24.570312 122.460938 24.5625 122.460938 24.558594 C 122.460938 24.5625 122.460938 24.566406 122.460938 24.570312 Z M 122.226562 24.265625 Z M 122.414062 24.441406 C 122.414062 24.4375 122.410156 24.4375 122.410156 24.433594 C 122.410156 24.4375 122.414062 24.4375 122.414062 24.441406 Z M 122.226562 24.265625 C 122.226562 24.269531 122.230469 24.269531 122.230469 24.269531 C 122.230469 24.269531 122.226562 24.269531 122.226562 24.265625 Z M 122.429688 24.46875 Z M 122.429688 24.46875 C 122.425781 24.464844 122.425781 24.464844 122.425781 24.460938 C 122.425781 24.464844 122.425781 24.464844 122.429688 24.46875 Z M 122.457031 24.542969 C 122.453125 24.539062 122.453125 24.535156 122.453125 24.53125 C 122.453125 24.535156 122.453125 24.535156 122.453125 24.539062 C 122.453125 24.539062 122.453125 24.542969 122.457031 24.542969 Z M 122.453125 24.53125 C 122.453125 24.53125 122.453125 24.527344 122.449219 24.527344 C 122.453125 24.527344 122.453125 24.527344 122.453125 24.527344 C 122.453125 24.53125 122.453125 24.53125 122.453125 24.53125 Z M 122.445312 24.511719 C 122.445312 24.503906 122.441406 24.5 122.441406 24.496094 C 122.441406 24.496094 122.441406 24.496094 122.441406 24.5 C 122.441406 24.5 122.441406 24.503906 122.445312 24.503906 C 122.445312 24.507812 122.445312 24.507812 122.445312 24.511719 Z M 119.515625 28.398438 C 119.519531 28.394531 119.519531 28.386719 119.519531 28.382812 C 119.519531 28.386719 119.519531 28.394531 119.515625 28.398438 Z M 119.46875 28.503906 C 119.46875 28.503906 119.46875 28.503906 119.46875 28.5 C 119.46875 28.503906 119.46875 28.503906 119.46875 28.503906 Z M 119.441406 27.988281 C 119.445312 27.992188 119.445312 27.992188 119.449219 27.996094 C 119.445312 27.992188 119.445312 27.992188 119.441406 27.988281 Z M 119.414062 27.957031 C 119.414062 27.957031 119.414062 27.957031 119.417969 27.960938 C 119.414062 27.957031 119.414062 27.957031 119.414062 27.957031 Z M 119.472656 28.03125 C 119.472656 28.03125 119.472656 28.03125 119.472656 28.035156 C 119.472656 28.03125 119.472656 28.03125 119.472656 28.027344 C 119.472656 28.03125 119.472656 28.03125 119.472656 28.03125 Z M 119.523438 28.164062 C 119.523438 28.160156 119.523438 28.15625 119.523438 28.152344 C 119.523438 28.15625 119.523438 28.160156 119.523438 28.164062 Z M 119.523438 28.164062 Z M 119.421875 27.964844 C 119.417969 27.960938 119.417969 27.960938 119.417969 27.960938 C 119.417969 27.960938 119.417969 27.960938 119.421875 27.964844 Z M 119.472656 28.035156 Z M 119.507812 28.421875 C 119.511719 28.414062 119.515625 28.40625 119.515625 28.398438 C 119.515625 28.40625 119.511719 28.414062 119.507812 28.417969 C 119.507812 28.421875 119.507812 28.421875 119.507812 28.421875 Z M 119.511719 28.113281 C 119.511719 28.113281 119.507812 28.109375 119.507812 28.109375 C 119.507812 28.109375 119.511719 28.113281 119.511719 28.113281 Z M 122.257812 24.28125 Z M 119.476562 28.492188 C 119.480469 28.484375 119.484375 28.476562 119.488281 28.46875 C 119.484375 28.476562 119.480469 28.484375 119.476562 28.492188 Z M 119.523438 28.378906 C 119.523438 28.367188 119.527344 28.355469 119.527344 28.34375 C 119.527344 28.355469 119.523438 28.367188 119.523438 28.378906 Z M 119.492188 28.457031 C 119.496094 28.453125 119.496094 28.453125 119.496094 28.453125 C 119.496094 28.453125 119.496094 28.453125 119.492188 28.457031 Z M 119.496094 28.074219 C 119.492188 28.070312 119.492188 28.070312 119.492188 28.066406 C 119.492188 28.070312 119.492188 28.070312 119.496094 28.074219 Z M 119.496094 28.453125 C 119.5 28.445312 119.503906 28.4375 119.503906 28.429688 C 119.503906 28.4375 119.5 28.445312 119.496094 28.453125 Z M 124.761719 34.945312 C 124.757812 35.0625 124.804688 35.179688 124.910156 35.269531 C 124.804688 35.179688 124.757812 35.0625 124.761719 34.945312 Z M 143.15625 12.492188 C 143.285156 12.589844 143.359375 12.648438 143.421875 12.667969 C 143.359375 12.648438 143.285156 12.589844 143.15625 12.492188 Z M 142.472656 13.089844 C 142.496094 13.113281 142.519531 13.132812 142.542969 13.148438 C 142.519531 13.132812 142.496094 13.113281 142.472656 13.089844 Z M 142.300781 12.710938 C 142.300781 12.6875 142.304688 12.667969 142.308594 12.644531 C 142.304688 12.667969 142.300781 12.6875 142.300781 12.710938 Z M 142.296875 12.734375 C 142.296875 12.855469 142.347656 12.960938 142.4375 13.054688 C 142.347656 12.960938 142.296875 12.855469 142.296875 12.734375 Z M 145.796875 9.773438 C 145.761719 9.8125 145.734375 9.855469 145.699219 9.898438 C 145.734375 9.855469 145.761719 9.8125 145.796875 9.773438 Z M 136.496094 20.210938 C 136.441406 20.183594 136.382812 20.164062 136.324219 20.15625 C 136.382812 20.164062 136.441406 20.183594 136.496094 20.210938 Z M 145.769531 9.585938 C 145.84375 9.636719 145.867188 9.691406 145.804688 9.765625 C 145.867188 9.691406 145.84375 9.636719 145.769531 9.585938 Z M 139.910156 17.105469 C 139.925781 17.117188 139.9375 17.128906 139.945312 17.144531 C 139.9375 17.128906 139.925781 17.117188 139.910156 17.105469 Z M 152.574219 1.839844 C 152.613281 1.875 152.644531 1.910156 152.667969 1.949219 C 152.644531 1.910156 152.613281 1.875 152.574219 1.839844 Z M 122.253906 24.28125 C 122.253906 24.28125 122.257812 24.28125 122.257812 24.28125 C 122.257812 24.28125 122.253906 24.28125 122.253906 24.28125 Z M 133.601562 25.347656 C 133.652344 25.347656 133.691406 25.289062 133.789062 25.164062 C 133.691406 25.289062 133.652344 25.347656 133.601562 25.347656 Z M 139.71875 15.902344 C 139.554688 15.875 139.390625 15.9375 139.289062 16.074219 C 139.390625 15.9375 139.554688 15.875 139.71875 15.902344 Z M 156.925781 -3.855469 C 156.914062 -2.367188 156.441406 -1.046875 155.535156 0.140625 C 155.203125 0.578125 154.886719 1.035156 154.546875 1.472656 C 153.605469 2.675781 152.660156 3.875 151.71875 5.082031 C 151.058594 5.925781 150.398438 6.773438 149.738281 7.621094 C 148.921875 8.664062 148.109375 9.703125 147.296875 10.746094 C 146.710938 11.496094 146.128906 12.242188 145.542969 12.992188 C 144.792969 13.957031 144.042969 14.921875 143.289062 15.886719 C 142.191406 17.292969 141.097656 18.703125 140 20.109375 C 138.761719 21.699219 137.519531 23.285156 136.277344 24.875 C 135.289062 26.144531 134.296875 27.417969 133.308594 28.6875 C 132.171875 30.140625 131.039062 31.589844 129.902344 33.042969 C 128.800781 34.457031 127.699219 35.871094 126.597656 37.285156 C 126.304688 37.660156 126.007812 38.039062 125.714844 38.417969 C 125.617188 38.542969 125.503906 38.652344 125.332031 38.667969 C 125.210938 38.679688 125.101562 38.648438 125.011719 38.566406 C 124.566406 38.15625 124.070312 37.8125 123.59375 37.441406 C 122.429688 36.53125 121.257812 35.628906 120.085938 34.726562 C 118.882812 33.796875 117.679688 32.871094 116.476562 31.941406 C 116.199219 31.726562 115.929688 31.511719 115.65625 31.300781 C 115.363281 31.070312 115.328125 30.828125 115.554688 30.53125 C 115.804688 30.203125 116.066406 29.886719 116.320312 29.558594 C 117.488281 28.0625 118.660156 26.5625 119.828125 25.066406 C 120.933594 23.644531 122.042969 22.226562 123.148438 20.804688 C 124.328125 19.292969 125.507812 17.78125 126.6875 16.273438 C 127.742188 14.917969 128.800781 13.5625 129.855469 12.207031 C 131.144531 10.558594 132.429688 8.910156 133.714844 7.265625 C 134.8125 5.859375 135.914062 4.457031 137.015625 3.050781 C 137.800781 2.039062 138.585938 1.027344 139.371094 0.015625 C 140.46875 -1.390625 141.574219 -2.792969 142.671875 -4.199219 C 143.503906 -5.265625 144.332031 -6.339844 145.167969 -7.40625 C 145.429688 -7.746094 145.683594 -8.09375 145.992188 -8.394531 C 146.960938 -9.335938 148.101562 -9.953125 149.441406 -10.171875 C 151.367188 -10.480469 153.101562 -10.019531 154.609375 -8.78125 C 155.808594 -7.804688 156.535156 -6.535156 156.824219 -5.015625 C 156.894531 -4.632812 156.933594 -4.246094 156.925781 -3.855469 Z M 119.523438 28.152344 C 119.523438 28.15625 119.523438 28.160156 119.523438 28.164062 C 119.523438 28.160156 119.523438 28.15625 119.523438 28.152344 Z M 119.421875 27.964844 C 119.417969 27.960938 119.417969 27.960938 119.417969 27.960938 C 119.414062 27.957031 119.414062 27.957031 119.414062 27.957031 C 119.414062 27.957031 119.414062 27.957031 119.417969 27.960938 C 119.417969 27.960938 119.417969 27.960938 119.421875 27.964844 Z M 119.449219 27.996094 C 119.445312 27.992188 119.445312 27.992188 119.441406 27.988281 C 119.445312 27.992188 119.445312 27.992188 119.449219 27.996094 Z M 119.46875 28.5 C 119.46875 28.503906 119.46875 28.503906 119.46875 28.503906 C 119.46875 28.503906 119.46875 28.503906 119.46875 28.5 Z M 119.472656 28.035156 C 119.472656 28.03125 119.472656 28.03125 119.472656 28.027344 C 119.472656 28.03125 119.472656 28.03125 119.472656 28.03125 C 119.472656 28.03125 119.472656 28.03125 119.472656 28.035156 Z M 119.488281 28.46875 C 119.484375 28.476562 119.480469 28.484375 119.476562 28.492188 C 119.480469 28.484375 119.484375 28.476562 119.488281 28.46875 Z M 119.492188 28.066406 C 119.492188 28.070312 119.492188 28.070312 119.496094 28.074219 C 119.492188 28.070312 119.492188 28.070312 119.492188 28.066406 Z M 119.503906 28.429688 C 119.503906 28.4375 119.5 28.445312 119.496094 28.453125 C 119.496094 28.453125 119.496094 28.453125 119.492188 28.457031 C 119.496094 28.453125 119.496094 28.453125 119.496094 28.453125 C 119.5 28.445312 119.503906 28.4375 119.503906 28.429688 Z M 119.507812 28.109375 C 119.507812 28.109375 119.511719 28.113281 119.511719 28.113281 C 119.511719 28.113281 119.507812 28.109375 119.507812 28.109375 Z M 119.519531 28.382812 C 119.519531 28.386719 119.519531 28.394531 119.515625 28.398438 C 119.515625 28.40625 119.511719 28.414062 119.507812 28.417969 C 119.507812 28.421875 119.507812 28.421875 119.507812 28.421875 C 119.511719 28.414062 119.515625 28.40625 119.515625 28.398438 C 119.519531 28.394531 119.519531 28.386719 119.519531 28.382812 Z M 119.527344 28.34375 C 119.527344 28.355469 119.523438 28.367188 119.523438 28.378906 C 119.523438 28.367188 119.527344 28.355469 119.527344 28.34375 Z M 119.53125 28.195312 C 119.53125 28.199219 119.53125 28.207031 119.53125 28.210938 C 119.53125 28.210938 119.53125 28.210938 119.53125 28.207031 C 119.53125 28.203125 119.53125 28.199219 119.53125 28.195312 Z M 119.535156 28.304688 C 119.535156 28.3125 119.53125 28.324219 119.53125 28.332031 C 119.53125 28.332031 119.53125 28.332031 119.53125 28.335938 C 119.53125 28.324219 119.535156 28.3125 119.535156 28.304688 Z M 119.535156 28.253906 C 119.535156 28.25 119.535156 28.25 119.535156 28.246094 C 119.535156 28.25 119.535156 28.25 119.535156 28.253906 C 119.535156 28.265625 119.535156 28.28125 119.535156 28.292969 C 119.535156 28.28125 119.535156 28.265625 119.535156 28.253906 Z M 122.46875 24.621094 C 122.46875 24.625 122.46875 24.628906 122.46875 24.628906 C 122.46875 24.632812 122.46875 24.636719 122.46875 24.640625 C 122.46875 24.640625 122.472656 24.640625 122.472656 24.640625 C 122.46875 24.636719 122.46875 24.632812 122.46875 24.628906 C 122.46875 24.625 122.46875 24.625 122.46875 24.621094 Z M 122.464844 24.589844 C 122.464844 24.589844 122.464844 24.589844 122.464844 24.59375 C 122.464844 24.597656 122.46875 24.601562 122.46875 24.605469 C 122.46875 24.605469 122.46875 24.605469 122.46875 24.609375 C 122.46875 24.601562 122.464844 24.59375 122.464844 24.589844 Z M 122.460938 24.558594 C 122.460938 24.5625 122.460938 24.566406 122.460938 24.570312 C 122.460938 24.574219 122.460938 24.574219 122.460938 24.574219 C 122.460938 24.570312 122.460938 24.5625 122.460938 24.558594 Z M 122.449219 24.527344 C 122.453125 24.527344 122.453125 24.527344 122.453125 24.527344 C 122.453125 24.53125 122.453125 24.53125 122.453125 24.53125 C 122.453125 24.535156 122.453125 24.539062 122.457031 24.542969 C 122.453125 24.542969 122.453125 24.539062 122.453125 24.539062 C 122.453125 24.535156 122.453125 24.535156 122.453125 24.53125 C 122.453125 24.53125 122.453125 24.527344 122.449219 24.527344 Z M 122.441406 24.496094 C 122.441406 24.5 122.445312 24.503906 122.445312 24.511719 C 122.445312 24.507812 122.445312 24.507812 122.445312 24.503906 C 122.441406 24.503906 122.441406 24.5 122.441406 24.5 C 122.441406 24.496094 122.441406 24.496094 122.441406 24.496094 Z M 122.425781 24.460938 C 122.425781 24.464844 122.425781 24.464844 122.429688 24.46875 C 122.425781 24.464844 122.425781 24.464844 122.425781 24.460938 Z M 122.410156 24.433594 C 122.410156 24.4375 122.414062 24.4375 122.414062 24.441406 C 122.414062 24.4375 122.410156 24.4375 122.410156 24.433594 Z M 122.230469 24.269531 C 122.230469 24.269531 122.226562 24.269531 122.226562 24.265625 C 122.226562 24.269531 122.230469 24.269531 122.230469 24.269531 Z M 122.257812 24.28125 C 122.257812 24.28125 122.253906 24.28125 122.253906 24.28125 C 122.253906 24.28125 122.257812 24.28125 122.257812 24.28125 Z M 122.285156 24.300781 C 122.285156 24.300781 122.28125 24.300781 122.28125 24.296875 C 122.28125 24.296875 122.285156 24.300781 122.285156 24.300781 Z M 122.359375 24.363281 C 122.355469 24.363281 122.355469 24.359375 122.355469 24.359375 C 122.355469 24.359375 122.355469 24.363281 122.359375 24.363281 Z M 122.378906 24.390625 C 122.378906 24.386719 122.375 24.382812 122.375 24.382812 C 122.375 24.386719 122.378906 24.386719 122.378906 24.390625 Z M 122.398438 24.414062 C 122.394531 24.410156 122.394531 24.410156 122.390625 24.40625 C 122.394531 24.40625 122.394531 24.40625 122.394531 24.40625 C 122.394531 24.410156 122.394531 24.410156 122.398438 24.414062 Z M 122.472656 24.675781 C 122.472656 24.664062 122.472656 24.65625 122.472656 24.648438 C 122.472656 24.65625 122.472656 24.664062 122.472656 24.675781 C 122.472656 24.769531 122.445312 24.851562 122.398438 24.925781 C 122.445312 24.851562 122.472656 24.769531 122.472656 24.675781 Z M 128.292969 30.152344 C 128.292969 30.167969 128.292969 30.183594 128.292969 30.199219 C 128.292969 30.210938 128.296875 30.226562 128.296875 30.238281 C 128.316406 30.332031 128.363281 30.425781 128.445312 30.503906 C 128.46875 30.519531 128.488281 30.539062 128.507812 30.558594 C 128.488281 30.539062 128.46875 30.519531 128.445312 30.503906 C 128.363281 30.425781 128.316406 30.332031 128.296875 30.238281 C 128.296875 30.226562 128.292969 30.210938 128.292969 30.199219 C 128.292969 30.183594 128.292969 30.167969 128.292969 30.152344 Z M 127.855469 32.761719 C 128.246094 32.261719 128.636719 31.761719 129.027344 31.257812 C 129.035156 31.25 129.039062 31.246094 129.046875 31.238281 C 129.039062 31.246094 129.035156 31.25 129.027344 31.257812 C 128.636719 31.761719 128.246094 32.261719 127.855469 32.761719 Z M 126.046875 35.003906 Z M 124.789062 34.8125 C 124.792969 34.792969 124.800781 34.777344 124.8125 34.757812 C 124.800781 34.777344 124.792969 34.792969 124.789062 34.8125 Z M 125.277344 35.574219 C 125.152344 35.472656 125.03125 35.375 124.910156 35.269531 C 124.804688 35.179688 124.757812 35.0625 124.761719 34.945312 C 124.757812 35.0625 124.804688 35.179688 124.910156 35.269531 C 125.03125 35.375 125.152344 35.472656 125.277344 35.574219 Z M 125.777344 34.824219 C 125.71875 34.78125 125.65625 34.734375 125.597656 34.691406 C 125.546875 34.648438 125.492188 34.609375 125.433594 34.578125 C 125.21875 34.464844 124.992188 34.507812 124.855469 34.6875 C 124.839844 34.710938 124.824219 34.730469 124.8125 34.753906 C 124.824219 34.730469 124.839844 34.710938 124.855469 34.6875 C 124.992188 34.507812 125.21875 34.464844 125.433594 34.578125 C 125.492188 34.609375 125.546875 34.648438 125.597656 34.691406 C 125.65625 34.734375 125.71875 34.78125 125.777344 34.824219 Z M 125.960938 36.089844 C 125.949219 36.085938 125.9375 36.078125 125.925781 36.070312 C 125.9375 36.078125 125.949219 36.085938 125.960938 36.089844 Z M 126.203125 36.128906 C 126.183594 36.132812 126.164062 36.132812 126.144531 36.132812 C 126.089844 36.136719 126.039062 36.125 125.988281 36.105469 C 125.980469 36.101562 125.972656 36.097656 125.96875 36.09375 C 125.972656 36.097656 125.980469 36.101562 125.988281 36.105469 C 126.039062 36.125 126.089844 36.136719 126.144531 36.132812 C 126.164062 36.132812 126.183594 36.132812 126.203125 36.128906 Z M 129.46875 32.152344 C 128.515625 33.371094 127.5625 34.59375 126.613281 35.8125 C 126.589844 35.839844 126.570312 35.867188 126.546875 35.894531 C 126.570312 35.867188 126.589844 35.839844 126.613281 35.8125 C 127.5625 34.59375 128.515625 33.371094 129.46875 32.152344 Z M 132.65625 24.769531 Z M 132.5 24.789062 C 132.496094 24.792969 132.492188 24.792969 132.488281 24.796875 C 132.492188 24.792969 132.496094 24.792969 132.5 24.789062 Z M 132.472656 25.640625 C 132.5 25.660156 132.527344 25.683594 132.554688 25.703125 C 132.617188 25.753906 132.675781 25.800781 132.738281 25.851562 C 132.675781 25.800781 132.617188 25.753906 132.554688 25.703125 C 132.527344 25.683594 132.5 25.660156 132.472656 25.640625 Z M 132.203125 25.207031 C 132.203125 25.226562 132.207031 25.242188 132.207031 25.261719 C 132.210938 25.277344 132.214844 25.296875 132.21875 25.316406 C 132.222656 25.324219 132.226562 25.332031 132.230469 25.34375 C 132.246094 25.390625 132.273438 25.4375 132.308594 25.484375 C 132.273438 25.4375 132.246094 25.390625 132.230469 25.34375 C 132.226562 25.332031 132.222656 25.324219 132.21875 25.316406 C 132.214844 25.296875 132.210938 25.277344 132.207031 25.261719 C 132.207031 25.242188 132.203125 25.226562 132.203125 25.207031 C 132.203125 25.105469 132.238281 25.007812 132.308594 24.921875 C 132.34375 24.878906 132.386719 24.847656 132.429688 24.820312 C 132.386719 24.847656 132.34375 24.878906 132.308594 24.921875 C 132.238281 25.007812 132.203125 25.105469 132.203125 25.207031 Z M 132.347656 25.527344 Z M 132.738281 26.503906 C 132.640625 26.628906 132.546875 26.753906 132.449219 26.878906 C 132.019531 27.429688 131.585938 27.980469 131.15625 28.53125 C 131.585938 27.980469 132.019531 27.429688 132.449219 26.878906 C 132.546875 26.753906 132.640625 26.628906 132.738281 26.503906 Z M 133.011719 26.105469 C 133.011719 26.109375 133.011719 26.113281 133.011719 26.121094 C 133.011719 26.128906 133.007812 26.140625 133.003906 26.148438 C 133.007812 26.140625 133.011719 26.128906 133.011719 26.121094 C 133.011719 26.113281 133.011719 26.109375 133.011719 26.105469 Z M 133.039062 24.945312 C 132.992188 24.910156 132.945312 24.875 132.894531 24.84375 C 132.847656 24.816406 132.796875 24.792969 132.746094 24.78125 C 132.796875 24.792969 132.847656 24.816406 132.894531 24.84375 C 132.945312 24.875 132.992188 24.910156 133.039062 24.945312 Z M 133.4375 25.25 C 133.398438 25.222656 133.351562 25.183594 133.292969 25.140625 C 133.285156 25.140625 133.28125 25.136719 133.277344 25.132812 C 133.28125 25.136719 133.285156 25.140625 133.292969 25.140625 C 133.351562 25.183594 133.398438 25.222656 133.4375 25.25 Z M 135.273438 23.261719 C 134.804688 23.863281 134.335938 24.464844 133.863281 25.0625 C 133.835938 25.101562 133.808594 25.132812 133.789062 25.164062 C 133.691406 25.289062 133.652344 25.347656 133.601562 25.347656 C 133.574219 25.351562 133.542969 25.332031 133.496094 25.300781 C 133.492188 25.296875 133.488281 25.292969 133.484375 25.289062 C 133.488281 25.292969 133.492188 25.296875 133.496094 25.300781 C 133.542969 25.332031 133.574219 25.351562 133.601562 25.347656 C 133.652344 25.347656 133.691406 25.289062 133.789062 25.164062 C 133.808594 25.132812 133.835938 25.101562 133.863281 25.0625 C 134.335938 24.464844 134.804688 23.863281 135.273438 23.261719 Z M 136.042969 20.210938 C 135.886719 20.296875 135.808594 20.46875 135.832031 20.640625 C 135.808594 20.46875 135.886719 20.296875 136.042969 20.210938 Z M 136.128906 20.175781 C 136.105469 20.179688 136.085938 20.1875 136.070312 20.199219 C 136.085938 20.1875 136.105469 20.179688 136.128906 20.175781 Z M 136.414062 21.269531 C 136.355469 21.226562 136.300781 21.183594 136.242188 21.140625 C 136.203125 21.113281 136.167969 21.082031 136.128906 21.054688 C 136.167969 21.082031 136.203125 21.113281 136.242188 21.140625 C 136.300781 21.183594 136.355469 21.226562 136.414062 21.269531 Z M 136.910156 20.523438 C 136.800781 20.4375 136.691406 20.351562 136.578125 20.265625 C 136.558594 20.25 136.539062 20.238281 136.519531 20.222656 C 136.511719 20.21875 136.503906 20.214844 136.496094 20.210938 C 136.441406 20.183594 136.382812 20.164062 136.324219 20.15625 C 136.382812 20.164062 136.441406 20.183594 136.496094 20.210938 C 136.503906 20.214844 136.511719 20.21875 136.519531 20.222656 C 136.539062 20.238281 136.558594 20.25 136.578125 20.265625 C 136.691406 20.351562 136.800781 20.4375 136.910156 20.523438 Z M 149.1875 -3.863281 C 149.203125 -3.019531 149.859375 -2.53125 150.53125 -2.527344 C 151.128906 -2.523438 151.902344 -3.027344 151.859375 -3.871094 C 151.859375 -4.621094 151.273438 -5.203125 150.523438 -5.207031 C 149.867188 -5.207031 149.175781 -4.695312 149.1875 -3.863281 Z M 151.617188 2.246094 C 151.609375 2.210938 151.582031 2.179688 151.53125 2.148438 C 151.464844 2.105469 151.402344 2.054688 151.339844 2 C 151.402344 2.054688 151.464844 2.105469 151.53125 2.148438 C 151.582031 2.179688 151.609375 2.210938 151.617188 2.246094 Z M 151.210938 1.339844 C 151.246094 1.292969 151.289062 1.257812 151.335938 1.226562 C 151.289062 1.257812 151.246094 1.292969 151.210938 1.339844 C 151.109375 1.476562 151.097656 1.652344 151.171875 1.804688 C 151.097656 1.652344 151.109375 1.476562 151.210938 1.339844 Z M 149.523438 4.996094 C 149.53125 4.988281 149.539062 4.976562 149.546875 4.96875 C 149.539062 4.976562 149.53125 4.988281 149.523438 4.996094 Z M 149.335938 5.027344 C 149.320312 5.015625 149.300781 5.003906 149.28125 4.988281 C 149.300781 5.003906 149.320312 5.015625 149.335938 5.027344 C 149.410156 5.078125 149.441406 5.082031 149.492188 5.03125 C 149.441406 5.082031 149.410156 5.078125 149.335938 5.027344 Z M 149.125 4.863281 C 149.136719 4.871094 149.148438 4.882812 149.160156 4.890625 C 149.148438 4.882812 149.136719 4.871094 149.125 4.863281 Z M 148.515625 4.757812 C 148.613281 4.699219 148.738281 4.683594 148.859375 4.714844 C 148.738281 4.683594 148.613281 4.699219 148.515625 4.757812 Z M 148.300781 5.152344 C 148.300781 5.136719 148.300781 5.121094 148.304688 5.105469 C 148.300781 5.121094 148.300781 5.136719 148.300781 5.152344 Z M 147.921875 7.046875 C 148.199219 6.691406 148.472656 6.339844 148.75 5.984375 C 148.882812 5.8125 148.882812 5.808594 148.714844 5.675781 C 148.683594 5.652344 148.648438 5.628906 148.617188 5.605469 C 148.648438 5.628906 148.683594 5.652344 148.714844 5.675781 C 148.882812 5.808594 148.882812 5.8125 148.75 5.984375 C 148.472656 6.339844 148.199219 6.691406 147.921875 7.046875 Z M 146.523438 8.84375 C 146.496094 8.875 146.476562 8.894531 146.457031 8.90625 C 146.476562 8.894531 146.496094 8.875 146.523438 8.84375 Z M 145.292969 9.195312 C 145.304688 9.210938 145.320312 9.226562 145.332031 9.238281 C 145.320312 9.226562 145.304688 9.210938 145.292969 9.195312 C 145.144531 9.023438 145.140625 8.789062 145.277344 8.625 C 145.402344 8.46875 145.625 8.417969 145.816406 8.511719 C 145.972656 8.585938 146.09375 8.714844 146.234375 8.816406 C 146.253906 8.828125 146.269531 8.839844 146.28125 8.851562 C 146.269531 8.839844 146.253906 8.828125 146.234375 8.816406 C 146.09375 8.714844 145.972656 8.585938 145.816406 8.511719 C 145.625 8.417969 145.402344 8.46875 145.277344 8.625 C 145.140625 8.789062 145.144531 9.023438 145.292969 9.195312 Z M 145.804688 9.765625 C 145.867188 9.691406 145.84375 9.636719 145.769531 9.585938 C 145.699219 9.535156 145.632812 9.480469 145.5625 9.429688 C 145.632812 9.480469 145.699219 9.535156 145.769531 9.585938 C 145.84375 9.636719 145.867188 9.691406 145.804688 9.765625 Z M 145.699219 9.898438 C 145.734375 9.855469 145.761719 9.8125 145.796875 9.773438 C 145.761719 9.8125 145.734375 9.855469 145.699219 9.898438 Z M 143.578125 12.605469 C 143.617188 12.566406 143.664062 12.507812 143.726562 12.429688 C 144.316406 11.671875 144.90625 10.914062 145.5 10.15625 C 144.90625 10.914062 144.316406 11.671875 143.726562 12.429688 C 143.664062 12.507812 143.617188 12.566406 143.578125 12.605469 Z M 143.4375 12.667969 C 143.441406 12.671875 143.441406 12.671875 143.445312 12.671875 C 143.441406 12.671875 143.441406 12.671875 143.4375 12.667969 Z M 143.085938 12.441406 C 143.109375 12.457031 143.132812 12.472656 143.15625 12.492188 C 143.285156 12.589844 143.359375 12.648438 143.421875 12.667969 C 143.359375 12.648438 143.285156 12.589844 143.15625 12.492188 C 143.132812 12.472656 143.109375 12.457031 143.085938 12.441406 Z M 142.472656 13.089844 C 142.496094 13.113281 142.519531 13.132812 142.542969 13.148438 C 142.519531 13.132812 142.496094 13.113281 142.472656 13.089844 Z M 142.296875 12.734375 C 142.296875 12.855469 142.347656 12.960938 142.4375 13.054688 C 142.347656 12.960938 142.296875 12.855469 142.296875 12.734375 C 142.296875 12.726562 142.300781 12.71875 142.300781 12.710938 C 142.300781 12.6875 142.304688 12.667969 142.308594 12.644531 C 142.304688 12.667969 142.300781 12.6875 142.300781 12.710938 C 142.300781 12.71875 142.296875 12.726562 142.296875 12.734375 Z M 140.816406 16.160156 C 140.8125 16.164062 140.808594 16.171875 140.804688 16.175781 C 140.808594 16.171875 140.8125 16.164062 140.816406 16.160156 Z M 140.277344 16.257812 C 140.277344 16.261719 140.28125 16.261719 140.28125 16.261719 C 140.28125 16.261719 140.277344 16.261719 140.277344 16.257812 Z M 139.957031 16.011719 C 139.96875 16.019531 139.984375 16.03125 139.996094 16.039062 C 139.984375 16.03125 139.96875 16.019531 139.957031 16.011719 Z M 139.957031 17.167969 C 139.960938 17.175781 139.960938 17.183594 139.960938 17.191406 C 139.960938 17.183594 139.960938 17.175781 139.957031 17.167969 Z M 139.910156 17.105469 C 139.925781 17.117188 139.9375 17.128906 139.945312 17.144531 C 139.9375 17.128906 139.925781 17.117188 139.910156 17.105469 Z M 139.878906 17.078125 C 139.890625 17.085938 139.902344 17.09375 139.910156 17.105469 C 139.902344 17.09375 139.890625 17.085938 139.878906 17.078125 C 139.742188 16.980469 139.613281 16.878906 139.484375 16.773438 C 139.46875 16.757812 139.453125 16.746094 139.4375 16.734375 C 139.453125 16.746094 139.46875 16.757812 139.484375 16.773438 C 139.613281 16.878906 139.742188 16.980469 139.878906 17.078125 Z M 139.65625 17.640625 C 139.707031 17.578125 139.757812 17.511719 139.808594 17.449219 C 139.757812 17.511719 139.707031 17.578125 139.65625 17.640625 Z M 139.851562 15.949219 C 139.863281 15.953125 139.875 15.960938 139.886719 15.964844 C 139.875 15.960938 139.863281 15.953125 139.851562 15.949219 Z M 139.230469 16.179688 C 139.246094 16.144531 139.265625 16.109375 139.289062 16.074219 C 139.390625 15.9375 139.554688 15.875 139.71875 15.902344 C 139.554688 15.875 139.390625 15.9375 139.289062 16.074219 C 139.265625 16.109375 139.246094 16.144531 139.230469 16.179688 Z M 139.289062 16.582031 C 139.332031 16.636719 139.378906 16.683594 139.429688 16.726562 C 139.378906 16.683594 139.332031 16.636719 139.289062 16.582031 Z M 139.203125 16.328125 Z M 138.511719 19.109375 C 138.128906 19.601562 137.746094 20.09375 137.359375 20.585938 C 137.28125 20.683594 137.246094 20.726562 137.203125 20.722656 C 137.246094 20.726562 137.28125 20.683594 137.359375 20.585938 C 137.746094 20.09375 138.128906 19.601562 138.511719 19.109375 Z M 152.023438 3.25 C 152.015625 3.261719 152.003906 3.273438 151.996094 3.289062 C 150.421875 5.304688 148.851562 7.316406 147.277344 9.332031 C 145.414062 11.71875 143.550781 14.101562 141.691406 16.488281 C 140.628906 17.84375 139.574219 19.203125 138.515625 20.558594 C 139.574219 19.203125 140.628906 17.84375 141.691406 16.488281 C 143.550781 14.101562 145.414062 11.71875 147.277344 9.332031 C 148.851562 7.316406 150.421875 5.304688 151.996094 3.289062 C 152.003906 3.273438 152.015625 3.261719 152.023438 3.25 Z M 152.378906 1.664062 C 152.199219 1.515625 152.007812 1.375 151.8125 1.246094 C 151.757812 1.210938 151.703125 1.1875 151.648438 1.175781 C 151.703125 1.1875 151.757812 1.210938 151.8125 1.246094 C 152.007812 1.375 152.199219 1.515625 152.378906 1.664062 Z M 152.667969 1.949219 C 152.644531 1.910156 152.613281 1.875 152.574219 1.839844 C 152.519531 1.789062 152.464844 1.738281 152.40625 1.691406 C 152.464844 1.738281 152.519531 1.789062 152.574219 1.839844 C 152.613281 1.875 152.644531 1.910156 152.667969 1.949219 Z M 139.429688 16.726562 C 139.378906 16.683594 139.332031 16.636719 139.289062 16.582031 C 139.332031 16.636719 139.378906 16.683594 139.429688 16.726562 Z M 152.378906 1.664062 C 152.199219 1.515625 152.007812 1.375 151.8125 1.246094 C 152.007812 1.375 152.199219 1.515625 152.378906 1.664062 Z M 137.203125 20.722656 C 137.246094 20.726562 137.28125 20.683594 137.359375 20.585938 C 137.28125 20.683594 137.246094 20.726562 137.203125 20.722656 Z M 152.574219 1.839844 C 152.519531 1.789062 152.464844 1.738281 152.40625 1.691406 C 152.464844 1.738281 152.519531 1.789062 152.574219 1.839844 Z M 122.394531 24.40625 C 122.394531 24.410156 122.394531 24.410156 122.398438 24.414062 C 122.394531 24.410156 122.394531 24.410156 122.390625 24.40625 C 122.394531 24.40625 122.394531 24.40625 122.394531 24.40625 Z M 135.273438 23.261719 C 134.804688 23.863281 134.335938 24.464844 133.863281 25.0625 C 134.335938 24.464844 134.804688 23.863281 135.273438 23.261719 Z M 122.398438 24.414062 Z M 122.28125 24.296875 Z M 122.355469 24.359375 C 122.355469 24.359375 122.355469 24.363281 122.359375 24.363281 C 122.355469 24.363281 122.355469 24.359375 122.355469 24.359375 Z M 122.285156 24.300781 C 122.285156 24.300781 122.28125 24.300781 122.28125 24.296875 C 122.28125 24.296875 122.285156 24.300781 122.285156 24.300781 Z M 122.472656 24.675781 C 122.472656 24.769531 122.445312 24.851562 122.398438 24.925781 C 122.445312 24.851562 122.472656 24.769531 122.472656 24.675781 C 122.472656 24.664062 122.472656 24.65625 122.472656 24.648438 C 122.472656 24.65625 122.472656 24.664062 122.472656 24.675781 Z M 122.375 24.382812 C 122.375 24.386719 122.378906 24.386719 122.378906 24.390625 C 122.378906 24.386719 122.375 24.382812 122.375 24.382812 Z M 132.429688 24.820312 C 132.386719 24.847656 132.34375 24.878906 132.308594 24.921875 C 132.34375 24.878906 132.386719 24.847656 132.429688 24.820312 Z M 133.039062 24.945312 C 132.992188 24.910156 132.945312 24.875 132.894531 24.84375 C 132.945312 24.875 132.992188 24.910156 133.039062 24.945312 Z M 133.4375 25.25 C 133.398438 25.222656 133.351562 25.183594 133.292969 25.140625 C 133.351562 25.183594 133.398438 25.222656 133.4375 25.25 Z M 126.144531 36.132812 C 126.089844 36.136719 126.039062 36.125 125.988281 36.105469 C 126.039062 36.125 126.089844 36.136719 126.144531 36.132812 Z M 124.789062 34.8125 C 124.792969 34.792969 124.800781 34.777344 124.8125 34.757812 C 124.800781 34.777344 124.792969 34.792969 124.789062 34.8125 Z M 125.277344 35.574219 C 125.152344 35.472656 125.03125 35.375 124.910156 35.269531 C 125.03125 35.375 125.152344 35.472656 125.277344 35.574219 Z M 128.296875 30.238281 C 128.316406 30.332031 128.363281 30.425781 128.445312 30.503906 C 128.363281 30.425781 128.316406 30.332031 128.296875 30.238281 Z M 128.296875 30.238281 " fill-opacity="1" fill-rule="nonzero"/></g><g clip-path="url(#6248a51833)"><path fill="#231f20" d="M 142.75 12.292969 C 142.839844 12.289062 142.933594 12.316406 143.015625 12.375 C 143.0625 12.410156 143.109375 12.445312 143.15625 12.480469 C 143.480469 12.730469 143.480469 12.730469 143.722656 12.417969 C 144.382812 11.578125 145.035156 10.734375 145.691406 9.894531 C 145.730469 9.847656 145.761719 9.800781 145.800781 9.757812 C 145.867188 9.683594 145.84375 9.628906 145.769531 9.574219 C 145.667969 9.503906 145.570312 9.425781 145.472656 9.347656 C 145.410156 9.296875 145.34375 9.246094 145.289062 9.183594 C 145.144531 9.015625 145.140625 8.777344 145.273438 8.613281 C 145.398438 8.457031 145.625 8.410156 145.816406 8.5 C 145.972656 8.574219 146.09375 8.703125 146.234375 8.804688 C 146.429688 8.945312 146.429688 8.949219 146.566406 8.773438 C 147.296875 7.839844 148.023438 6.910156 148.746094 5.976562 C 148.882812 5.800781 148.882812 5.796875 148.710938 5.667969 C 148.632812 5.605469 148.550781 5.550781 148.476562 5.484375 C 148.277344 5.308594 148.246094 5.058594 148.390625 4.863281 C 148.527344 4.671875 148.789062 4.632812 149.011719 4.769531 C 149.097656 4.820312 149.167969 4.890625 149.246094 4.949219 C 149.433594 5.09375 149.4375 5.09375 149.574219 4.917969 C 150.042969 4.320312 150.511719 3.71875 150.976562 3.117188 C 151.171875 2.871094 151.363281 2.621094 151.558594 2.375 C 151.636719 2.28125 151.644531 2.210938 151.53125 2.136719 C 151.441406 2.078125 151.359375 2.007812 151.28125 1.933594 C 151.097656 1.757812 151.070312 1.511719 151.210938 1.328125 C 151.351562 1.144531 151.597656 1.09375 151.8125 1.234375 C 152.078125 1.410156 152.335938 1.609375 152.574219 1.828125 C 152.777344 2.015625 152.789062 2.226562 152.613281 2.472656 C 152.414062 2.746094 152.203125 3.007812 151.992188 3.277344 C 150.421875 5.292969 148.847656 7.304688 147.277344 9.320312 C 145.414062 11.707031 143.550781 14.089844 141.6875 16.476562 C 140.035156 18.597656 138.382812 20.714844 136.730469 22.835938 C 134.855469 25.234375 132.984375 27.632812 131.113281 30.03125 C 129.613281 31.953125 128.113281 33.878906 126.609375 35.800781 C 126.554688 35.875 126.496094 35.945312 126.429688 36.003906 C 126.273438 36.140625 126.066406 36.167969 125.902344 36.042969 C 125.5625 35.792969 125.230469 35.535156 124.910156 35.257812 C 124.722656 35.097656 124.71875 34.855469 124.855469 34.675781 C 124.992188 34.496094 125.214844 34.453125 125.433594 34.566406 C 125.492188 34.597656 125.542969 34.640625 125.597656 34.679688 C 125.710938 34.761719 125.824219 34.847656 125.929688 34.9375 C 126.027344 35.019531 126.097656 35.007812 126.171875 34.90625 C 126.417969 34.585938 126.671875 34.265625 126.921875 33.949219 C 127.621094 33.046875 128.324219 32.148438 129.027344 31.25 C 129.167969 31.066406 129.164062 31.066406 128.988281 30.925781 C 128.804688 30.78125 128.613281 30.648438 128.445312 30.492188 C 128.214844 30.277344 128.246094 29.945312 128.5 29.789062 C 128.683594 29.675781 128.863281 29.707031 129.03125 29.828125 C 129.199219 29.953125 129.359375 30.082031 129.523438 30.207031 C 129.714844 30.347656 129.703125 30.382812 129.867188 30.171875 C 130.726562 29.066406 131.585938 27.96875 132.449219 26.867188 C 132.617188 26.652344 132.78125 26.433594 132.953125 26.222656 C 133.03125 26.125 133.035156 26.054688 132.925781 25.980469 C 132.796875 25.890625 132.675781 25.789062 132.554688 25.691406 C 132.480469 25.636719 132.410156 25.582031 132.34375 25.515625 C 132.167969 25.332031 132.15625 25.09375 132.308594 24.910156 C 132.445312 24.746094 132.691406 24.703125 132.894531 24.832031 C 133.035156 24.921875 133.15625 25.035156 133.289062 25.132812 C 133.667969 25.402344 133.5625 25.433594 133.863281 25.050781 C 134.738281 23.941406 135.605469 22.824219 136.472656 21.707031 C 136.664062 21.457031 136.730469 21.507812 136.410156 21.257812 C 136.261719 21.140625 136.101562 21.035156 135.96875 20.902344 C 135.710938 20.644531 135.820312 20.234375 136.15625 20.15625 C 136.3125 20.121094 136.453125 20.160156 136.578125 20.253906 C 136.734375 20.375 136.890625 20.5 137.046875 20.621094 C 137.21875 20.75 137.222656 20.75 137.359375 20.574219 C 138.019531 19.726562 138.679688 18.878906 139.34375 18.03125 C 139.53125 17.792969 139.714844 17.546875 139.90625 17.308594 C 139.988281 17.210938 139.980469 17.140625 139.875 17.066406 C 139.742188 16.96875 139.613281 16.867188 139.484375 16.761719 C 139.414062 16.703125 139.34375 16.644531 139.289062 16.570312 C 139.171875 16.414062 139.175781 16.21875 139.289062 16.0625 C 139.40625 15.902344 139.605469 15.84375 139.796875 15.914062 C 139.949219 15.96875 140.054688 16.085938 140.1875 16.171875 C 140.316406 16.257812 140.414062 16.441406 140.570312 16.410156 C 140.703125 16.382812 140.765625 16.199219 140.859375 16.085938 C 141.503906 15.265625 142.144531 14.445312 142.785156 13.621094 C 142.925781 13.4375 142.925781 13.4375 142.746094 13.292969 C 142.640625 13.214844 142.527344 13.140625 142.4375 13.046875 C 142.308594 12.910156 142.257812 12.746094 142.328125 12.566406 C 142.398438 12.394531 142.546875 12.296875 142.75 12.292969 Z M 125.175781 20.339844 C 124.960938 20.320312 124.820312 20.441406 124.699219 20.597656 C 124.242188 21.183594 123.785156 21.773438 123.328125 22.359375 C 123.269531 22.429688 123.21875 22.503906 123.191406 22.59375 C 123.128906 22.777344 123.1875 22.972656 123.332031 23.082031 C 123.476562 23.195312 123.679688 23.203125 123.839844 23.097656 C 123.894531 23.058594 123.945312 23.015625 123.988281 22.960938 C 124.476562 22.339844 124.964844 21.714844 125.453125 21.085938 C 125.523438 20.996094 125.566406 20.886719 125.574219 20.78125 C 125.574219 20.550781 125.394531 20.355469 125.175781 20.339844 Z M 121.828125 24.273438 C 121.753906 24.3125 121.695312 24.371094 121.644531 24.433594 C 121.207031 24.996094 120.769531 25.554688 120.335938 26.113281 C 120.285156 26.179688 120.246094 26.253906 120.226562 26.335938 C 120.183594 26.515625 120.242188 26.691406 120.386719 26.796875 C 120.535156 26.902344 120.71875 26.910156 120.875 26.808594 C 120.941406 26.761719 121.003906 26.703125 121.054688 26.640625 C 121.488281 26.085938 121.917969 25.535156 122.351562 24.980469 C 122.425781 24.886719 122.472656 24.785156 122.46875 24.664062 C 122.476562 24.316406 122.132812 24.109375 121.828125 24.273438 Z M 119.230469 27.835938 C 119.007812 27.765625 118.84375 27.859375 118.710938 28.023438 C 118.527344 28.246094 118.351562 28.476562 118.175781 28.703125 C 117.957031 28.984375 117.734375 29.261719 117.523438 29.546875 C 117.332031 29.808594 117.390625 30.117188 117.644531 30.246094 C 117.835938 30.34375 118.058594 30.300781 118.21875 30.101562 C 118.625 29.59375 119.023438 29.074219 119.421875 28.5625 C 119.496094 28.46875 119.539062 28.363281 119.535156 28.242188 C 119.53125 28.050781 119.414062 27.890625 119.230469 27.835938 Z M 119.230469 27.835938 " fill-opacity="1" fill-rule="nonzero"/></g><g clip-path="url(#77c7b70636)"><path fill="#ffcae2" d="M 152.691406 25.042969 L 185.664062 -7.929688 L 192.074219 -1.519531 L 159.101562 31.453125 L 152.410156 34.375 L 149.773438 31.738281 Z M 152.691406 25.042969 " fill-opacity="1" fill-rule="nonzero"/></g><g clip-path="url(#5be64f79f7)"><path fill="#f8f1e9" d="M 149.199219 37.082031 L 147.925781 34.085938 L 150.023438 31.988281 L 152.160156 34.125 Z M 149.199219 37.082031 " fill-opacity="1" fill-rule="nonzero"/></g><g clip-path="url(#fc54a59b29)"><path stroke-linecap="round" transform="matrix(0.382751, 0, 0, 0.382751, 146.777837, -11.192634)" fill="none" stroke-linejoin="round" d="M 118.344265 25.272576 L 32.197764 111.419076 " stroke="#333333" stroke-width="2" stroke-opacity="1" stroke-miterlimit="10"/></g><g clip-path="url(#33d572f800)"><path stroke-linecap="round" transform="matrix(0.382751, 0, 0, 0.382751, 146.777837, -11.192634)" fill="none" stroke-linejoin="round" d="M 15.450174 94.671486 L 101.596675 8.524986 " stroke="#333333" stroke-width="2" stroke-opacity="1" stroke-miterlimit="10"/></g><g clip-path="url(#7b603a52c2)"><path stroke-linecap="round" transform="matrix(0.382751, 0, 0, 0.382751, 146.777837, -11.192634)" fill="none" stroke-linejoin="round" d="M 6.326259 126.125522 L 2.999193 118.297733 L 8.479666 112.81726 L 14.062196 118.39979 Z M 6.326259 126.125522 " stroke="#333333" stroke-width="2" stroke-opacity="1" stroke-miterlimit="10"/></g><path stroke-linecap="round" transform="matrix(0.382751, 0, 0, 0.382751, 146.777837, -11.192634)" fill="none" stroke-linejoin="round" d="M 28.044035 107.265348 L 15.450174 94.681692 L 7.8265 112.164094 L 14.715362 119.052957 L 32.197764 111.429282 " stroke="#333333" stroke-width="2" stroke-opacity="1" stroke-miterlimit="10"/><g clip-path="url(#f4285407b3)"><path stroke-linecap="round" transform="matrix(0.382751, 0, 0, 0.382751, 146.777837, -11.192634)" fill="none" stroke-linejoin="round" d="M 91.227661 27.272897 L 92.625845 28.671081 C 94.156703 30.20194 94.156703 32.712547 92.625845 34.253611 L 37.71906 89.150191 C 36.188202 90.691255 33.677594 90.691255 32.13653 89.150191 L 26.554 83.567661 " stroke="#333333" stroke-width="2" stroke-opacity="1" stroke-miterlimit="10"/></g><g fill="#231f20" fill-opacity="1"><g transform="translate(179.132205, 34.793749)"><g><path d="M 0.609375 0 L 0.609375 -17.390625 L 3.203125 -17.390625 L 3.203125 -2.390625 L 5.78125 -2.390625 L 5.78125 0 Z M 0.609375 0 "/></g></g></g><g fill="#231f20" fill-opacity="1"><g transform="translate(184.857107, 34.793749)"><g><path d="M 3.875 0.25 C 2.757812 0.25 1.910156 -0.078125 1.328125 -0.734375 C 0.753906 -1.398438 0.46875 -2.367188 0.46875 -3.640625 L 0.46875 -13.75 C 0.46875 -15.007812 0.753906 -15.96875 1.328125 -16.625 C 1.910156 -17.289062 2.757812 -17.625 3.875 -17.625 C 4.988281 -17.625 5.835938 -17.289062 6.421875 -16.625 C 7.003906 -15.96875 7.296875 -15.007812 7.296875 -13.75 L 7.296875 -3.640625 C 7.296875 -2.367188 7.003906 -1.398438 6.421875 -0.734375 C 5.847656 -0.078125 5 0.25 3.875 0.25 Z M 3.0625 -3.296875 C 3.0625 -2.472656 3.332031 -2.0625 3.875 -2.0625 C 4.425781 -2.0625 4.703125 -2.472656 4.703125 -3.296875 L 4.703125 -14.09375 C 4.703125 -14.53125 4.628906 -14.84375 4.484375 -15.03125 C 4.347656 -15.21875 4.144531 -15.3125 3.875 -15.3125 C 3.625 -15.3125 3.425781 -15.21875 3.28125 -15.03125 C 3.132812 -14.84375 3.0625 -14.53125 3.0625 -14.09375 Z M 3.0625 -3.296875 "/></g></g></g><g fill="#231f20" fill-opacity="1"><g transform="translate(192.381282, 34.793749)"><g><path d="M 0.609375 0 L 0.609375 -17.390625 L 3.203125 -17.390625 L 3.203125 -10.046875 L 3.640625 -10.046875 L 4.859375 -17.390625 L 7.59375 -17.390625 L 5.75 -8.96875 L 5.75 -8.90625 L 7.765625 0 L 5.03125 0 L 3.640625 -7.828125 L 3.203125 -7.828125 L 3.203125 0 Z M 0.609375 0 "/></g></g></g><g fill="#231f20" fill-opacity="1"><g transform="translate(199.998934, 34.793749)"><g><path d="M 0.09375 0 L 2.203125 -17.390625 L 5.890625 -17.390625 L 8.015625 0 L 5.375 0 L 5.078125 -2.90625 L 3.015625 -2.90625 L 2.71875 0 Z M 3.25 -5.09375 L 4.859375 -5.09375 L 4.203125 -11.53125 L 4.0625 -13.65625 L 4.015625 -13.65625 L 3.90625 -11.53125 Z M 3.25 -5.09375 "/></g></g></g><g fill="#231f20" fill-opacity="1"><g transform="translate(207.873619, 34.793749)"><g><path d="M 3.71875 0.25 C 2.644531 0.25 1.8125 -0.0234375 1.21875 -0.578125 C 0.625 -1.128906 0.328125 -1.960938 0.328125 -3.078125 L 0.328125 -6.21875 L 2.875 -6.21875 L 2.875 -3.078125 C 2.875 -2.785156 2.929688 -2.53125 3.046875 -2.3125 C 3.160156 -2.09375 3.390625 -1.984375 3.734375 -1.984375 C 3.972656 -1.984375 4.15625 -2.0625 4.28125 -2.21875 C 4.414062 -2.375 4.484375 -2.578125 4.484375 -2.828125 L 4.484375 -6.140625 C 4.484375 -6.671875 4.347656 -7.050781 4.078125 -7.28125 C 3.804688 -7.519531 3.359375 -7.804688 2.734375 -8.140625 C 2.222656 -8.429688 1.789062 -8.722656 1.4375 -9.015625 C 1.082031 -9.316406 0.816406 -9.671875 0.640625 -10.078125 C 0.472656 -10.492188 0.390625 -11.023438 0.390625 -11.671875 L 0.390625 -14.625 C 0.390625 -15.59375 0.691406 -16.332031 1.296875 -16.84375 C 1.910156 -17.363281 2.707031 -17.625 3.6875 -17.625 C 4.769531 -17.625 5.597656 -17.332031 6.171875 -16.75 C 6.742188 -16.164062 7.023438 -15.351562 7.015625 -14.3125 L 7.015625 -11.484375 L 4.53125 -11.484375 L 4.53125 -14.3125 C 4.53125 -15.007812 4.257812 -15.359375 3.71875 -15.359375 C 3.46875 -15.359375 3.28125 -15.289062 3.15625 -15.15625 C 3.039062 -15.019531 2.984375 -14.84375 2.984375 -14.625 L 2.984375 -11.6875 C 2.984375 -11.238281 3.109375 -10.898438 3.359375 -10.671875 C 3.609375 -10.441406 3.921875 -10.21875 4.296875 -10 C 5.296875 -9.519531 6.007812 -9.003906 6.4375 -8.453125 C 6.863281 -7.910156 7.078125 -7.15625 7.078125 -6.1875 L 7.078125 -2.8125 C 7.078125 -1.84375 6.769531 -1.085938 6.15625 -0.546875 C 5.539062 -0.015625 4.726562 0.25 3.71875 0.25 Z M 3.71875 0.25 "/></g></g></g><g fill="#231f20" fill-opacity="1"><g transform="translate(215.047284, 34.793749)"><g><path d="M 2.5 0 L 2.5 -4.796875 L 0.09375 -17.390625 L 2.765625 -17.390625 L 3.71875 -9.296875 L 3.765625 -8.375 L 3.8125 -8.375 L 3.875 -9.296875 L 4.8125 -17.390625 L 7.484375 -17.390625 L 5.09375 -4.796875 L 5.09375 0 Z M 2.5 0 "/></g></g></g><g fill="#231f20" fill-opacity="1"><g transform="translate(222.38452, 34.793749)"><g><path d="M 3.875 0.25 C 2.757812 0.25 1.910156 -0.078125 1.328125 -0.734375 C 0.753906 -1.398438 0.46875 -2.367188 0.46875 -3.640625 L 0.46875 -13.75 C 0.46875 -15.007812 0.753906 -15.96875 1.328125 -16.625 C 1.910156 -17.289062 2.757812 -17.625 3.875 -17.625 C 4.988281 -17.625 5.835938 -17.289062 6.421875 -16.625 C 7.003906 -15.96875 7.296875 -15.007812 7.296875 -13.75 L 7.296875 -3.640625 C 7.296875 -2.367188 7.003906 -1.398438 6.421875 -0.734375 C 5.847656 -0.078125 5 0.25 3.875 0.25 Z M 3.0625 -3.296875 C 3.0625 -2.472656 3.332031 -2.0625 3.875 -2.0625 C 4.425781 -2.0625 4.703125 -2.472656 4.703125 -3.296875 L 4.703125 -14.09375 C 4.703125 -14.53125 4.628906 -14.84375 4.484375 -15.03125 C 4.347656 -15.21875 4.144531 -15.3125 3.875 -15.3125 C 3.625 -15.3125 3.425781 -15.21875 3.28125 -15.03125 C 3.132812 -14.84375 3.0625 -14.53125 3.0625 -14.09375 Z M 3.0625 -3.296875 "/></g></g></g><g fill="#231f20" fill-opacity="1"><g transform="translate(229.908698, 34.793749)"><g><path d="M 0.609375 0 L 0.609375 -17.390625 L 3.265625 -17.390625 L 4.90625 -9.609375 L 5.3125 -7.0625 L 5.359375 -7.0625 L 5.1875 -10.09375 L 5.1875 -17.390625 L 7.71875 -17.390625 L 7.71875 0 L 5.046875 0 L 3.40625 -7.734375 L 3.015625 -10.28125 L 2.96875 -10.28125 L 3.125 -7.265625 L 3.125 0 Z M 0.609375 0 "/></g></g></g><g fill="#231f20" fill-opacity="1"><g transform="translate(237.993691, 34.793749)"><g/></g></g><g fill="#231f20" fill-opacity="1"><g transform="translate(241.311773, 34.793749)"><g><path d="M 0.609375 0 L 0.609375 -17.390625 L 3.828125 -17.390625 L 5.046875 -8.625 L 5.140625 -6.828125 L 5.1875 -6.828125 L 5.3125 -8.625 L 6.515625 -17.390625 L 9.75 -17.390625 L 9.75 0 L 7.21875 0 L 7.21875 -7.109375 L 7.453125 -12.40625 L 7.40625 -12.40625 L 7.203125 -10.734375 L 6.046875 -2.640625 L 4.296875 -2.640625 L 3.125 -10.734375 L 2.9375 -12.40625 L 2.90625 -12.40625 L 3.125 -7.109375 L 3.125 0 Z M 0.609375 0 "/></g></g></g><g fill="#231f20" fill-opacity="1"><g transform="translate(251.429717, 34.793749)"><g><path d="M 0.09375 0 L 2.203125 -17.390625 L 5.890625 -17.390625 L 8.015625 0 L 5.375 0 L 5.078125 -2.90625 L 3.015625 -2.90625 L 2.71875 0 Z M 3.25 -5.09375 L 4.859375 -5.09375 L 4.203125 -11.53125 L 4.0625 -13.65625 L 4.015625 -13.65625 L 3.90625 -11.53125 Z M 3.25 -5.09375 "/></g></g></g><g fill="#231f20" fill-opacity="1"><g transform="translate(259.304402, 34.793749)"><g><path d="M 2.03125 0 L 2.03125 -14.984375 L 0.140625 -14.984375 L 0.140625 -17.390625 L 6.515625 -17.390625 L 6.515625 -14.984375 L 4.625 -14.984375 L 4.625 0 Z M 2.03125 0 "/></g></g></g><g fill="#231f20" fill-opacity="1"><g transform="translate(265.730322, 34.793749)"><g><path d="M 0.609375 0 L 0.609375 -17.390625 L 5.984375 -17.390625 L 5.984375 -15.078125 L 3.203125 -15.078125 L 3.203125 -10.03125 L 5.65625 -10.03125 L 5.65625 -7.8125 L 3.203125 -7.8125 L 3.203125 -2.3125 L 6.078125 -2.3125 L 6.078125 0 Z M 0.609375 0 "/></g></g></g><g fill="#231f20" fill-opacity="1"><g transform="translate(271.85247, 34.793749)"><g><path d="M 0.609375 0 L 0.609375 -17.390625 L 3.828125 -17.390625 L 5.046875 -8.625 L 5.140625 -6.828125 L 5.1875 -6.828125 L 5.3125 -8.625 L 6.515625 -17.390625 L 9.75 -17.390625 L 9.75 0 L 7.21875 0 L 7.21875 -7.109375 L 7.453125 -12.40625 L 7.40625 -12.40625 L 7.203125 -10.734375 L 6.046875 -2.640625 L 4.296875 -2.640625 L 3.125 -10.734375 L 2.9375 -12.40625 L 2.90625 -12.40625 L 3.125 -7.109375 L 3.125 0 Z M 0.609375 0 "/></g></g></g><g fill="#231f20" fill-opacity="1"><g transform="translate(281.970419, 34.793749)"><g><path d="M 0.09375 0 L 2.203125 -17.390625 L 5.890625 -17.390625 L 8.015625 0 L 5.375 0 L 5.078125 -2.90625 L 3.015625 -2.90625 L 2.71875 0 Z M 3.25 -5.09375 L 4.859375 -5.09375 L 4.203125 -11.53125 L 4.0625 -13.65625 L 4.015625 -13.65625 L 3.90625 -11.53125 Z M 3.25 -5.09375 "/></g></g></g><g fill="#231f20" fill-opacity="1"><g transform="translate(289.84511, 34.793749)"><g><path d="M 2.03125 0 L 2.03125 -14.984375 L 0.140625 -14.984375 L 0.140625 -17.390625 L 6.515625 -17.390625 L 6.515625 -14.984375 L 4.625 -14.984375 L 4.625 0 Z M 2.03125 0 "/></g></g></g><g fill="#231f20" fill-opacity="1"><g transform="translate(296.271035, 34.793749)"><g><path d="M 0.609375 0 L 0.609375 -17.390625 L 3.203125 -17.390625 L 3.203125 0 Z M 0.71875 -19.421875 C 0.71875 -20.148438 1.125 -20.515625 1.9375 -20.515625 C 2.75 -20.515625 3.15625 -20.148438 3.15625 -19.421875 C 3.15625 -18.703125 2.75 -18.34375 1.9375 -18.34375 C 1.125 -18.34375 0.71875 -18.703125 0.71875 -19.421875 Z M 0.71875 -19.421875 "/></g></g></g><g fill="#231f20" fill-opacity="1"><g transform="translate(299.846158, 34.793749)"><g><path d="M 0.609375 0 L 0.609375 -17.390625 L 3.203125 -17.390625 L 3.203125 -10.046875 L 3.640625 -10.046875 L 4.859375 -17.390625 L 7.59375 -17.390625 L 5.75 -8.96875 L 5.75 -8.90625 L 7.765625 0 L 5.03125 0 L 3.640625 -7.828125 L 3.203125 -7.828125 L 3.203125 0 Z M 0.609375 0 "/></g></g></g><g fill="#231f20" fill-opacity="1"><g transform="translate(192.790122, 45.894177)"><g><path d="M 0.5 0 L 0.5 -4.453125 L 1.390625 -4.453125 L 2.390625 -1.703125 L 2.453125 -1.46875 L 2.46875 -1.46875 L 2.546875 -1.703125 L 3.546875 -4.453125 L 4.4375 -4.453125 L 4.4375 0 L 3.765625 0 L 3.765625 -2.921875 L 3.78125 -3.375 L 3.765625 -3.375 L 3.6875 -3.171875 L 2.75 -0.625 L 2.1875 -0.625 L 1.234375 -3.171875 L 1.171875 -3.375 L 1.15625 -3.375 L 1.171875 -2.921875 L 1.171875 0 Z M 0.5 0 "/></g></g></g><g fill="#231f20" fill-opacity="1"><g transform="translate(199.156154, 45.894177)"><g><path d="M 0.078125 0 L 1.46875 -4.453125 L 2.359375 -4.453125 L 3.75 0 L 3.03125 0 L 2.71875 -1.0625 L 1.09375 -1.0625 L 0.78125 0 Z M 1.265625 -1.625 L 2.5625 -1.625 L 1.984375 -3.546875 L 1.90625 -3.859375 L 1.828125 -3.546875 Z M 1.265625 -1.625 "/></g></g></g><g fill="#231f20" fill-opacity="1"><g transform="translate(204.412179, 45.894177)"><g><path d="M 1.203125 0 L 1.203125 -3.875 L 0.03125 -3.875 L 0.03125 -4.453125 L 3.0625 -4.453125 L 3.0625 -3.875 L 1.890625 -3.875 L 1.890625 0 Z M 1.203125 0 "/></g></g></g><g fill="#231f20" fill-opacity="1"><g transform="translate(208.942199, 45.894177)"><g><path d="M 0.5 0 L 0.5 -4.453125 L 3.09375 -4.453125 L 3.09375 -3.875 L 1.1875 -3.875 L 1.1875 -2.5625 L 2.875 -2.5625 L 2.875 -1.984375 L 1.1875 -1.984375 L 1.1875 -0.59375 L 3.125 -0.59375 L 3.125 0 Z M 0.5 0 "/></g></g></g><g fill="#231f20" fill-opacity="1"><g transform="translate(213.676221, 45.894177)"><g><path d="M 0.5 0 L 0.5 -4.453125 L 1.390625 -4.453125 L 2.390625 -1.703125 L 2.453125 -1.46875 L 2.46875 -1.46875 L 2.546875 -1.703125 L 3.546875 -4.453125 L 4.4375 -4.453125 L 4.4375 0 L 3.765625 0 L 3.765625 -2.921875 L 3.78125 -3.375 L 3.765625 -3.375 L 3.6875 -3.171875 L 2.75 -0.625 L 2.1875 -0.625 L 1.234375 -3.171875 L 1.171875 -3.375 L 1.15625 -3.375 L 1.171875 -2.921875 L 1.171875 0 Z M 0.5 0 "/></g></g></g><g fill="#231f20" fill-opacity="1"><g transform="translate(220.042253, 45.894177)"><g><path d="M 0.078125 0 L 1.46875 -4.453125 L 2.359375 -4.453125 L 3.75 0 L 3.03125 0 L 2.71875 -1.0625 L 1.09375 -1.0625 L 0.78125 0 Z M 1.265625 -1.625 L 2.5625 -1.625 L 1.984375 -3.546875 L 1.90625 -3.859375 L 1.828125 -3.546875 Z M 1.265625 -1.625 "/></g></g></g><g fill="#231f20" fill-opacity="1"><g transform="translate(225.298278, 45.894177)"><g><path d="M 1.203125 0 L 1.203125 -3.875 L 0.03125 -3.875 L 0.03125 -4.453125 L 3.0625 -4.453125 L 3.0625 -3.875 L 1.890625 -3.875 L 1.890625 0 Z M 1.203125 0 "/></g></g></g><g fill="#231f20" fill-opacity="1"><g transform="translate(229.8283, 45.894177)"><g><path d="M 0.5 0 L 0.5 -4.453125 L 1.1875 -4.453125 L 1.1875 0 Z M 0.53125 -5.03125 C 0.53125 -5.207031 0.640625 -5.296875 0.859375 -5.296875 C 0.960938 -5.296875 1.035156 -5.269531 1.078125 -5.21875 C 1.128906 -5.175781 1.15625 -5.113281 1.15625 -5.03125 C 1.15625 -4.945312 1.128906 -4.878906 1.078125 -4.828125 C 1.035156 -4.785156 0.960938 -4.765625 0.859375 -4.765625 C 0.742188 -4.765625 0.660156 -4.785156 0.609375 -4.828125 C 0.554688 -4.878906 0.53125 -4.945312 0.53125 -5.03125 Z M 0.53125 -5.03125 "/></g></g></g><g fill="#231f20" fill-opacity="1"><g transform="translate(232.942311, 45.894177)"><g><path d="M 0.5 0 L 0.5 -4.453125 L 1.1875 -4.453125 L 1.1875 -2.578125 L 1.8125 -2.578125 L 2.703125 -4.453125 L 3.46875 -4.453125 L 2.375 -2.296875 L 2.375 -2.28125 L 3.65625 0 L 2.890625 0 L 1.8125 -1.984375 L 1.1875 -1.984375 L 1.1875 0 Z M 0.5 0 "/></g></g></g><g fill="#231f20" fill-opacity="1"><g transform="translate(238.120331, 45.894177)"><g><path d="M 1.203125 0 L 1.203125 -3.875 L 0.03125 -3.875 L 0.03125 -4.453125 L 3.0625 -4.453125 L 3.0625 -3.875 L 1.890625 -3.875 L 1.890625 0 Z M 1.203125 0 "/></g></g></g><g fill="#231f20" fill-opacity="1"><g transform="translate(242.650349, 45.894177)"><g><path d="M 0.5 0 L 0.5 -4.453125 L 3.09375 -4.453125 L 3.09375 -3.875 L 1.1875 -3.875 L 1.1875 -2.5625 L 2.875 -2.5625 L 2.875 -1.984375 L 1.1875 -1.984375 L 1.1875 -0.59375 L 3.125 -0.59375 L 3.125 0 Z M 0.5 0 "/></g></g></g><g fill="#231f20" fill-opacity="1"><g transform="translate(247.384369, 45.894177)"><g/></g></g><g fill="#231f20" fill-opacity="1"><g transform="translate(250.438375, 45.894177)"><g><path d="M 1.765625 0.078125 C 1.242188 0.078125 0.851562 -0.046875 0.59375 -0.296875 C 0.332031 -0.554688 0.203125 -0.90625 0.203125 -1.34375 L 0.875 -1.34375 C 0.875 -1.21875 0.898438 -1.085938 0.953125 -0.953125 C 1.003906 -0.816406 1.09375 -0.703125 1.21875 -0.609375 C 1.34375 -0.523438 1.523438 -0.484375 1.765625 -0.484375 C 2.035156 -0.484375 2.234375 -0.546875 2.359375 -0.671875 C 2.492188 -0.804688 2.5625 -0.976562 2.5625 -1.1875 C 2.5625 -1.382812 2.523438 -1.535156 2.453125 -1.640625 C 2.378906 -1.742188 2.265625 -1.828125 2.109375 -1.890625 C 1.960938 -1.953125 1.773438 -2.019531 1.546875 -2.09375 C 1.285156 -2.175781 1.0625 -2.265625 0.875 -2.359375 C 0.695312 -2.460938 0.5625 -2.59375 0.46875 -2.75 C 0.375 -2.914062 0.328125 -3.128906 0.328125 -3.390625 C 0.328125 -3.734375 0.445312 -4.007812 0.6875 -4.21875 C 0.9375 -4.425781 1.285156 -4.53125 1.734375 -4.53125 C 2.234375 -4.53125 2.597656 -4.40625 2.828125 -4.15625 C 3.066406 -3.90625 3.191406 -3.578125 3.203125 -3.171875 L 2.546875 -3.171875 C 2.546875 -3.304688 2.519531 -3.429688 2.46875 -3.546875 C 2.425781 -3.671875 2.347656 -3.769531 2.234375 -3.84375 C 2.117188 -3.914062 1.953125 -3.953125 1.734375 -3.953125 C 1.484375 -3.953125 1.300781 -3.894531 1.1875 -3.78125 C 1.070312 -3.675781 1.015625 -3.539062 1.015625 -3.375 C 1.015625 -3.21875 1.046875 -3.09375 1.109375 -3 C 1.179688 -2.914062 1.273438 -2.847656 1.390625 -2.796875 C 1.515625 -2.742188 1.664062 -2.691406 1.84375 -2.640625 C 2.15625 -2.554688 2.414062 -2.453125 2.625 -2.328125 C 2.832031 -2.210938 2.988281 -2.0625 3.09375 -1.875 C 3.195312 -1.695312 3.25 -1.46875 3.25 -1.1875 C 3.25 -0.789062 3.117188 -0.476562 2.859375 -0.25 C 2.597656 -0.03125 2.234375 0.078125 1.765625 0.078125 Z M 1.765625 0.078125 "/></g></g></g><g fill="#231f20" fill-opacity="1"><g transform="translate(255.352395, 45.894177)"><g><path d="M 1.96875 0.078125 C 0.851562 0.078125 0.296875 -0.601562 0.296875 -1.96875 L 0.296875 -2.515625 C 0.296875 -3.859375 0.851562 -4.53125 1.96875 -4.53125 C 3.070312 -4.53125 3.625 -3.859375 3.625 -2.515625 L 3.625 -1.96875 C 3.625 -0.601562 3.070312 0.078125 1.96875 0.078125 Z M 0.984375 -1.921875 C 0.984375 -1.441406 1.066406 -1.085938 1.234375 -0.859375 C 1.398438 -0.628906 1.644531 -0.515625 1.96875 -0.515625 C 2.289062 -0.515625 2.535156 -0.628906 2.703125 -0.859375 C 2.867188 -1.085938 2.953125 -1.441406 2.953125 -1.921875 L 2.953125 -2.546875 C 2.953125 -3.023438 2.867188 -3.375 2.703125 -3.59375 C 2.535156 -3.820312 2.289062 -3.9375 1.96875 -3.9375 C 1.644531 -3.9375 1.398438 -3.820312 1.234375 -3.59375 C 1.066406 -3.375 0.984375 -3.023438 0.984375 -2.546875 Z M 0.984375 -1.921875 "/></g></g></g><g fill="#231f20" fill-opacity="1"><g transform="translate(260.71642, 45.894177)"><g><path d="M 0.5 0 L 0.5 -4.453125 L 1.265625 -4.453125 L 2.921875 -1.40625 L 3.0625 -1.140625 L 3.078125 -1.140625 L 3.078125 -4.453125 L 3.75 -4.453125 L 3.75 0 L 2.96875 0 L 1.328125 -3.046875 L 1.1875 -3.328125 L 1.171875 -3.328125 L 1.171875 0 Z M 0.5 0 "/></g></g></g><g fill="#231f20" fill-opacity="1"><g transform="translate(266.398445, 45.894177)"><g/></g></g><g fill="#231f20" fill-opacity="1"><g transform="translate(269.452451, 45.894177)"><g><path d="M 0.5 0 L 0.5 -4.453125 L 1.265625 -4.453125 L 2.921875 -1.40625 L 3.0625 -1.140625 L 3.078125 -1.140625 L 3.078125 -4.453125 L 3.75 -4.453125 L 3.75 0 L 2.96875 0 L 1.328125 -3.046875 L 1.1875 -3.328125 L 1.171875 -3.328125 L 1.171875 0 Z M 0.5 0 "/></g></g></g><g fill="#231f20" fill-opacity="1"><g transform="translate(275.134476, 45.894177)"><g><path d="M 1.96875 0.078125 C 0.851562 0.078125 0.296875 -0.601562 0.296875 -1.96875 L 0.296875 -2.515625 C 0.296875 -3.859375 0.851562 -4.53125 1.96875 -4.53125 C 3.070312 -4.53125 3.625 -3.859375 3.625 -2.515625 L 3.625 -1.96875 C 3.625 -0.601562 3.070312 0.078125 1.96875 0.078125 Z M 0.984375 -1.921875 C 0.984375 -1.441406 1.066406 -1.085938 1.234375 -0.859375 C 1.398438 -0.628906 1.644531 -0.515625 1.96875 -0.515625 C 2.289062 -0.515625 2.535156 -0.628906 2.703125 -0.859375 C 2.867188 -1.085938 2.953125 -1.441406 2.953125 -1.921875 L 2.953125 -2.546875 C 2.953125 -3.023438 2.867188 -3.375 2.703125 -3.59375 C 2.535156 -3.820312 2.289062 -3.9375 1.96875 -3.9375 C 1.644531 -3.9375 1.398438 -3.820312 1.234375 -3.59375 C 1.066406 -3.375 0.984375 -3.023438 0.984375 -2.546875 Z M 0.984375 -1.921875 "/></g></g></g><g fill="#231f20" fill-opacity="1"><g transform="translate(280.4985, 45.894177)"><g><path d="M 0.5 0 L 0.5 -4.453125 L 1.1875 -4.453125 L 1.1875 -2.578125 L 1.8125 -2.578125 L 2.703125 -4.453125 L 3.46875 -4.453125 L 2.375 -2.296875 L 2.375 -2.28125 L 3.65625 0 L 2.890625 0 L 1.8125 -1.984375 L 1.1875 -1.984375 L 1.1875 0 Z M 0.5 0 "/></g></g></g><g fill="#231f20" fill-opacity="1"><g transform="translate(285.676521, 45.894177)"><g><path d="M 1.203125 0 L 1.203125 -3.875 L 0.03125 -3.875 L 0.03125 -4.453125 L 3.0625 -4.453125 L 3.0625 -3.875 L 1.890625 -3.875 L 1.890625 0 Z M 1.203125 0 "/></g></g></g><g fill="#231f20" fill-opacity="1"><g transform="translate(290.206539, 45.894177)"><g><path d="M 0.078125 0 L 1.46875 -4.453125 L 2.359375 -4.453125 L 3.75 0 L 3.03125 0 L 2.71875 -1.0625 L 1.09375 -1.0625 L 0.78125 0 Z M 1.265625 -1.625 L 2.5625 -1.625 L 1.984375 -3.546875 L 1.90625 -3.859375 L 1.828125 -3.546875 Z M 1.265625 -1.625 "/></g></g></g></svg>