<svg xmlns="http://www.w3.org/2000/svg" xmlns:xlink="http://www.w3.org/1999/xlink" width="500" zoomAndPan="magnify" viewBox="0 0 375 374.999991" height="500" preserveAspectRatio="xMidYMid meet" version="1.0"><defs><g/><clipPath id="127dd0cb4d"><path d="M 22 108.761719 L 100 108.761719 L 100 230.984375 L 22 230.984375 Z M 22 108.761719 " clip-rule="nonzero"/></clipPath></defs><g clip-path="url(#127dd0cb4d)"><path fill="#545454" d="M 62.421875 108.75 C 62.066406 108.742188 61.703125 108.738281 61.339844 108.738281 C 60.976562 108.738281 60.613281 108.742188 60.253906 108.75 C 31.589844 109.480469 13.875 140.445312 27.203125 165.839844 L 37.449219 185.375 L 61.339844 230.914062 L 69.742188 214.890625 C 66.308594 208.507812 62.863281 202.125 59.421875 195.742188 C 54.167969 185.992188 48.914062 176.242188 43.660156 166.496094 C 40.988281 161.546875 38.445312 156.5 37.75 150.835938 C 36.070312 137.179688 47.714844 125.023438 61.246094 124.96875 C 74.511719 124.917969 85.28125 135.652344 85.28125 148.902344 C 85.28125 162.125 74.558594 172.839844 61.339844 172.839844 C 60.902344 172.839844 60.46875 172.828125 60.039062 172.808594 L 75.96875 203.03125 L 85.234375 185.375 L 95.472656 165.839844 C 108.800781 140.445312 91.089844 109.480469 62.421875 108.75 " fill-opacity="1" fill-rule="nonzero"/></g><g fill="#545454" fill-opacity="1"><g transform="translate(112.165266, 187.453816)"><g><path d="M 1.171875 0 L 1.171875 -33.484375 L 6.171875 -33.484375 L 6.171875 -4.59375 L 11.109375 -4.59375 L 11.109375 0 Z M 1.171875 0 "/></g></g></g><g fill="#545454" fill-opacity="1"><g transform="translate(123.190256, 187.453816)"><g><path d="M 7.46875 0.5 C 5.3125 0.5 3.675781 -0.132812 2.5625 -1.40625 C 1.457031 -2.6875 0.90625 -4.554688 0.90625 -7.015625 L 0.90625 -26.453125 C 0.90625 -28.890625 1.457031 -30.742188 2.5625 -32.015625 C 3.675781 -33.296875 5.3125 -33.9375 7.46875 -33.9375 C 9.601562 -33.9375 11.234375 -33.296875 12.359375 -32.015625 C 13.484375 -30.742188 14.046875 -28.890625 14.046875 -26.453125 L 14.046875 -7.015625 C 14.046875 -4.554688 13.488281 -2.6875 12.375 -1.40625 C 11.257812 -0.132812 9.625 0.5 7.46875 0.5 Z M 5.890625 -6.34375 C 5.890625 -4.75 6.414062 -3.953125 7.46875 -3.953125 C 8.519531 -3.953125 9.046875 -4.75 9.046875 -6.34375 L 9.046875 -27.140625 C 9.046875 -27.972656 8.910156 -28.566406 8.640625 -28.921875 C 8.367188 -29.285156 7.976562 -29.46875 7.46875 -29.46875 C 6.988281 -29.46875 6.601562 -29.285156 6.3125 -28.921875 C 6.03125 -28.566406 5.890625 -27.972656 5.890625 -27.140625 Z M 5.890625 -6.34375 "/></g></g></g><g fill="#545454" fill-opacity="1"><g transform="translate(137.680242, 187.453816)"><g><path d="M 1.171875 0 L 1.171875 -33.484375 L 6.171875 -33.484375 L 6.171875 -19.34375 L 7.015625 -19.34375 L 9.359375 -33.484375 L 14.625 -33.484375 L 11.0625 -17.28125 L 11.0625 -17.140625 L 14.9375 0 L 9.671875 0 L 7.015625 -15.078125 L 6.171875 -15.078125 L 6.171875 0 Z M 1.171875 0 "/></g></g></g><g fill="#545454" fill-opacity="1"><g transform="translate(152.35023, 187.453816)"><g><path d="M 0.1875 0 L 4.234375 -33.484375 L 11.34375 -33.484375 L 15.4375 0 L 10.34375 0 L 9.765625 -5.578125 L 5.8125 -5.578125 L 5.21875 0 Z M 6.25 -9.8125 L 9.359375 -9.8125 L 8.09375 -22.1875 L 7.828125 -26.28125 L 7.734375 -26.28125 L 7.515625 -22.1875 Z M 6.25 -9.8125 "/></g></g></g><g fill="#545454" fill-opacity="1"><g transform="translate(167.515213, 187.453816)"><g><path d="M 7.15625 0.5 C 5.082031 0.5 3.472656 -0.03125 2.328125 -1.09375 C 1.191406 -2.164062 0.625 -3.78125 0.625 -5.9375 L 0.625 -11.96875 L 5.53125 -11.96875 L 5.53125 -5.9375 C 5.53125 -5.363281 5.640625 -4.867188 5.859375 -4.453125 C 6.085938 -4.035156 6.535156 -3.828125 7.203125 -3.828125 C 7.648438 -3.828125 8 -3.972656 8.25 -4.265625 C 8.507812 -4.566406 8.640625 -4.957031 8.640625 -5.4375 L 8.640625 -11.828125 C 8.640625 -12.847656 8.375 -13.582031 7.84375 -14.03125 C 7.320312 -14.488281 6.460938 -15.03125 5.265625 -15.65625 C 4.273438 -16.226562 3.441406 -16.796875 2.765625 -17.359375 C 2.085938 -17.929688 1.582031 -18.613281 1.25 -19.40625 C 0.925781 -20.207031 0.765625 -21.222656 0.765625 -22.453125 L 0.765625 -28.171875 C 0.765625 -30.023438 1.347656 -31.445312 2.515625 -32.4375 C 3.691406 -33.4375 5.222656 -33.9375 7.109375 -33.9375 C 9.179688 -33.9375 10.769531 -33.375 11.875 -32.25 C 12.988281 -31.125 13.53125 -29.554688 13.5 -27.546875 L 13.5 -22.09375 L 8.734375 -22.09375 L 8.734375 -27.546875 C 8.734375 -28.890625 8.207031 -29.5625 7.15625 -29.5625 C 6.675781 -29.5625 6.320312 -29.429688 6.09375 -29.171875 C 5.875 -28.921875 5.765625 -28.585938 5.765625 -28.171875 L 5.765625 -22.5 C 5.765625 -21.625 6.003906 -20.96875 6.484375 -20.53125 C 6.960938 -20.101562 7.5625 -19.679688 8.28125 -19.265625 C 10.195312 -18.328125 11.566406 -17.332031 12.390625 -16.28125 C 13.222656 -15.238281 13.640625 -13.785156 13.640625 -11.921875 L 13.640625 -5.40625 C 13.640625 -3.539062 13.046875 -2.085938 11.859375 -1.046875 C 10.671875 -0.015625 9.101562 0.5 7.15625 0.5 Z M 7.15625 0.5 "/></g></g></g><g fill="#545454" fill-opacity="1"><g transform="translate(181.330205, 187.453816)"><g><path d="M 4.8125 0 L 4.8125 -9.21875 L 0.1875 -33.484375 L 5.3125 -33.484375 L 7.15625 -17.90625 L 7.25 -16.109375 L 7.328125 -16.109375 L 7.46875 -17.90625 L 9.265625 -33.484375 L 14.40625 -33.484375 L 9.8125 -9.21875 L 9.8125 0 Z M 4.8125 0 "/></g></g></g><g fill="#545454" fill-opacity="1"><g transform="translate(195.460196, 187.453816)"><g><path d="M 7.46875 0.5 C 5.3125 0.5 3.675781 -0.132812 2.5625 -1.40625 C 1.457031 -2.6875 0.90625 -4.554688 0.90625 -7.015625 L 0.90625 -26.453125 C 0.90625 -28.890625 1.457031 -30.742188 2.5625 -32.015625 C 3.675781 -33.296875 5.3125 -33.9375 7.46875 -33.9375 C 9.601562 -33.9375 11.234375 -33.296875 12.359375 -32.015625 C 13.484375 -30.742188 14.046875 -28.890625 14.046875 -26.453125 L 14.046875 -7.015625 C 14.046875 -4.554688 13.488281 -2.6875 12.375 -1.40625 C 11.257812 -0.132812 9.625 0.5 7.46875 0.5 Z M 5.890625 -6.34375 C 5.890625 -4.75 6.414062 -3.953125 7.46875 -3.953125 C 8.519531 -3.953125 9.046875 -4.75 9.046875 -6.34375 L 9.046875 -27.140625 C 9.046875 -27.972656 8.910156 -28.566406 8.640625 -28.921875 C 8.367188 -29.285156 7.976562 -29.46875 7.46875 -29.46875 C 6.988281 -29.46875 6.601562 -29.285156 6.3125 -28.921875 C 6.03125 -28.566406 5.890625 -27.972656 5.890625 -27.140625 Z M 5.890625 -6.34375 "/></g></g></g><g fill="#545454" fill-opacity="1"><g transform="translate(209.950183, 187.453816)"><g><path d="M 1.171875 0 L 1.171875 -33.484375 L 6.296875 -33.484375 L 9.453125 -18.5 L 10.21875 -13.59375 L 10.3125 -13.59375 L 9.984375 -19.4375 L 9.984375 -33.484375 L 14.84375 -33.484375 L 14.84375 0 L 9.71875 0 L 6.5625 -14.890625 L 5.8125 -19.796875 L 5.71875 -19.796875 L 6.03125 -14 L 6.03125 0 Z M 1.171875 0 "/></g></g></g><g fill="#545454" fill-opacity="1"><g transform="translate(225.520166, 187.453816)"><g/></g></g><g fill="#545454" fill-opacity="1"><g transform="translate(231.910158, 187.453816)"><g><path d="M 1.171875 0 L 1.171875 -33.484375 L 7.375 -33.484375 L 9.71875 -16.609375 L 9.90625 -13.140625 L 9.984375 -13.140625 L 10.21875 -16.609375 L 12.5625 -33.484375 L 18.765625 -33.484375 L 18.765625 0 L 13.90625 0 L 13.90625 -13.6875 L 14.359375 -23.890625 L 14.265625 -23.890625 L 13.859375 -20.65625 L 11.65625 -5.078125 L 8.28125 -5.078125 L 6.03125 -20.65625 L 5.671875 -23.890625 L 5.578125 -23.890625 L 6.03125 -13.6875 L 6.03125 0 Z M 1.171875 0 "/></g></g></g><g fill="#545454" fill-opacity="1"><g transform="translate(251.39513, 187.453816)"><g><path d="M 0.1875 0 L 4.234375 -33.484375 L 11.34375 -33.484375 L 15.4375 0 L 10.34375 0 L 9.765625 -5.578125 L 5.8125 -5.578125 L 5.21875 0 Z M 6.25 -9.8125 L 9.359375 -9.8125 L 8.09375 -22.1875 L 7.828125 -26.28125 L 7.734375 -26.28125 L 7.515625 -22.1875 Z M 6.25 -9.8125 "/></g></g></g><g fill="#545454" fill-opacity="1"><g transform="translate(266.560107, 187.453816)"><g><path d="M 3.921875 0 L 3.921875 -28.84375 L 0.265625 -28.84375 L 0.265625 -33.484375 L 12.5625 -33.484375 L 12.5625 -28.84375 L 8.90625 -28.84375 L 8.90625 0 Z M 3.921875 0 "/></g></g></g><g fill="#545454" fill-opacity="1"><g transform="translate(278.935095, 187.453816)"><g><path d="M 1.171875 0 L 1.171875 -33.484375 L 11.515625 -33.484375 L 11.515625 -29.03125 L 6.171875 -29.03125 L 6.171875 -19.3125 L 10.890625 -19.3125 L 10.890625 -15.03125 L 6.171875 -15.03125 L 6.171875 -4.453125 L 11.703125 -4.453125 L 11.703125 0 Z M 1.171875 0 "/></g></g></g><g fill="#545454" fill-opacity="1"><g transform="translate(290.725084, 187.453816)"><g><path d="M 1.171875 0 L 1.171875 -33.484375 L 7.375 -33.484375 L 9.71875 -16.609375 L 9.90625 -13.140625 L 9.984375 -13.140625 L 10.21875 -16.609375 L 12.5625 -33.484375 L 18.765625 -33.484375 L 18.765625 0 L 13.90625 0 L 13.90625 -13.6875 L 14.359375 -23.890625 L 14.265625 -23.890625 L 13.859375 -20.65625 L 11.65625 -5.078125 L 8.28125 -5.078125 L 6.03125 -20.65625 L 5.671875 -23.890625 L 5.578125 -23.890625 L 6.03125 -13.6875 L 6.03125 0 Z M 1.171875 0 "/></g></g></g><g fill="#545454" fill-opacity="1"><g transform="translate(310.210068, 187.453816)"><g><path d="M 0.1875 0 L 4.234375 -33.484375 L 11.34375 -33.484375 L 15.4375 0 L 10.34375 0 L 9.765625 -5.578125 L 5.8125 -5.578125 L 5.21875 0 Z M 6.25 -9.8125 L 9.359375 -9.8125 L 8.09375 -22.1875 L 7.828125 -26.28125 L 7.734375 -26.28125 L 7.515625 -22.1875 Z M 6.25 -9.8125 "/></g></g></g><g fill="#545454" fill-opacity="1"><g transform="translate(325.375045, 187.453816)"><g><path d="M 3.921875 0 L 3.921875 -28.84375 L 0.265625 -28.84375 L 0.265625 -33.484375 L 12.5625 -33.484375 L 12.5625 -28.84375 L 8.90625 -28.84375 L 8.90625 0 Z M 3.921875 0 "/></g></g></g><g fill="#545454" fill-opacity="1"><g transform="translate(337.750044, 187.453816)"><g><path d="M 1.171875 0 L 1.171875 -33.484375 L 6.171875 -33.484375 L 6.171875 0 Z M 1.390625 -37.390625 C 1.390625 -38.804688 2.171875 -39.515625 3.734375 -39.515625 C 5.296875 -39.515625 6.078125 -38.804688 6.078125 -37.390625 C 6.078125 -36.015625 5.296875 -35.328125 3.734375 -35.328125 C 2.171875 -35.328125 1.390625 -36.015625 1.390625 -37.390625 Z M 1.390625 -37.390625 "/></g></g></g><g fill="#545454" fill-opacity="1"><g transform="translate(344.635038, 187.453816)"><g><path d="M 1.171875 0 L 1.171875 -33.484375 L 6.171875 -33.484375 L 6.171875 -19.34375 L 7.015625 -19.34375 L 9.359375 -33.484375 L 14.625 -33.484375 L 11.0625 -17.28125 L 11.0625 -17.140625 L 14.9375 0 L 9.671875 0 L 7.015625 -15.078125 L 6.171875 -15.078125 L 6.171875 0 Z M 1.171875 0 "/></g></g></g><g fill="#545454" fill-opacity="1"><g transform="translate(135.832553, 205.92885)"><g><path d="M 0.875 0 L 0.875 -7.4375 L 2.640625 -7.4375 L 4.625 -2.96875 L 4.8125 -2.484375 L 5 -2.96875 L 6.984375 -7.4375 L 8.734375 -7.4375 L 8.734375 0 L 7.4375 0 L 7.4375 -4.984375 L 7.453125 -5.65625 L 7.4375 -5.65625 L 7.234375 -5.125 L 5.375 -1.0625 L 4.234375 -1.0625 L 2.390625 -5.125 L 2.1875 -5.65625 L 2.1875 0 Z M 0.875 0 "/></g></g></g><g fill="#545454" fill-opacity="1"><g transform="translate(147.84878, 205.92885)"><g><path d="M 0.109375 0 L 2.84375 -7.4375 L 4.59375 -7.4375 L 7.34375 0 L 5.90625 0 L 5.3125 -1.71875 L 2.140625 -1.71875 L 1.546875 0 Z M 2.5 -2.765625 L 4.953125 -2.765625 L 3.921875 -5.8125 L 3.734375 -6.390625 L 3.71875 -6.390625 L 3.546875 -5.8125 Z M 2.5 -2.765625 "/></g></g></g><g fill="#545454" fill-opacity="1"><g transform="translate(157.695871, 205.92885)"><g><path d="M 2.421875 0 L 2.421875 -6.3125 L 0.046875 -6.3125 L 0.046875 -7.4375 L 6.140625 -7.4375 L 6.140625 -6.3125 L 3.765625 -6.3125 L 3.765625 0 Z M 2.421875 0 "/></g></g></g><g fill="#545454" fill-opacity="1"><g transform="translate(166.273458, 205.92885)"><g><path d="M 0.875 0 L 0.875 -7.4375 L 6.140625 -7.4375 L 6.140625 -6.3125 L 2.21875 -6.3125 L 2.21875 -4.3125 L 5.75 -4.3125 L 5.75 -3.265625 L 2.21875 -3.265625 L 2.21875 -1.125 L 6.1875 -1.125 L 6.1875 0 Z M 0.875 0 "/></g></g></g><g fill="#545454" fill-opacity="1"><g transform="translate(175.170918, 205.92885)"><g><path d="M 0.875 0 L 0.875 -7.4375 L 2.640625 -7.4375 L 4.625 -2.96875 L 4.8125 -2.484375 L 5 -2.96875 L 6.984375 -7.4375 L 8.734375 -7.4375 L 8.734375 0 L 7.4375 0 L 7.4375 -4.984375 L 7.453125 -5.65625 L 7.4375 -5.65625 L 7.234375 -5.125 L 5.375 -1.0625 L 4.234375 -1.0625 L 2.390625 -5.125 L 2.1875 -5.65625 L 2.1875 0 Z M 0.875 0 "/></g></g></g><g fill="#545454" fill-opacity="1"><g transform="translate(187.187145, 205.92885)"><g><path d="M 0.109375 0 L 2.84375 -7.4375 L 4.59375 -7.4375 L 7.34375 0 L 5.90625 0 L 5.3125 -1.71875 L 2.140625 -1.71875 L 1.546875 0 Z M 2.5 -2.765625 L 4.953125 -2.765625 L 3.921875 -5.8125 L 3.734375 -6.390625 L 3.71875 -6.390625 L 3.546875 -5.8125 Z M 2.5 -2.765625 "/></g></g></g><g fill="#545454" fill-opacity="1"><g transform="translate(197.034236, 205.92885)"><g><path d="M 2.421875 0 L 2.421875 -6.3125 L 0.046875 -6.3125 L 0.046875 -7.4375 L 6.140625 -7.4375 L 6.140625 -6.3125 L 3.765625 -6.3125 L 3.765625 0 Z M 2.421875 0 "/></g></g></g><g fill="#545454" fill-opacity="1"><g transform="translate(205.611823, 205.92885)"><g><path d="M 0.875 0 L 0.875 -7.4375 L 2.21875 -7.4375 L 2.21875 0 Z M 0.96875 -8.484375 C 0.96875 -8.816406 1.164062 -8.984375 1.5625 -8.984375 C 1.957031 -8.984375 2.15625 -8.816406 2.15625 -8.484375 C 2.15625 -8.148438 1.957031 -7.984375 1.5625 -7.984375 C 1.164062 -7.984375 0.96875 -8.148438 0.96875 -8.484375 Z M 0.96875 -8.484375 "/></g></g></g><g fill="#545454" fill-opacity="1"><g transform="translate(211.110629, 205.92885)"><g><path d="M 0.875 0 L 0.875 -7.4375 L 2.21875 -7.4375 L 2.21875 -4.34375 L 3.4375 -4.34375 L 5.203125 -7.4375 L 6.765625 -7.4375 L 4.5625 -3.828125 L 4.5625 -3.78125 L 7.09375 0 L 5.5625 0 L 3.4375 -3.25 L 2.21875 -3.25 L 2.21875 0 Z M 0.875 0 "/></g></g></g><g fill="#545454" fill-opacity="1"><g transform="translate(220.737799, 205.92885)"><g><path d="M 2.421875 0 L 2.421875 -6.3125 L 0.046875 -6.3125 L 0.046875 -7.4375 L 6.140625 -7.4375 L 6.140625 -6.3125 L 3.765625 -6.3125 L 3.765625 0 Z M 2.421875 0 "/></g></g></g><g fill="#545454" fill-opacity="1"><g transform="translate(229.315385, 205.92885)"><g><path d="M 0.875 0 L 0.875 -7.4375 L 6.140625 -7.4375 L 6.140625 -6.3125 L 2.21875 -6.3125 L 2.21875 -4.3125 L 5.75 -4.3125 L 5.75 -3.265625 L 2.21875 -3.265625 L 2.21875 -1.125 L 6.1875 -1.125 L 6.1875 0 Z M 0.875 0 "/></g></g></g><g fill="#545454" fill-opacity="1"><g transform="translate(238.212845, 205.92885)"><g/></g></g><g fill="#545454" fill-opacity="1"><g transform="translate(243.741635, 205.92885)"><g><path d="M 3.4375 0.15625 C 2.738281 0.15625 2.164062 0.0507812 1.71875 -0.15625 C 1.269531 -0.363281 0.929688 -0.648438 0.703125 -1.015625 C 0.484375 -1.390625 0.367188 -1.816406 0.359375 -2.296875 L 1.671875 -2.296875 C 1.679688 -2.066406 1.734375 -1.84375 1.828125 -1.625 C 1.929688 -1.414062 2.113281 -1.242188 2.375 -1.109375 C 2.632812 -0.972656 2.992188 -0.90625 3.453125 -0.90625 C 3.992188 -0.90625 4.390625 -1.003906 4.640625 -1.203125 C 4.890625 -1.398438 5.015625 -1.671875 5.015625 -2.015625 C 5.015625 -2.296875 4.953125 -2.519531 4.828125 -2.6875 C 4.710938 -2.851562 4.519531 -2.984375 4.25 -3.078125 C 3.976562 -3.179688 3.601562 -3.285156 3.125 -3.390625 C 2.507812 -3.515625 2.015625 -3.664062 1.640625 -3.84375 C 1.273438 -4.03125 1.007812 -4.265625 0.84375 -4.546875 C 0.675781 -4.828125 0.59375 -5.175781 0.59375 -5.59375 C 0.59375 -6.164062 0.816406 -6.632812 1.265625 -7 C 1.710938 -7.375 2.40625 -7.5625 3.34375 -7.5625 C 4.007812 -7.5625 4.550781 -7.457031 4.96875 -7.25 C 5.394531 -7.050781 5.710938 -6.773438 5.921875 -6.421875 C 6.128906 -6.078125 6.242188 -5.671875 6.265625 -5.203125 L 4.984375 -5.203125 C 4.972656 -5.429688 4.921875 -5.644531 4.828125 -5.84375 C 4.734375 -6.039062 4.566406 -6.203125 4.328125 -6.328125 C 4.097656 -6.453125 3.78125 -6.515625 3.375 -6.515625 C 2.851562 -6.515625 2.484375 -6.421875 2.265625 -6.234375 C 2.046875 -6.046875 1.9375 -5.820312 1.9375 -5.5625 C 1.9375 -5.226562 2.054688 -4.984375 2.296875 -4.828125 C 2.535156 -4.671875 2.941406 -4.535156 3.515625 -4.421875 C 4.234375 -4.273438 4.800781 -4.097656 5.21875 -3.890625 C 5.632812 -3.691406 5.929688 -3.4375 6.109375 -3.125 C 6.285156 -2.820312 6.375 -2.453125 6.375 -2.015625 C 6.375 -1.328125 6.117188 -0.789062 5.609375 -0.40625 C 5.097656 -0.03125 4.375 0.15625 3.4375 0.15625 Z M 3.4375 0.15625 "/></g></g></g><g fill="#545454" fill-opacity="1"><g transform="translate(252.889, 205.92885)"><g><path d="M 3.90625 0.15625 C 2.789062 0.15625 1.9375 -0.164062 1.34375 -0.8125 C 0.757812 -1.457031 0.46875 -2.40625 0.46875 -3.65625 L 0.46875 -3.796875 C 0.46875 -5.035156 0.757812 -5.972656 1.34375 -6.609375 C 1.9375 -7.242188 2.789062 -7.5625 3.90625 -7.5625 C 5.007812 -7.5625 5.851562 -7.242188 6.4375 -6.609375 C 7.03125 -5.972656 7.328125 -5.035156 7.328125 -3.796875 L 7.328125 -3.65625 C 7.328125 -2.40625 7.03125 -1.457031 6.4375 -0.8125 C 5.851562 -0.164062 5.007812 0.15625 3.90625 0.15625 Z M 1.828125 -3.609375 C 1.828125 -2.742188 2.003906 -2.09375 2.359375 -1.65625 C 2.722656 -1.21875 3.238281 -1 3.90625 -1 C 4.570312 -1 5.082031 -1.21875 5.4375 -1.65625 C 5.800781 -2.09375 5.984375 -2.742188 5.984375 -3.609375 L 5.984375 -3.828125 C 5.984375 -4.679688 5.800781 -5.328125 5.4375 -5.765625 C 5.082031 -6.203125 4.570312 -6.421875 3.90625 -6.421875 C 3.238281 -6.421875 2.722656 -6.203125 2.359375 -5.765625 C 2.003906 -5.328125 1.828125 -4.679688 1.828125 -3.828125 Z M 1.828125 -3.609375 "/></g></g></g><g fill="#545454" fill-opacity="1"><g transform="translate(263.075957, 205.92885)"><g><path d="M 0.875 0 L 0.875 -7.4375 L 2.4375 -7.4375 L 5.84375 -2.25 L 6.09375 -1.84375 L 6.09375 -7.4375 L 7.40625 -7.4375 L 7.40625 0 L 5.859375 0 L 2.453125 -5.1875 L 2.1875 -5.59375 L 2.1875 0 Z M 0.875 0 "/></g></g></g><g fill="#545454" fill-opacity="1"><g transform="translate(273.752722, 205.92885)"><g/></g></g><g fill="#545454" fill-opacity="1"><g transform="translate(279.281511, 205.92885)"><g><path d="M 0.875 0 L 0.875 -7.4375 L 2.4375 -7.4375 L 5.84375 -2.25 L 6.09375 -1.84375 L 6.09375 -7.4375 L 7.40625 -7.4375 L 7.40625 0 L 5.859375 0 L 2.453125 -5.1875 L 2.1875 -5.59375 L 2.1875 0 Z M 0.875 0 "/></g></g></g><g fill="#545454" fill-opacity="1"><g transform="translate(289.958276, 205.92885)"><g><path d="M 3.90625 0.15625 C 2.789062 0.15625 1.9375 -0.164062 1.34375 -0.8125 C 0.757812 -1.457031 0.46875 -2.40625 0.46875 -3.65625 L 0.46875 -3.796875 C 0.46875 -5.035156 0.757812 -5.972656 1.34375 -6.609375 C 1.9375 -7.242188 2.789062 -7.5625 3.90625 -7.5625 C 5.007812 -7.5625 5.851562 -7.242188 6.4375 -6.609375 C 7.03125 -5.972656 7.328125 -5.035156 7.328125 -3.796875 L 7.328125 -3.65625 C 7.328125 -2.40625 7.03125 -1.457031 6.4375 -0.8125 C 5.851562 -0.164062 5.007812 0.15625 3.90625 0.15625 Z M 1.828125 -3.609375 C 1.828125 -2.742188 2.003906 -2.09375 2.359375 -1.65625 C 2.722656 -1.21875 3.238281 -1 3.90625 -1 C 4.570312 -1 5.082031 -1.21875 5.4375 -1.65625 C 5.800781 -2.09375 5.984375 -2.742188 5.984375 -3.609375 L 5.984375 -3.828125 C 5.984375 -4.679688 5.800781 -5.328125 5.4375 -5.765625 C 5.082031 -6.203125 4.570312 -6.421875 3.90625 -6.421875 C 3.238281 -6.421875 2.722656 -6.203125 2.359375 -5.765625 C 2.003906 -5.328125 1.828125 -4.679688 1.828125 -3.828125 Z M 1.828125 -3.609375 "/></g></g></g><g fill="#545454" fill-opacity="1"><g transform="translate(300.145234, 205.92885)"><g><path d="M 0.875 0 L 0.875 -7.4375 L 2.21875 -7.4375 L 2.21875 -4.34375 L 3.4375 -4.34375 L 5.203125 -7.4375 L 6.765625 -7.4375 L 4.5625 -3.828125 L 4.5625 -3.78125 L 7.09375 0 L 5.5625 0 L 3.4375 -3.25 L 2.21875 -3.25 L 2.21875 0 Z M 0.875 0 "/></g></g></g><g fill="#545454" fill-opacity="1"><g transform="translate(309.772404, 205.92885)"><g><path d="M 2.421875 0 L 2.421875 -6.3125 L 0.046875 -6.3125 L 0.046875 -7.4375 L 6.140625 -7.4375 L 6.140625 -6.3125 L 3.765625 -6.3125 L 3.765625 0 Z M 2.421875 0 "/></g></g></g><g fill="#545454" fill-opacity="1"><g transform="translate(318.34999, 205.92885)"><g><path d="M 0.109375 0 L 2.84375 -7.4375 L 4.59375 -7.4375 L 7.34375 0 L 5.90625 0 L 5.3125 -1.71875 L 2.140625 -1.71875 L 1.546875 0 Z M 2.5 -2.765625 L 4.953125 -2.765625 L 3.921875 -5.8125 L 3.734375 -6.390625 L 3.71875 -6.390625 L 3.546875 -5.8125 Z M 2.5 -2.765625 "/></g></g></g></svg>