<svg xmlns="http://www.w3.org/2000/svg" xmlns:xlink="http://www.w3.org/1999/xlink" width="500" zoomAndPan="magnify" viewBox="0 0 375 374.999991" height="500" preserveAspectRatio="xMidYMid meet" version="1.0"><defs><g/><clipPath id="27ecf531b4"><path d="M 71.464844 103.828125 L 148.820312 103.828125 L 148.820312 181.183594 L 71.464844 181.183594 Z M 71.464844 103.828125 " clip-rule="nonzero"/></clipPath><clipPath id="4ddf046596"><path d="M 148.820312 103.828125 L 226.179688 103.828125 L 226.179688 181.183594 L 148.820312 181.183594 Z M 148.820312 103.828125 " clip-rule="nonzero"/></clipPath><clipPath id="e3d97c23a2"><path d="M 226.179688 103.828125 L 303.535156 103.828125 L 303.535156 181.183594 L 226.179688 181.183594 Z M 226.179688 103.828125 " clip-rule="nonzero"/></clipPath><clipPath id="c8585ed2c1"><path d="M 85 103.828125 L 148.730469 103.828125 L 148.730469 166 L 85 166 Z M 85 103.828125 " clip-rule="nonzero"/></clipPath><clipPath id="b94e9d406c"><path d="M 84.230469 103.828125 L 148.730469 103.828125 L 148.730469 167.578125 L 84.230469 167.578125 Z M 84.230469 103.828125 " clip-rule="nonzero"/></clipPath><clipPath id="bf6e1a4497"><path d="M 124 103.828125 L 148.730469 103.828125 L 148.730469 127 L 124 127 Z M 124 103.828125 " clip-rule="nonzero"/></clipPath><clipPath id="a73deebb5b"><path d="M 161 103.828125 L 226.09375 103.828125 L 226.09375 168.328125 L 161 168.328125 Z M 161 103.828125 " clip-rule="nonzero"/></clipPath><clipPath id="32b274dfb5"><path d="M 166 103.828125 L 226.09375 103.828125 L 226.09375 162 L 166 162 Z M 166 103.828125 " clip-rule="nonzero"/></clipPath><clipPath id="51b41b9962"><path d="M 242 103.828125 L 303.402344 103.828125 L 303.402344 160 L 242 160 Z M 242 103.828125 " clip-rule="nonzero"/></clipPath><clipPath id="1449edb5a7"><path d="M 269 103.828125 L 303.402344 103.828125 L 303.402344 152 L 269 152 Z M 269 103.828125 " clip-rule="nonzero"/></clipPath><clipPath id="9f689ee954"><path d="M 250 103.828125 L 303.402344 103.828125 L 303.402344 133 L 250 133 Z M 250 103.828125 " clip-rule="nonzero"/></clipPath><clipPath id="979362260e"><path d="M 236 150 L 252 150 L 252 168.328125 L 236 168.328125 Z M 236 150 " clip-rule="nonzero"/></clipPath><clipPath id="67f5f3e497"><path d="M 263 103.828125 L 303.402344 103.828125 L 303.402344 128 L 263 128 Z M 263 103.828125 " clip-rule="nonzero"/></clipPath></defs><g clip-path="url(#27ecf531b4)"><path fill="#3583f0" d="M 71.464844 103.828125 L 148.820312 103.828125 L 148.820312 181.183594 L 71.464844 181.183594 Z M 71.464844 103.828125 " fill-opacity="1" fill-rule="nonzero"/></g><g clip-path="url(#4ddf046596)"><path fill="#2e6e4b" d="M 148.820312 103.828125 L 226.179688 103.828125 L 226.179688 181.183594 L 148.820312 181.183594 Z M 148.820312 103.828125 " fill-opacity="1" fill-rule="nonzero"/></g><g clip-path="url(#e3d97c23a2)"><path fill="#fe6e6e" d="M 226.179688 103.828125 L 303.535156 103.828125 L 303.535156 181.183594 L 226.179688 181.183594 Z M 226.179688 103.828125 " fill-opacity="1" fill-rule="nonzero"/></g><g clip-path="url(#c8585ed2c1)"><path fill="#fe6e6e" d="M 252.105469 13.324219 L 112.378906 153.050781 L 85.699219 165.828125 L 98.476562 139.148438 L 238.203125 -0.578125 Z M 252.105469 13.324219 " fill-opacity="1" fill-rule="nonzero"/></g><path fill="#231f20" d="M 87.199219 164.339844 L 100.542969 157.949219 L 93.589844 150.988281 Z M 87.199219 164.339844 " fill-opacity="1" fill-rule="nonzero"/><path fill="#f0c960" d="M 111.476562 151.957031 L 108.910156 142.628906 L 99.582031 140.0625 L 98.914062 139.875 L 94.234375 149.652344 L 101.886719 157.304688 L 111.660156 152.625 Z M 111.476562 151.957031 " fill-opacity="1" fill-rule="nonzero"/><g clip-path="url(#b94e9d406c)"><path stroke-linecap="round" transform="matrix(1.418585, 0, 0, 1.418585, 83.378327, -13.422889)" fill="none" stroke-linejoin="round" d="M 118.940421 18.854775 L 20.443309 117.351886 L 1.636061 126.358989 L 10.643163 107.55174 L 109.140275 9.054629 " stroke="#333333" stroke-width="2" stroke-opacity="1" stroke-miterlimit="10"/></g><path stroke-linecap="round" transform="matrix(1.418585, 0, 0, 1.418585, 83.378327, -13.422889)" fill="none" stroke-linejoin="round" d="M 10.714757 107.480146 L 18.40012 109.594929 L 20.514903 117.280292 " stroke="#333333" stroke-width="2" stroke-opacity="1" stroke-miterlimit="10"/><g clip-path="url(#bf6e1a4497)"><path stroke-linecap="round" transform="matrix(1.418585, 0, 0, 1.418585, 83.378327, -13.422889)" fill="none" stroke-linejoin="round" d="M 30.301281 97.699276 L 111.244043 16.75376 " stroke="#333333" stroke-width="2" stroke-opacity="1" stroke-miterlimit="10"/></g><path stroke-linecap="round" transform="matrix(1.418585, 0, 0, 1.418585, 83.378327, -13.422889)" fill="none" stroke-linejoin="round" d="M 18.40012 109.600436 L 23.27128 104.73203 " stroke="#333333" stroke-width="2" stroke-opacity="1" stroke-miterlimit="10"/><path stroke-linecap="round" transform="matrix(1.418585, 0, 0, 1.418585, 83.378327, -13.422889)" fill="none" stroke-linejoin="round" d="M 7.201134 115.201306 L 12.796497 120.796669 " stroke="#333333" stroke-width="2" stroke-opacity="1" stroke-miterlimit="10"/><g clip-path="url(#a73deebb5b)"><path fill="#f8f1e9" d="M 172.664062 139.207031 C 172.660156 139.195312 172.660156 139.183594 172.660156 139.171875 C 172.660156 139.171875 172.660156 139.171875 172.660156 139.167969 C 172.660156 139.183594 172.664062 139.195312 172.664062 139.210938 C 172.664062 139.207031 172.664062 139.207031 172.664062 139.207031 Z M 180.910156 129.195312 C 180.910156 129.183594 180.910156 129.171875 180.90625 129.164062 C 180.910156 129.171875 180.910156 129.179688 180.910156 129.1875 C 180.910156 129.191406 180.910156 129.191406 180.910156 129.195312 Z M 180.902344 129.09375 C 180.902344 129.09375 180.902344 129.097656 180.902344 129.097656 C 180.898438 129.082031 180.898438 129.066406 180.894531 129.046875 C 180.894531 129.050781 180.894531 129.054688 180.894531 129.058594 C 180.898438 129.070312 180.898438 129.082031 180.902344 129.09375 Z M 180.90625 129.15625 C 180.90625 129.152344 180.90625 129.144531 180.90625 129.136719 C 180.90625 129.144531 180.90625 129.15625 180.90625 129.164062 C 180.90625 129.160156 180.90625 129.160156 180.90625 129.15625 Z M 172.660156 139.554688 C 172.660156 139.554688 172.660156 139.558594 172.660156 139.558594 C 172.664062 139.53125 172.667969 139.5 172.667969 139.472656 C 172.667969 139.472656 172.667969 139.476562 172.667969 139.476562 C 172.667969 139.503906 172.664062 139.53125 172.660156 139.554688 Z M 172.671875 139.328125 C 172.671875 139.367188 172.671875 139.40625 172.671875 139.441406 C 172.671875 139.441406 172.671875 139.445312 172.671875 139.445312 C 172.671875 139.40625 172.671875 139.367188 172.671875 139.328125 C 172.671875 139.324219 172.671875 139.320312 172.671875 139.3125 C 172.671875 139.320312 172.671875 139.324219 172.671875 139.328125 Z M 180.886719 129 C 180.886719 129 180.886719 129.003906 180.886719 129.007812 C 180.882812 128.992188 180.882812 128.976562 180.878906 128.957031 C 180.878906 128.960938 180.878906 128.964844 180.878906 128.964844 C 180.882812 128.976562 180.882812 128.988281 180.886719 129 Z M 180.222656 128.144531 C 180.226562 128.144531 180.226562 128.144531 180.226562 128.144531 C 180.226562 128.144531 180.226562 128.144531 180.222656 128.144531 Z M 180.75 128.632812 C 180.75 128.632812 180.753906 128.632812 180.753906 128.632812 C 180.746094 128.625 180.742188 128.617188 180.738281 128.609375 C 180.738281 128.609375 180.738281 128.613281 180.742188 128.613281 C 180.742188 128.621094 180.746094 128.625 180.75 128.632812 Z M 180.226562 128.144531 C 180.230469 128.144531 180.230469 128.148438 180.234375 128.148438 C 180.230469 128.148438 180.230469 128.144531 180.226562 128.144531 Z M 180.792969 128.710938 C 180.792969 128.710938 180.792969 128.710938 180.792969 128.707031 C 180.792969 128.707031 180.792969 128.710938 180.792969 128.710938 Z M 180.789062 128.707031 C 180.789062 128.703125 180.785156 128.699219 180.785156 128.695312 C 180.785156 128.699219 180.789062 128.703125 180.792969 128.707031 C 180.789062 128.707031 180.789062 128.707031 180.789062 128.707031 Z M 180.867188 128.917969 C 180.863281 128.90625 180.863281 128.898438 180.859375 128.890625 C 180.859375 128.894531 180.863281 128.902344 180.863281 128.90625 C 180.863281 128.910156 180.867188 128.914062 180.867188 128.917969 Z M 180.859375 128.890625 C 180.859375 128.882812 180.855469 128.878906 180.855469 128.875 C 180.855469 128.875 180.855469 128.875 180.855469 128.878906 C 180.855469 128.882812 180.859375 128.886719 180.859375 128.890625 Z M 180.839844 128.824219 C 180.835938 128.8125 180.832031 128.800781 180.828125 128.789062 C 180.828125 128.792969 180.828125 128.792969 180.828125 128.792969 C 180.828125 128.800781 180.832031 128.804688 180.832031 128.8125 C 180.835938 128.816406 180.835938 128.820312 180.839844 128.824219 Z M 172.617188 139.734375 C 172.621094 139.722656 172.628906 139.710938 172.628906 139.695312 C 172.628906 139.710938 172.621094 139.722656 172.617188 139.734375 Z M 172.484375 140.035156 C 172.488281 140.035156 172.488281 140.03125 172.488281 140.027344 C 172.488281 140.03125 172.488281 140.035156 172.484375 140.035156 Z M 172.414062 138.589844 C 172.417969 138.597656 172.421875 138.601562 172.425781 138.605469 C 172.421875 138.601562 172.417969 138.597656 172.414062 138.589844 Z M 172.332031 138.5 C 172.332031 138.5 172.335938 138.503906 172.339844 138.507812 C 172.335938 138.503906 172.332031 138.5 172.332031 138.5 Z M 172.492188 138.703125 C 172.492188 138.707031 172.496094 138.710938 172.5 138.714844 C 172.496094 138.710938 172.492188 138.707031 172.492188 138.703125 Z M 172.644531 139.082031 C 172.640625 139.070312 172.636719 139.0625 172.636719 139.050781 C 172.636719 139.050781 172.636719 139.050781 172.636719 139.054688 C 172.640625 139.0625 172.640625 139.070312 172.644531 139.082031 Z M 172.644531 139.082031 C 172.644531 139.082031 172.644531 139.085938 172.644531 139.085938 C 172.644531 139.085938 172.644531 139.082031 172.644531 139.082031 Z M 172.347656 138.515625 C 172.34375 138.515625 172.34375 138.511719 172.339844 138.507812 C 172.34375 138.511719 172.34375 138.515625 172.347656 138.515625 Z M 172.5 138.714844 C 172.5 138.714844 172.5 138.71875 172.5 138.71875 C 172.5 138.71875 172.5 138.714844 172.5 138.714844 Z M 172.597656 139.800781 C 172.605469 139.777344 172.613281 139.757812 172.617188 139.734375 C 172.613281 139.757812 172.605469 139.777344 172.597656 139.796875 C 172.597656 139.800781 172.597656 139.800781 172.597656 139.800781 Z M 172.605469 138.941406 C 172.601562 138.933594 172.597656 138.929688 172.597656 138.921875 C 172.597656 138.925781 172.597656 138.925781 172.597656 138.925781 C 172.601562 138.929688 172.601562 138.933594 172.605469 138.941406 Z M 180.3125 128.1875 Z M 172.503906 140.007812 C 172.515625 139.980469 172.527344 139.957031 172.539062 139.933594 C 172.527344 139.957031 172.515625 139.980469 172.503906 140.003906 C 172.503906 140.003906 172.503906 140.003906 172.503906 140.007812 Z M 172.632812 139.679688 C 172.632812 139.679688 172.632812 139.679688 172.632812 139.683594 C 172.640625 139.652344 172.648438 139.621094 172.652344 139.589844 C 172.648438 139.621094 172.640625 139.648438 172.632812 139.679688 Z M 172.554688 139.902344 C 172.558594 139.894531 172.558594 139.890625 172.5625 139.886719 C 172.558594 139.890625 172.558594 139.894531 172.554688 139.898438 C 172.554688 139.898438 172.554688 139.898438 172.554688 139.902344 Z M 172.558594 138.832031 C 172.554688 138.824219 172.550781 138.8125 172.546875 138.804688 C 172.550781 138.8125 172.554688 138.824219 172.558594 138.832031 Z M 172.5625 139.886719 C 172.570312 139.867188 172.578125 139.847656 172.585938 139.824219 C 172.585938 139.828125 172.585938 139.828125 172.585938 139.828125 C 172.578125 139.847656 172.570312 139.867188 172.5625 139.886719 Z M 187.335938 158.117188 C 187.328125 158.441406 187.464844 158.765625 187.761719 159.023438 C 187.464844 158.765625 187.328125 158.441406 187.335938 158.117188 Z M 238.964844 95.097656 C 239.320312 95.371094 239.539062 95.539062 239.710938 95.585938 C 239.539062 95.539062 239.320312 95.371094 238.964844 95.097656 Z M 237.042969 96.78125 C 237.105469 96.835938 237.171875 96.890625 237.234375 96.945312 C 237.171875 96.890625 237.105469 96.835938 237.042969 96.78125 Z M 236.558594 95.710938 C 236.5625 95.648438 236.570312 95.585938 236.585938 95.523438 C 236.570312 95.585938 236.5625 95.648438 236.558594 95.710938 Z M 236.554688 95.777344 C 236.550781 96.113281 236.695312 96.417969 236.945312 96.683594 C 236.695312 96.417969 236.550781 96.113281 236.554688 95.777344 Z M 246.375 87.464844 C 246.277344 87.574219 246.191406 87.699219 246.101562 87.816406 C 246.191406 87.699219 246.277344 87.574219 246.375 87.464844 Z M 220.265625 116.761719 C 220.113281 116.679688 219.953125 116.628906 219.785156 116.609375 C 219.953125 116.628906 220.113281 116.679688 220.265625 116.761719 Z M 246.300781 86.941406 C 246.503906 87.089844 246.570312 87.238281 246.394531 87.441406 C 246.570312 87.238281 246.503906 87.089844 246.300781 86.941406 Z M 229.855469 108.042969 C 229.894531 108.078125 229.925781 108.113281 229.949219 108.152344 C 229.925781 108.113281 229.894531 108.078125 229.855469 108.042969 Z M 265.394531 65.199219 C 265.503906 65.300781 265.589844 65.402344 265.660156 65.503906 C 265.589844 65.402344 265.503906 65.300781 265.394531 65.199219 Z M 180.300781 128.183594 C 180.304688 128.183594 180.308594 128.1875 180.3125 128.1875 C 180.308594 128.1875 180.304688 128.183594 180.300781 128.183594 Z M 212.152344 131.179688 C 212.289062 131.171875 212.402344 131.007812 212.667969 130.65625 C 212.402344 131.007812 212.289062 131.171875 212.152344 131.179688 Z M 229.316406 104.671875 C 228.851562 104.589844 228.394531 104.765625 228.109375 105.15625 C 228.394531 104.765625 228.851562 104.589844 229.316406 104.671875 Z M 277.601562 49.21875 C 277.574219 53.394531 276.25 57.105469 273.707031 60.433594 C 272.765625 61.664062 271.882812 62.945312 270.925781 64.167969 C 268.285156 67.546875 265.636719 70.921875 262.992188 74.296875 C 261.136719 76.671875 259.285156 79.050781 257.429688 81.425781 C 255.148438 84.351562 252.863281 87.273438 250.582031 90.199219 C 248.941406 92.300781 247.300781 94.402344 245.664062 96.503906 C 243.554688 99.210938 241.445312 101.917969 239.335938 104.625 C 236.261719 108.574219 233.183594 112.527344 230.105469 116.476562 C 226.625 120.9375 223.140625 125.394531 219.660156 129.851562 C 216.878906 133.417969 214.101562 136.984375 211.320312 140.546875 C 208.140625 144.625 204.953125 148.695312 201.769531 152.769531 C 198.675781 156.738281 195.585938 160.707031 192.492188 164.675781 C 191.667969 165.734375 190.839844 166.796875 190.011719 167.855469 C 189.734375 168.210938 189.425781 168.519531 188.941406 168.5625 C 188.601562 168.589844 188.292969 168.5 188.042969 168.269531 C 186.792969 167.121094 185.398438 166.160156 184.0625 165.117188 C 180.792969 162.5625 177.503906 160.03125 174.21875 157.496094 C 170.84375 154.886719 167.460938 152.285156 164.085938 149.679688 C 163.3125 149.082031 162.550781 148.476562 161.78125 147.878906 C 160.964844 147.242188 160.859375 146.558594 161.496094 145.726562 C 162.199219 144.804688 162.9375 143.910156 163.648438 142.996094 C 166.929688 138.792969 170.210938 134.589844 173.488281 130.386719 C 176.597656 126.398438 179.703125 122.414062 182.8125 118.425781 C 186.121094 114.1875 189.433594 109.945312 192.742188 105.707031 C 195.707031 101.90625 198.671875 98.101562 201.640625 94.300781 C 205.25 89.675781 208.855469 85.050781 212.464844 80.425781 C 215.550781 76.480469 218.644531 72.542969 221.726562 68.597656 C 223.9375 65.765625 226.132812 62.917969 228.34375 60.085938 C 231.425781 56.140625 234.519531 52.203125 237.601562 48.253906 C 239.941406 45.257812 242.265625 42.25 244.601562 39.25 C 245.34375 38.300781 246.054688 37.320312 246.921875 36.480469 C 249.640625 33.839844 252.84375 32.101562 256.601562 31.496094 C 262.011719 30.621094 266.871094 31.921875 271.109375 35.390625 C 274.464844 38.140625 276.507812 41.699219 277.316406 45.964844 C 277.519531 47.039062 277.632812 48.121094 277.601562 49.21875 Z M 172.636719 139.050781 C 172.636719 139.050781 172.636719 139.050781 172.636719 139.054688 C 172.640625 139.0625 172.640625 139.070312 172.644531 139.082031 C 172.644531 139.082031 172.644531 139.085938 172.644531 139.085938 C 172.644531 139.085938 172.644531 139.082031 172.644531 139.082031 C 172.640625 139.070312 172.636719 139.0625 172.636719 139.050781 Z M 172.347656 138.515625 C 172.34375 138.515625 172.34375 138.511719 172.339844 138.507812 C 172.335938 138.503906 172.332031 138.5 172.332031 138.5 C 172.332031 138.5 172.335938 138.503906 172.339844 138.507812 C 172.34375 138.511719 172.34375 138.515625 172.347656 138.515625 Z M 172.425781 138.605469 C 172.421875 138.601562 172.417969 138.597656 172.414062 138.589844 C 172.417969 138.597656 172.421875 138.601562 172.425781 138.605469 Z M 172.488281 140.027344 C 172.488281 140.03125 172.488281 140.035156 172.484375 140.035156 C 172.488281 140.035156 172.488281 140.03125 172.488281 140.027344 Z M 172.5 138.71875 C 172.5 138.71875 172.5 138.714844 172.5 138.714844 C 172.496094 138.710938 172.492188 138.707031 172.492188 138.703125 C 172.492188 138.707031 172.496094 138.710938 172.5 138.714844 C 172.5 138.714844 172.5 138.71875 172.5 138.71875 Z M 172.539062 139.933594 C 172.527344 139.957031 172.515625 139.980469 172.503906 140.007812 C 172.503906 140.003906 172.503906 140.003906 172.503906 140.003906 C 172.515625 139.980469 172.527344 139.957031 172.539062 139.933594 Z M 172.546875 138.804688 C 172.550781 138.8125 172.554688 138.824219 172.558594 138.832031 C 172.554688 138.824219 172.550781 138.8125 172.546875 138.804688 Z M 172.585938 139.824219 C 172.578125 139.847656 172.570312 139.867188 172.5625 139.886719 C 172.558594 139.890625 172.558594 139.894531 172.554688 139.898438 C 172.554688 139.898438 172.554688 139.898438 172.554688 139.902344 C 172.558594 139.894531 172.558594 139.890625 172.5625 139.886719 C 172.570312 139.867188 172.578125 139.847656 172.585938 139.828125 C 172.585938 139.828125 172.585938 139.828125 172.585938 139.824219 Z M 172.597656 138.921875 C 172.597656 138.925781 172.597656 138.925781 172.597656 138.925781 C 172.601562 138.929688 172.601562 138.933594 172.605469 138.941406 C 172.601562 138.933594 172.597656 138.929688 172.597656 138.921875 Z M 172.628906 139.695312 C 172.628906 139.710938 172.621094 139.722656 172.617188 139.734375 C 172.613281 139.757812 172.605469 139.777344 172.597656 139.796875 C 172.597656 139.800781 172.597656 139.800781 172.597656 139.800781 C 172.605469 139.777344 172.613281 139.757812 172.617188 139.734375 C 172.621094 139.722656 172.628906 139.710938 172.628906 139.695312 Z M 172.652344 139.589844 C 172.648438 139.621094 172.640625 139.648438 172.632812 139.679688 C 172.632812 139.679688 172.632812 139.679688 172.632812 139.683594 C 172.640625 139.652344 172.648438 139.621094 172.652344 139.589844 Z M 172.660156 139.167969 C 172.660156 139.183594 172.664062 139.195312 172.664062 139.210938 C 172.664062 139.207031 172.664062 139.207031 172.664062 139.207031 C 172.660156 139.195312 172.660156 139.183594 172.660156 139.171875 C 172.660156 139.171875 172.660156 139.171875 172.660156 139.167969 Z M 172.667969 139.472656 C 172.667969 139.472656 172.667969 139.476562 172.667969 139.476562 C 172.667969 139.503906 172.664062 139.53125 172.660156 139.554688 C 172.660156 139.554688 172.660156 139.558594 172.660156 139.558594 C 172.664062 139.53125 172.667969 139.5 172.667969 139.472656 Z M 172.671875 139.328125 C 172.671875 139.324219 172.671875 139.320312 172.671875 139.3125 C 172.671875 139.320312 172.671875 139.324219 172.671875 139.328125 C 172.671875 139.367188 172.671875 139.40625 172.671875 139.441406 C 172.671875 139.441406 172.671875 139.445312 172.671875 139.445312 C 172.671875 139.40625 172.671875 139.367188 172.671875 139.328125 Z M 180.90625 129.136719 C 180.90625 129.144531 180.90625 129.15625 180.90625 129.164062 C 180.910156 129.171875 180.910156 129.179688 180.910156 129.1875 C 180.910156 129.191406 180.910156 129.191406 180.910156 129.195312 C 180.910156 129.183594 180.910156 129.171875 180.90625 129.164062 C 180.90625 129.160156 180.90625 129.160156 180.90625 129.15625 C 180.90625 129.152344 180.90625 129.144531 180.90625 129.136719 Z M 180.894531 129.046875 C 180.894531 129.050781 180.894531 129.054688 180.894531 129.058594 C 180.898438 129.070312 180.898438 129.082031 180.902344 129.09375 C 180.902344 129.09375 180.902344 129.097656 180.902344 129.097656 C 180.898438 129.082031 180.898438 129.066406 180.894531 129.046875 Z M 180.878906 128.957031 C 180.878906 128.960938 180.878906 128.964844 180.878906 128.964844 C 180.882812 128.976562 180.882812 128.988281 180.886719 129 C 180.886719 129 180.886719 129.003906 180.886719 129.007812 C 180.882812 128.992188 180.882812 128.976562 180.878906 128.957031 Z M 180.855469 128.875 C 180.855469 128.875 180.855469 128.875 180.855469 128.878906 C 180.855469 128.882812 180.859375 128.886719 180.859375 128.890625 C 180.863281 128.898438 180.863281 128.90625 180.867188 128.917969 C 180.867188 128.914062 180.863281 128.910156 180.863281 128.90625 C 180.863281 128.902344 180.859375 128.894531 180.859375 128.890625 C 180.859375 128.882812 180.855469 128.878906 180.855469 128.875 Z M 180.828125 128.789062 C 180.832031 128.800781 180.835938 128.8125 180.839844 128.824219 C 180.835938 128.820312 180.835938 128.816406 180.832031 128.8125 C 180.832031 128.804688 180.828125 128.800781 180.828125 128.792969 C 180.828125 128.792969 180.828125 128.792969 180.828125 128.789062 Z M 180.785156 128.695312 C 180.785156 128.699219 180.789062 128.703125 180.792969 128.707031 C 180.792969 128.707031 180.792969 128.710938 180.792969 128.710938 C 180.792969 128.710938 180.792969 128.710938 180.792969 128.707031 C 180.789062 128.707031 180.789062 128.707031 180.789062 128.707031 C 180.789062 128.703125 180.785156 128.699219 180.785156 128.695312 Z M 180.738281 128.609375 C 180.738281 128.609375 180.738281 128.613281 180.742188 128.613281 C 180.742188 128.621094 180.746094 128.625 180.75 128.632812 C 180.75 128.632812 180.753906 128.632812 180.753906 128.632812 C 180.746094 128.625 180.742188 128.617188 180.738281 128.609375 Z M 180.234375 128.148438 C 180.230469 128.148438 180.230469 128.144531 180.226562 128.144531 C 180.226562 128.144531 180.226562 128.144531 180.222656 128.144531 C 180.226562 128.144531 180.226562 128.144531 180.226562 128.144531 C 180.230469 128.144531 180.230469 128.148438 180.234375 128.148438 Z M 180.3125 128.1875 C 180.308594 128.1875 180.304688 128.183594 180.300781 128.183594 C 180.304688 128.183594 180.308594 128.1875 180.3125 128.1875 Z M 180.386719 128.234375 C 180.382812 128.234375 180.382812 128.234375 180.382812 128.234375 C 180.378906 128.230469 180.378906 128.230469 180.378906 128.230469 C 180.378906 128.230469 180.378906 128.230469 180.382812 128.234375 C 180.382812 128.234375 180.382812 128.234375 180.386719 128.234375 Z M 180.59375 128.417969 C 180.589844 128.414062 180.585938 128.410156 180.582031 128.402344 C 180.582031 128.40625 180.585938 128.40625 180.585938 128.40625 C 180.585938 128.40625 180.589844 128.410156 180.59375 128.414062 C 180.59375 128.414062 180.59375 128.417969 180.59375 128.417969 Z M 180.65625 128.488281 C 180.648438 128.480469 180.644531 128.472656 180.640625 128.46875 C 180.644531 128.472656 180.648438 128.480469 180.652344 128.484375 C 180.652344 128.488281 180.652344 128.488281 180.65625 128.488281 Z M 180.703125 128.554688 C 180.703125 128.554688 180.707031 128.558594 180.707031 128.558594 C 180.703125 128.554688 180.703125 128.554688 180.703125 128.554688 C 180.699219 128.546875 180.695312 128.542969 180.691406 128.535156 C 180.691406 128.535156 180.691406 128.539062 180.691406 128.539062 C 180.695312 128.542969 180.699219 128.550781 180.703125 128.554688 Z M 180.910156 129.285156 C 180.914062 129.261719 180.910156 129.238281 180.910156 129.214844 C 180.910156 129.238281 180.910156 129.261719 180.910156 129.285156 C 180.917969 129.550781 180.835938 129.78125 180.707031 129.996094 C 180.835938 129.78125 180.917969 129.550781 180.910156 129.285156 Z M 197.246094 144.664062 C 197.246094 144.707031 197.246094 144.75 197.25 144.792969 C 197.253906 144.828125 197.257812 144.867188 197.265625 144.90625 C 197.3125 145.167969 197.449219 145.425781 197.683594 145.644531 C 197.738281 145.695312 197.796875 145.746094 197.851562 145.796875 C 197.796875 145.746094 197.738281 145.695312 197.683594 145.644531 C 197.449219 145.425781 197.3125 145.167969 197.265625 144.90625 C 197.257812 144.867188 197.253906 144.828125 197.25 144.792969 C 197.246094 144.75 197.246094 144.707031 197.246094 144.664062 Z M 196.023438 151.984375 C 197.121094 150.578125 198.214844 149.175781 199.3125 147.769531 C 199.328125 147.746094 199.34375 147.726562 199.359375 147.703125 C 199.34375 147.726562 199.328125 147.746094 199.3125 147.769531 C 198.214844 149.175781 197.121094 150.578125 196.023438 151.984375 Z M 190.945312 158.273438 C 190.945312 158.273438 190.941406 158.273438 190.941406 158.273438 C 190.941406 158.273438 190.945312 158.273438 190.945312 158.273438 Z M 187.410156 157.738281 C 187.429688 157.6875 187.453125 157.636719 187.476562 157.585938 C 187.453125 157.636719 187.429688 157.6875 187.410156 157.738281 Z M 188.785156 159.875 C 188.4375 159.597656 188.097656 159.3125 187.761719 159.023438 C 187.464844 158.765625 187.328125 158.441406 187.335938 158.117188 C 187.328125 158.441406 187.464844 158.765625 187.761719 159.023438 C 188.097656 159.3125 188.4375 159.597656 188.785156 159.875 Z M 190.1875 157.773438 C 190.019531 157.648438 189.855469 157.523438 189.6875 157.394531 C 189.539062 157.285156 189.390625 157.167969 189.226562 157.082031 C 188.617188 156.761719 187.988281 156.886719 187.605469 157.390625 C 187.558594 157.449219 187.515625 157.511719 187.480469 157.578125 C 187.515625 157.511719 187.558594 157.449219 187.605469 157.390625 C 187.988281 156.886719 188.617188 156.761719 189.226562 157.082031 C 189.390625 157.167969 189.539062 157.285156 189.6875 157.394531 C 189.855469 157.523438 190.019531 157.648438 190.1875 157.773438 Z M 190.703125 161.328125 C 190.667969 161.308594 190.636719 161.289062 190.601562 161.269531 C 190.636719 161.289062 190.667969 161.308594 190.703125 161.328125 Z M 191.386719 161.433594 C 191.332031 161.441406 191.273438 161.449219 191.21875 161.449219 C 191.070312 161.453125 190.925781 161.425781 190.78125 161.367188 C 190.761719 161.355469 190.742188 161.347656 190.722656 161.335938 C 190.742188 161.347656 190.761719 161.355469 190.78125 161.367188 C 190.925781 161.425781 191.070312 161.453125 191.21875 161.449219 C 191.273438 161.449219 191.332031 161.441406 191.386719 161.433594 Z M 200.546875 150.273438 C 197.875 153.699219 195.203125 157.125 192.53125 160.546875 C 192.472656 160.621094 192.414062 160.699219 192.351562 160.769531 C 192.414062 160.699219 192.472656 160.621094 192.53125 160.546875 C 195.203125 157.125 197.875 153.699219 200.546875 150.273438 Z M 209.496094 129.550781 Z M 209.0625 129.613281 C 209.046875 129.617188 209.035156 129.625 209.023438 129.628906 C 209.035156 129.625 209.046875 129.617188 209.0625 129.613281 Z M 208.976562 131.992188 C 209.054688 132.054688 209.128906 132.117188 209.207031 132.175781 C 209.378906 132.3125 209.550781 132.453125 209.726562 132.589844 C 209.550781 132.453125 209.378906 132.3125 209.207031 132.175781 C 209.128906 132.117188 209.054688 132.054688 208.976562 131.992188 Z M 208.226562 130.78125 C 208.226562 130.832031 208.230469 130.882812 208.238281 130.933594 C 208.246094 130.984375 208.257812 131.035156 208.269531 131.085938 C 208.277344 131.109375 208.285156 131.136719 208.296875 131.160156 C 208.34375 131.296875 208.417969 131.429688 208.519531 131.558594 C 208.417969 131.429688 208.34375 131.296875 208.296875 131.160156 C 208.285156 131.136719 208.277344 131.109375 208.269531 131.085938 C 208.257812 131.035156 208.246094 130.984375 208.238281 130.933594 C 208.230469 130.882812 208.226562 130.832031 208.226562 130.78125 C 208.222656 130.5 208.320312 130.222656 208.523438 129.980469 C 208.617188 129.867188 208.734375 129.769531 208.863281 129.699219 C 208.734375 129.769531 208.617188 129.867188 208.523438 129.980469 C 208.320312 130.222656 208.222656 130.5 208.226562 130.78125 Z M 208.628906 131.683594 C 208.628906 131.683594 208.625 131.683594 208.625 131.679688 C 208.625 131.683594 208.628906 131.683594 208.628906 131.683594 Z M 209.730469 134.417969 C 209.457031 134.769531 209.183594 135.121094 208.910156 135.46875 C 207.703125 137.015625 206.496094 138.558594 205.289062 140.105469 C 206.496094 138.558594 207.703125 137.015625 208.910156 135.46875 C 209.183594 135.121094 209.457031 134.769531 209.730469 134.417969 Z M 210.492188 133.300781 C 210.492188 133.316406 210.492188 133.328125 210.492188 133.34375 C 210.492188 133.371094 210.484375 133.398438 210.472656 133.429688 C 210.484375 133.398438 210.492188 133.371094 210.492188 133.34375 C 210.492188 133.328125 210.492188 133.316406 210.492188 133.300781 Z M 210.570312 130.050781 C 210.4375 129.949219 210.304688 129.851562 210.164062 129.765625 C 210.03125 129.679688 209.890625 129.625 209.753906 129.589844 C 209.890625 129.625 210.03125 129.679688 210.164062 129.765625 C 210.304688 129.851562 210.4375 129.949219 210.570312 130.050781 Z M 211.683594 130.90625 C 211.574219 130.824219 211.441406 130.71875 211.277344 130.601562 C 211.261719 130.589844 211.25 130.582031 211.234375 130.570312 C 211.25 130.582031 211.261719 130.589844 211.277344 130.601562 C 211.441406 130.71875 211.574219 130.824219 211.683594 130.90625 Z M 216.839844 125.320312 C 215.523438 127.007812 214.207031 128.695312 212.882812 130.378906 C 212.804688 130.480469 212.730469 130.574219 212.667969 130.65625 C 212.402344 131.007812 212.289062 131.171875 212.152344 131.179688 C 212.070312 131.183594 211.984375 131.136719 211.855469 131.039062 C 211.84375 131.03125 211.828125 131.019531 211.816406 131.011719 C 211.828125 131.019531 211.84375 131.03125 211.855469 131.039062 C 211.984375 131.136719 212.070312 131.183594 212.152344 131.179688 C 212.289062 131.171875 212.402344 131.007812 212.667969 130.65625 C 212.730469 130.574219 212.804688 130.480469 212.882812 130.378906 C 214.207031 128.695312 215.523438 127.007812 216.839844 125.320312 Z M 218.996094 116.761719 C 218.5625 117.003906 218.339844 117.484375 218.402344 117.960938 C 218.339844 117.484375 218.5625 117.003906 218.996094 116.761719 Z M 219.234375 116.660156 C 219.179688 116.679688 219.125 116.699219 219.074219 116.722656 C 219.125 116.699219 219.179688 116.679688 219.234375 116.660156 Z M 220.039062 119.734375 C 219.878906 119.609375 219.71875 119.492188 219.558594 119.371094 C 219.453125 119.289062 219.34375 119.207031 219.242188 119.125 C 219.34375 119.207031 219.453125 119.289062 219.558594 119.371094 C 219.71875 119.492188 219.878906 119.609375 220.039062 119.734375 Z M 221.4375 117.640625 C 221.125 117.398438 220.8125 117.15625 220.5 116.914062 C 220.445312 116.871094 220.390625 116.832031 220.332031 116.800781 C 220.3125 116.785156 220.289062 116.773438 220.265625 116.761719 C 220.113281 116.679688 219.953125 116.628906 219.785156 116.609375 C 219.953125 116.628906 220.113281 116.679688 220.265625 116.761719 C 220.289062 116.773438 220.3125 116.785156 220.332031 116.800781 C 220.390625 116.832031 220.445312 116.871094 220.5 116.914062 C 220.8125 117.15625 221.125 117.398438 221.4375 117.640625 Z M 255.894531 49.199219 C 255.929688 51.5625 257.777344 52.933594 259.664062 52.945312 C 261.339844 52.953125 263.503906 51.539062 263.390625 49.175781 C 263.382812 47.070312 261.742188 45.433594 259.632812 45.433594 C 257.796875 45.429688 255.859375 46.863281 255.894531 49.199219 Z M 262.707031 66.34375 C 262.683594 66.25 262.613281 66.160156 262.46875 66.066406 C 262.28125 65.945312 262.101562 65.804688 261.929688 65.65625 C 262.101562 65.804688 262.28125 65.945312 262.46875 66.066406 C 262.613281 66.160156 262.683594 66.25 262.707031 66.34375 Z M 261.570312 63.804688 C 261.671875 63.671875 261.789062 63.566406 261.917969 63.484375 C 261.789062 63.566406 261.671875 63.671875 261.570312 63.804688 C 261.277344 64.1875 261.246094 64.671875 261.464844 65.101562 C 261.246094 64.671875 261.277344 64.1875 261.570312 63.804688 Z M 256.828125 74.0625 C 256.847656 74.035156 256.871094 74.011719 256.894531 73.980469 C 256.871094 74.011719 256.847656 74.035156 256.828125 74.0625 Z M 256.308594 74.148438 C 256.261719 74.117188 256.210938 74.082031 256.152344 74.035156 C 256.210938 74.082031 256.261719 74.117188 256.308594 74.148438 C 256.511719 74.289062 256.605469 74.296875 256.746094 74.15625 C 256.605469 74.296875 256.511719 74.289062 256.308594 74.148438 Z M 255.71875 73.6875 C 255.75 73.714844 255.785156 73.742188 255.816406 73.769531 C 255.785156 73.742188 255.75 73.714844 255.71875 73.6875 Z M 254 73.398438 C 254.28125 73.230469 254.628906 73.183594 254.972656 73.273438 C 254.628906 73.183594 254.28125 73.230469 254 73.398438 Z M 253.40625 74.496094 C 253.402344 74.453125 253.40625 74.410156 253.40625 74.371094 C 253.40625 74.410156 253.402344 74.453125 253.40625 74.496094 Z M 252.339844 79.816406 C 253.113281 78.824219 253.886719 77.832031 254.65625 76.839844 C 255.039062 76.347656 255.035156 76.34375 254.558594 75.972656 C 254.46875 75.902344 254.378906 75.835938 254.285156 75.769531 C 254.378906 75.835938 254.46875 75.902344 254.558594 75.972656 C 255.035156 76.34375 255.039062 76.347656 254.65625 76.839844 C 253.886719 77.832031 253.113281 78.824219 252.339844 79.816406 Z M 248.410156 84.855469 C 248.335938 84.945312 248.277344 85.003906 248.222656 85.039062 C 248.277344 85.003906 248.335938 84.945312 248.410156 84.855469 Z M 244.953125 85.84375 C 244.992188 85.886719 245.03125 85.929688 245.074219 85.96875 C 245.03125 85.929688 244.992188 85.886719 244.953125 85.84375 C 244.546875 85.367188 244.535156 84.710938 244.910156 84.242188 C 245.261719 83.808594 245.886719 83.667969 246.425781 83.925781 C 246.871094 84.136719 247.210938 84.496094 247.605469 84.785156 C 247.652344 84.820312 247.695312 84.851562 247.734375 84.878906 C 247.695312 84.851562 247.652344 84.820312 247.605469 84.785156 C 247.210938 84.496094 246.871094 84.136719 246.425781 83.925781 C 245.886719 83.667969 245.261719 83.808594 244.910156 84.242188 C 244.535156 84.710938 244.546875 85.367188 244.953125 85.84375 Z M 246.394531 87.441406 C 246.570312 87.238281 246.503906 87.089844 246.300781 86.941406 C 246.101562 86.800781 245.910156 86.652344 245.714844 86.5 C 245.910156 86.652344 246.101562 86.800781 246.300781 86.941406 C 246.503906 87.089844 246.570312 87.238281 246.394531 87.441406 Z M 246.101562 87.816406 C 246.191406 87.699219 246.277344 87.574219 246.375 87.464844 C 246.277344 87.574219 246.191406 87.699219 246.101562 87.816406 Z M 240.148438 95.417969 C 240.261719 95.304688 240.390625 95.140625 240.558594 94.921875 C 242.21875 92.796875 243.878906 90.667969 245.539062 88.542969 C 243.878906 90.667969 242.21875 92.796875 240.558594 94.921875 C 240.390625 95.140625 240.261719 95.304688 240.148438 95.417969 Z M 239.753906 95.597656 C 239.761719 95.597656 239.769531 95.597656 239.773438 95.601562 C 239.769531 95.597656 239.761719 95.597656 239.753906 95.597656 Z M 238.769531 94.949219 C 238.832031 95 238.898438 95.046875 238.964844 95.097656 C 239.320312 95.371094 239.539062 95.539062 239.710938 95.585938 C 239.539062 95.539062 239.320312 95.371094 238.964844 95.097656 C 238.898438 95.046875 238.832031 95 238.769531 94.949219 Z M 237.042969 96.78125 C 237.105469 96.835938 237.171875 96.890625 237.234375 96.945312 C 237.171875 96.890625 237.105469 96.835938 237.042969 96.78125 Z M 236.554688 95.777344 C 236.550781 96.113281 236.695312 96.417969 236.945312 96.683594 C 236.695312 96.417969 236.550781 96.113281 236.554688 95.777344 C 236.554688 95.753906 236.554688 95.730469 236.558594 95.710938 C 236.5625 95.648438 236.570312 95.585938 236.585938 95.523438 C 236.570312 95.585938 236.5625 95.648438 236.558594 95.710938 C 236.554688 95.730469 236.554688 95.753906 236.554688 95.777344 Z M 232.394531 105.386719 C 232.382812 105.40625 232.375 105.421875 232.363281 105.4375 C 232.375 105.421875 232.382812 105.40625 232.394531 105.386719 Z M 230.886719 105.671875 C 230.886719 105.671875 230.890625 105.675781 230.890625 105.675781 C 230.890625 105.675781 230.886719 105.671875 230.886719 105.671875 Z M 229.984375 104.972656 C 230.019531 105 230.058594 105.027344 230.09375 105.054688 C 230.058594 105.027344 230.019531 105 229.984375 104.972656 Z M 229.984375 108.226562 C 229.988281 108.242188 229.996094 108.261719 229.996094 108.28125 C 229.996094 108.261719 229.988281 108.242188 229.984375 108.226562 Z M 229.855469 108.042969 C 229.894531 108.078125 229.925781 108.113281 229.949219 108.152344 C 229.925781 108.113281 229.894531 108.078125 229.855469 108.042969 Z M 229.761719 107.964844 C 229.796875 107.988281 229.828125 108.015625 229.855469 108.042969 C 229.828125 108.015625 229.796875 107.988281 229.761719 107.964844 C 229.386719 107.691406 229.019531 107.40625 228.660156 107.113281 C 228.613281 107.074219 228.570312 107.039062 228.523438 107 C 228.570312 107.039062 228.613281 107.074219 228.660156 107.113281 C 229.019531 107.40625 229.386719 107.691406 229.761719 107.964844 Z M 229.136719 109.550781 C 229.277344 109.371094 229.421875 109.191406 229.5625 109.011719 C 229.421875 109.191406 229.277344 109.371094 229.136719 109.550781 Z M 229.6875 104.796875 C 229.722656 104.8125 229.753906 104.832031 229.789062 104.847656 C 229.753906 104.832031 229.722656 104.8125 229.6875 104.796875 Z M 227.949219 105.449219 C 227.988281 105.347656 228.039062 105.246094 228.109375 105.15625 C 228.394531 104.765625 228.851562 104.589844 229.316406 104.671875 C 228.851562 104.589844 228.394531 104.765625 228.109375 105.15625 C 228.039062 105.246094 227.988281 105.347656 227.949219 105.449219 Z M 228.113281 106.582031 C 228.226562 106.726562 228.363281 106.859375 228.503906 106.980469 C 228.363281 106.859375 228.226562 106.726562 228.113281 106.582031 Z M 227.867188 105.867188 C 227.867188 105.867188 227.867188 105.863281 227.867188 105.863281 C 227.867188 105.863281 227.867188 105.867188 227.867188 105.867188 Z M 225.933594 113.664062 C 224.851562 115.046875 223.773438 116.429688 222.695312 117.8125 C 222.476562 118.089844 222.378906 118.210938 222.25 118.195312 C 222.378906 118.210938 222.476562 118.089844 222.695312 117.8125 C 223.773438 116.429688 224.851562 115.046875 225.933594 113.664062 Z M 263.851562 69.160156 C 263.824219 69.195312 263.792969 69.230469 263.765625 69.269531 C 259.355469 74.921875 254.941406 80.574219 250.527344 86.226562 C 245.300781 92.921875 240.074219 99.617188 234.847656 106.3125 C 231.875 110.121094 228.90625 113.929688 225.933594 117.738281 C 228.90625 113.929688 231.875 110.121094 234.847656 106.3125 C 240.074219 99.617188 245.300781 92.921875 250.527344 86.226562 C 254.941406 80.574219 259.355469 74.921875 263.765625 69.269531 C 263.792969 69.230469 263.824219 69.195312 263.851562 69.160156 Z M 264.839844 64.710938 C 264.335938 64.289062 263.804688 63.898438 263.253906 63.535156 C 263.105469 63.4375 262.949219 63.371094 262.792969 63.335938 C 262.949219 63.371094 263.105469 63.4375 263.253906 63.535156 C 263.804688 63.898438 264.335938 64.289062 264.839844 64.710938 Z M 265.660156 65.503906 C 265.589844 65.402344 265.503906 65.300781 265.394531 65.199219 C 265.242188 65.058594 265.085938 64.917969 264.925781 64.785156 C 265.085938 64.917969 265.242188 65.058594 265.394531 65.199219 C 265.503906 65.300781 265.589844 65.402344 265.660156 65.503906 Z M 228.503906 106.980469 C 228.363281 106.859375 228.226562 106.726562 228.113281 106.582031 C 228.226562 106.726562 228.363281 106.859375 228.503906 106.980469 Z M 264.839844 64.710938 C 264.335938 64.289062 263.804688 63.898438 263.253906 63.535156 C 263.804688 63.898438 264.335938 64.289062 264.839844 64.710938 Z M 222.25 118.195312 C 222.378906 118.210938 222.476562 118.089844 222.695312 117.8125 C 222.476562 118.089844 222.378906 118.210938 222.25 118.195312 Z M 265.394531 65.199219 C 265.242188 65.058594 265.085938 64.917969 264.925781 64.785156 C 265.085938 64.917969 265.242188 65.058594 265.394531 65.199219 Z M 180.691406 128.539062 C 180.695312 128.542969 180.699219 128.550781 180.703125 128.554688 C 180.699219 128.546875 180.695312 128.542969 180.691406 128.535156 C 180.691406 128.535156 180.691406 128.539062 180.691406 128.539062 Z M 216.839844 125.320312 C 215.523438 127.007812 214.207031 128.695312 212.882812 130.378906 C 214.207031 128.695312 215.523438 127.007812 216.839844 125.320312 Z M 180.707031 128.558594 C 180.707031 128.558594 180.703125 128.554688 180.703125 128.554688 C 180.703125 128.554688 180.703125 128.554688 180.707031 128.558594 Z M 180.378906 128.230469 C 180.378906 128.230469 180.378906 128.230469 180.382812 128.234375 C 180.378906 128.230469 180.378906 128.230469 180.378906 128.230469 Z M 180.585938 128.40625 C 180.585938 128.40625 180.589844 128.410156 180.59375 128.414062 C 180.59375 128.414062 180.59375 128.417969 180.59375 128.417969 C 180.589844 128.414062 180.585938 128.410156 180.582031 128.402344 C 180.582031 128.40625 180.585938 128.40625 180.585938 128.40625 Z M 180.386719 128.234375 C 180.382812 128.234375 180.382812 128.234375 180.382812 128.234375 C 180.382812 128.234375 180.382812 128.234375 180.386719 128.234375 Z M 180.910156 129.285156 C 180.917969 129.550781 180.835938 129.78125 180.707031 129.996094 C 180.835938 129.78125 180.917969 129.550781 180.910156 129.285156 C 180.914062 129.261719 180.910156 129.238281 180.910156 129.214844 C 180.910156 129.238281 180.910156 129.261719 180.910156 129.285156 Z M 180.640625 128.46875 C 180.644531 128.472656 180.648438 128.480469 180.652344 128.484375 C 180.652344 128.488281 180.652344 128.488281 180.65625 128.488281 C 180.648438 128.480469 180.644531 128.472656 180.640625 128.46875 Z M 208.863281 129.699219 C 208.734375 129.769531 208.617188 129.867188 208.523438 129.980469 C 208.617188 129.867188 208.734375 129.769531 208.863281 129.699219 Z M 210.570312 130.050781 C 210.4375 129.949219 210.304688 129.851562 210.164062 129.765625 C 210.304688 129.851562 210.4375 129.949219 210.570312 130.050781 Z M 211.683594 130.90625 C 211.574219 130.824219 211.441406 130.71875 211.277344 130.601562 C 211.441406 130.71875 211.574219 130.824219 211.683594 130.90625 Z M 191.21875 161.449219 C 191.070312 161.453125 190.925781 161.425781 190.78125 161.367188 C 190.925781 161.425781 191.070312 161.453125 191.21875 161.449219 Z M 187.410156 157.738281 C 187.429688 157.6875 187.453125 157.636719 187.476562 157.585938 C 187.453125 157.636719 187.429688 157.6875 187.410156 157.738281 Z M 188.785156 159.875 C 188.4375 159.597656 188.097656 159.3125 187.761719 159.023438 C 188.097656 159.3125 188.4375 159.597656 188.785156 159.875 Z M 197.265625 144.90625 C 197.3125 145.167969 197.449219 145.425781 197.683594 145.644531 C 197.449219 145.425781 197.3125 145.167969 197.265625 144.90625 Z M 197.265625 144.90625 " fill-opacity="1" fill-rule="nonzero"/></g><g clip-path="url(#32b274dfb5)"><path fill="#231f20" d="M 237.824219 94.542969 C 238.070312 94.535156 238.335938 94.601562 238.570312 94.773438 C 238.703125 94.871094 238.832031 94.964844 238.960938 95.066406 C 239.871094 95.765625 239.871094 95.765625 240.558594 94.890625 C 242.398438 92.53125 244.242188 90.167969 246.082031 87.808594 C 246.183594 87.679688 246.269531 87.542969 246.378906 87.421875 C 246.570312 87.210938 246.503906 87.0625 246.296875 86.910156 C 246.015625 86.707031 245.738281 86.496094 245.46875 86.277344 C 245.289062 86.132812 245.101562 85.988281 244.953125 85.8125 C 244.542969 85.335938 244.535156 84.679688 244.910156 84.210938 C 245.261719 83.777344 245.886719 83.636719 246.421875 83.890625 C 246.867188 84.101562 247.207031 84.464844 247.601562 84.753906 C 248.144531 85.148438 248.148438 85.160156 248.535156 84.664062 C 250.578125 82.046875 252.617188 79.425781 254.65625 76.808594 C 255.035156 76.316406 255.03125 76.3125 254.554688 75.941406 C 254.335938 75.769531 254.101562 75.621094 253.894531 75.433594 C 253.339844 74.9375 253.25 74.234375 253.648438 73.683594 C 254.035156 73.15625 254.769531 73.039062 255.394531 73.425781 C 255.632812 73.570312 255.835938 73.765625 256.058594 73.933594 C 256.585938 74.335938 256.589844 74.339844 256.976562 73.84375 C 258.289062 72.160156 259.601562 70.476562 260.914062 68.792969 C 261.457031 68.097656 261.992188 67.394531 262.546875 66.710938 C 262.765625 66.4375 262.78125 66.242188 262.46875 66.035156 C 262.214844 65.871094 261.980469 65.679688 261.761719 65.46875 C 261.25 64.976562 261.179688 64.285156 261.570312 63.769531 C 261.964844 63.25 262.652344 63.109375 263.25 63.503906 C 264.007812 64 264.730469 64.550781 265.390625 65.167969 C 265.964844 65.699219 266 66.292969 265.503906 66.976562 C 264.945312 67.746094 264.347656 68.488281 263.761719 69.238281 C 259.351562 74.890625 254.9375 80.542969 250.527344 86.195312 C 245.296875 92.890625 240.070312 99.585938 234.84375 106.28125 C 230.203125 112.226562 225.566406 118.175781 220.925781 124.121094 C 215.671875 130.855469 210.414062 137.589844 205.160156 144.320312 C 200.949219 149.71875 196.742188 155.117188 192.527344 160.515625 C 192.371094 160.714844 192.210938 160.917969 192.019531 161.085938 C 191.578125 161.46875 191.003906 161.542969 190.539062 161.195312 C 189.589844 160.492188 188.652344 159.765625 187.757812 158.992188 C 187.230469 158.535156 187.214844 157.863281 187.601562 157.355469 C 187.984375 156.855469 188.617188 156.730469 189.222656 157.050781 C 189.386719 157.136719 189.535156 157.253906 189.683594 157.363281 C 190 157.601562 190.316406 157.835938 190.617188 158.089844 C 190.890625 158.324219 191.085938 158.285156 191.300781 158.003906 C 191.992188 157.097656 192.699219 156.207031 193.398438 155.3125 C 195.371094 152.789062 197.339844 150.261719 199.308594 147.738281 C 199.703125 147.230469 199.695312 147.226562 199.199219 146.832031 C 198.6875 146.425781 198.152344 146.054688 197.679688 145.613281 C 197.035156 145.007812 197.117188 144.078125 197.828125 143.644531 C 198.339844 143.324219 198.855469 143.414062 199.324219 143.757812 C 199.792969 144.097656 200.242188 144.464844 200.707031 144.8125 C 201.242188 145.210938 201.207031 145.3125 201.671875 144.714844 C 204.074219 141.617188 206.496094 138.53125 208.910156 135.4375 C 209.378906 134.835938 209.84375 134.226562 210.328125 133.632812 C 210.550781 133.359375 210.5625 133.164062 210.253906 132.949219 C 209.894531 132.699219 209.550781 132.417969 209.207031 132.144531 C 209.003906 131.988281 208.800781 131.832031 208.625 131.648438 C 208.125 131.132812 208.09375 130.464844 208.519531 129.949219 C 208.90625 129.484375 209.59375 129.375 210.164062 129.734375 C 210.554688 129.980469 210.898438 130.296875 211.273438 130.570312 C 212.328125 131.332031 212.035156 131.421875 212.882812 130.347656 C 215.332031 127.226562 217.773438 124.09375 220.207031 120.957031 C 220.746094 120.261719 220.925781 120.398438 220.035156 119.703125 C 219.617188 119.371094 219.164062 119.074219 218.789062 118.699219 C 218.066406 117.980469 218.371094 116.828125 219.320312 116.605469 C 219.753906 116.503906 220.148438 116.613281 220.5 116.882812 C 220.941406 117.222656 221.375 117.570312 221.820312 117.90625 C 222.296875 118.269531 222.308594 118.273438 222.691406 117.78125 C 224.550781 115.40625 226.402344 113.027344 228.257812 110.648438 C 228.785156 109.96875 229.308594 109.285156 229.847656 108.617188 C 230.070312 108.339844 230.046875 108.140625 229.757812 107.933594 C 229.382812 107.660156 229.015625 107.375 228.65625 107.082031 C 228.460938 106.921875 228.261719 106.75 228.113281 106.546875 C 227.777344 106.105469 227.789062 105.554688 228.105469 105.125 C 228.4375 104.671875 228.992188 104.507812 229.53125 104.699219 C 229.957031 104.851562 230.261719 105.1875 230.628906 105.425781 C 230.988281 105.660156 231.265625 106.183594 231.703125 106.097656 C 232.082031 106.019531 232.257812 105.507812 232.515625 105.183594 C 234.320312 102.882812 236.117188 100.574219 237.917969 98.269531 C 238.316406 97.753906 238.3125 97.75 237.808594 97.351562 C 237.515625 97.121094 237.199219 96.917969 236.945312 96.652344 C 236.585938 96.277344 236.445312 95.816406 236.644531 95.304688 C 236.832031 94.824219 237.253906 94.546875 237.824219 94.542969 Z M 188.5 117.121094 C 187.894531 117.074219 187.503906 117.410156 187.160156 117.847656 C 185.878906 119.496094 184.597656 121.140625 183.3125 122.785156 C 183.15625 122.988281 183.011719 123.199219 182.929688 123.445312 C 182.757812 123.960938 182.917969 124.511719 183.324219 124.824219 C 183.734375 125.136719 184.308594 125.160156 184.753906 124.855469 C 184.90625 124.753906 185.050781 124.628906 185.164062 124.484375 C 186.539062 122.734375 187.910156 120.976562 189.277344 119.222656 C 189.480469 118.960938 189.601562 118.660156 189.621094 118.359375 C 189.625 117.710938 189.117188 117.167969 188.5 117.121094 Z M 179.109375 128.160156 C 178.898438 128.269531 178.730469 128.433594 178.589844 128.617188 C 177.363281 130.183594 176.136719 131.757812 174.914062 133.328125 C 174.773438 133.515625 174.660156 133.714844 174.609375 133.945312 C 174.488281 134.457031 174.65625 134.945312 175.0625 135.242188 C 175.472656 135.542969 175.992188 135.566406 176.429688 135.273438 C 176.621094 135.144531 176.792969 134.980469 176.933594 134.800781 C 178.152344 133.253906 179.363281 131.699219 180.574219 130.148438 C 180.78125 129.886719 180.917969 129.597656 180.910156 129.253906 C 180.925781 128.289062 179.957031 127.699219 179.109375 128.160156 Z M 171.816406 138.15625 C 171.195312 137.964844 170.730469 138.222656 170.355469 138.6875 C 169.84375 139.316406 169.351562 139.957031 168.855469 140.597656 C 168.242188 141.382812 167.621094 142.160156 167.03125 142.960938 C 166.488281 143.691406 166.652344 144.5625 167.367188 144.925781 C 167.90625 145.203125 168.527344 145.082031 168.976562 144.515625 C 170.121094 143.089844 171.230469 141.636719 172.351562 140.195312 C 172.554688 139.933594 172.683594 139.636719 172.667969 139.296875 C 172.660156 138.761719 172.328125 138.316406 171.816406 138.15625 Z M 171.816406 138.15625 " fill-opacity="1" fill-rule="nonzero"/></g><g clip-path="url(#51b41b9962)"><path fill="#ffcae2" d="M 251.671875 131.15625 L 350.828125 32 L 370.101562 51.273438 L 270.945312 150.429688 L 250.816406 159.214844 L 242.886719 151.285156 Z M 251.671875 131.15625 " fill-opacity="1" fill-rule="nonzero"/></g><path fill="#f8f1e9" d="M 241.164062 167.363281 L 237.332031 158.34375 L 243.640625 152.035156 L 250.066406 158.460938 Z M 241.164062 167.363281 " fill-opacity="1" fill-rule="nonzero"/><g clip-path="url(#1449edb5a7)"><path stroke-linecap="round" transform="matrix(1.151021, 0, 0, 1.151021, 233.883973, 22.183164)" fill="none" stroke-linejoin="round" d="M 118.341598 25.273448 L 32.191873 111.41978 " stroke="#333333" stroke-width="2" stroke-opacity="1" stroke-miterlimit="10"/></g><g clip-path="url(#9f689ee954)"><path stroke-linecap="round" transform="matrix(1.151021, 0, 0, 1.151021, 233.883973, 22.183164)" fill="none" stroke-linejoin="round" d="M 15.454018 94.675138 L 101.60035 8.528806 " stroke="#333333" stroke-width="2" stroke-opacity="1" stroke-miterlimit="10"/></g><g clip-path="url(#979362260e)"><path stroke-linecap="round" transform="matrix(1.151021, 0, 0, 1.151021, 233.883973, 22.183164)" fill="none" stroke-linejoin="round" d="M 6.324896 126.13158 L 2.995651 118.295468 L 8.476518 112.814601 L 14.059197 118.39728 Z M 6.324896 126.13158 " stroke="#333333" stroke-width="2" stroke-opacity="1" stroke-miterlimit="10"/></g><path stroke-linecap="round" transform="matrix(1.151021, 0, 0, 1.151021, 233.883973, 22.183164)" fill="none" stroke-linejoin="round" d="M 28.041347 107.269253 L 15.454018 94.678531 L 7.821529 112.166399 L 14.710792 119.055662 L 32.19866 111.426567 " stroke="#333333" stroke-width="2" stroke-opacity="1" stroke-miterlimit="10"/><g clip-path="url(#67f5f3e497)"><path stroke-linecap="round" transform="matrix(1.151021, 0, 0, 1.151021, 233.883973, 22.183164)" fill="none" stroke-linejoin="round" d="M 91.22573 27.272353 L 92.623945 28.670568 C 94.157909 30.204532 94.157909 32.715889 92.623945 34.253246 L 37.720252 89.153546 C 36.182894 90.68751 33.674931 90.68751 32.137573 89.153546 L 26.558288 83.570867 " stroke="#333333" stroke-width="2" stroke-opacity="1" stroke-miterlimit="10"/></g><g fill="#231f20" fill-opacity="1"><g transform="translate(41.711565, 235.602114)"><g><path d="M 1.375 0 L 1.375 -39.4375 L 7.265625 -39.4375 L 7.265625 -5.40625 L 13.09375 -5.40625 L 13.09375 0 Z M 1.375 0 "/></g></g></g><g fill="#231f20" fill-opacity="1"><g transform="translate(54.694577, 235.602114)"><g><path d="M 8.796875 0.578125 C 6.253906 0.578125 4.328125 -0.171875 3.015625 -1.671875 C 1.710938 -3.171875 1.0625 -5.367188 1.0625 -8.265625 L 1.0625 -31.15625 C 1.0625 -34.019531 1.710938 -36.203125 3.015625 -37.703125 C 4.328125 -39.210938 6.253906 -39.96875 8.796875 -39.96875 C 11.304688 -39.96875 13.222656 -39.210938 14.546875 -37.703125 C 15.867188 -36.203125 16.53125 -34.019531 16.53125 -31.15625 L 16.53125 -8.265625 C 16.53125 -5.367188 15.875 -3.171875 14.5625 -1.671875 C 13.257812 -0.171875 11.335938 0.578125 8.796875 0.578125 Z M 6.9375 -7.46875 C 6.9375 -5.59375 7.554688 -4.65625 8.796875 -4.65625 C 10.035156 -4.65625 10.65625 -5.59375 10.65625 -7.46875 L 10.65625 -31.953125 C 10.65625 -32.941406 10.492188 -33.648438 10.171875 -34.078125 C 9.859375 -34.503906 9.398438 -34.71875 8.796875 -34.71875 C 8.234375 -34.71875 7.78125 -34.503906 7.4375 -34.078125 C 7.101562 -33.648438 6.9375 -32.941406 6.9375 -31.953125 Z M 6.9375 -7.46875 "/></g></g></g><g fill="#231f20" fill-opacity="1"><g transform="translate(71.757992, 235.602114)"><g><path d="M 1.375 0 L 1.375 -39.4375 L 7.265625 -39.4375 L 7.265625 -22.796875 L 8.265625 -22.796875 L 11.03125 -39.4375 L 17.21875 -39.4375 L 13.03125 -20.359375 L 13.03125 -20.1875 L 17.59375 0 L 11.390625 0 L 8.265625 -17.75 L 7.265625 -17.75 L 7.265625 0 Z M 1.375 0 "/></g></g></g><g fill="#231f20" fill-opacity="1"><g transform="translate(89.033385, 235.602114)"><g><path d="M 0.21875 0 L 4.984375 -39.4375 L 13.359375 -39.4375 L 18.171875 0 L 12.1875 0 L 11.5 -6.578125 L 6.84375 -6.578125 L 6.140625 0 Z M 7.359375 -11.546875 L 11.03125 -11.546875 L 9.546875 -26.125 L 9.21875 -30.953125 L 9.109375 -30.953125 L 8.84375 -26.125 Z M 7.359375 -11.546875 "/></g></g></g><g fill="#231f20" fill-opacity="1"><g transform="translate(106.891683, 235.602114)"><g><path d="M 8.421875 0.578125 C 5.984375 0.578125 4.09375 -0.046875 2.75 -1.296875 C 1.40625 -2.554688 0.734375 -4.457031 0.734375 -7 L 0.734375 -14.09375 L 6.515625 -14.09375 L 6.515625 -7 C 6.515625 -6.320312 6.644531 -5.734375 6.90625 -5.234375 C 7.175781 -4.742188 7.703125 -4.5 8.484375 -4.5 C 9.015625 -4.5 9.425781 -4.675781 9.71875 -5.03125 C 10.019531 -5.382812 10.171875 -5.84375 10.171875 -6.40625 L 10.171875 -13.9375 C 10.171875 -15.132812 9.863281 -16 9.25 -16.53125 C 8.632812 -17.0625 7.617188 -17.695312 6.203125 -18.4375 C 5.035156 -19.113281 4.050781 -19.785156 3.25 -20.453125 C 2.457031 -21.128906 1.867188 -21.9375 1.484375 -22.875 C 1.097656 -23.8125 0.90625 -25.003906 0.90625 -26.453125 L 0.90625 -33.171875 C 0.90625 -35.367188 1.59375 -37.050781 2.96875 -38.21875 C 4.34375 -39.382812 6.144531 -39.96875 8.375 -39.96875 C 10.8125 -39.96875 12.679688 -39.300781 13.984375 -37.96875 C 15.296875 -36.644531 15.9375 -34.800781 15.90625 -32.4375 L 15.90625 -26.015625 L 10.28125 -26.015625 L 10.28125 -32.4375 C 10.28125 -34.03125 9.660156 -34.828125 8.421875 -34.828125 C 7.859375 -34.828125 7.441406 -34.675781 7.171875 -34.375 C 6.910156 -34.070312 6.78125 -33.671875 6.78125 -33.171875 L 6.78125 -26.5 C 6.78125 -25.476562 7.0625 -24.707031 7.625 -24.1875 C 8.195312 -23.675781 8.90625 -23.175781 9.75 -22.6875 C 12.007812 -21.59375 13.625 -20.425781 14.59375 -19.1875 C 15.570312 -17.945312 16.0625 -16.234375 16.0625 -14.046875 L 16.0625 -6.359375 C 16.0625 -4.171875 15.363281 -2.46875 13.96875 -1.25 C 12.570312 -0.03125 10.722656 0.578125 8.421875 0.578125 Z M 8.421875 0.578125 "/></g></g></g><g fill="#231f20" fill-opacity="1"><g transform="translate(123.160214, 235.602114)"><g><path d="M 5.671875 0 L 5.671875 -10.859375 L 0.21875 -39.4375 L 6.25 -39.4375 L 8.421875 -21.09375 L 8.53125 -18.96875 L 8.640625 -18.96875 L 8.796875 -21.09375 L 10.921875 -39.4375 L 16.953125 -39.4375 L 11.546875 -10.859375 L 11.546875 0 Z M 5.671875 0 "/></g></g></g><g fill="#231f20" fill-opacity="1"><g transform="translate(139.799693, 235.602114)"><g><path d="M 8.796875 0.578125 C 6.253906 0.578125 4.328125 -0.171875 3.015625 -1.671875 C 1.710938 -3.171875 1.0625 -5.367188 1.0625 -8.265625 L 1.0625 -31.15625 C 1.0625 -34.019531 1.710938 -36.203125 3.015625 -37.703125 C 4.328125 -39.210938 6.253906 -39.96875 8.796875 -39.96875 C 11.304688 -39.96875 13.222656 -39.210938 14.546875 -37.703125 C 15.867188 -36.203125 16.53125 -34.019531 16.53125 -31.15625 L 16.53125 -8.265625 C 16.53125 -5.367188 15.875 -3.171875 14.5625 -1.671875 C 13.257812 -0.171875 11.335938 0.578125 8.796875 0.578125 Z M 6.9375 -7.46875 C 6.9375 -5.59375 7.554688 -4.65625 8.796875 -4.65625 C 10.035156 -4.65625 10.65625 -5.59375 10.65625 -7.46875 L 10.65625 -31.953125 C 10.65625 -32.941406 10.492188 -33.648438 10.171875 -34.078125 C 9.859375 -34.503906 9.398438 -34.71875 8.796875 -34.71875 C 8.234375 -34.71875 7.78125 -34.503906 7.4375 -34.078125 C 7.101562 -33.648438 6.9375 -32.941406 6.9375 -31.953125 Z M 6.9375 -7.46875 "/></g></g></g><g fill="#231f20" fill-opacity="1"><g transform="translate(156.863108, 235.602114)"><g><path d="M 1.375 0 L 1.375 -39.4375 L 7.421875 -39.4375 L 11.125 -21.78125 L 12.03125 -16 L 12.140625 -16 L 11.765625 -22.890625 L 11.765625 -39.4375 L 17.484375 -39.4375 L 17.484375 0 L 11.453125 0 L 7.734375 -17.546875 L 6.84375 -23.3125 L 6.734375 -23.3125 L 7.109375 -16.484375 L 7.109375 0 Z M 1.375 0 "/></g></g></g><g fill="#231f20" fill-opacity="1"><g transform="translate(175.198339, 235.602114)"><g/></g></g><g fill="#231f20" fill-opacity="1"><g transform="translate(182.723161, 235.602114)"><g><path d="M 1.375 0 L 1.375 -39.4375 L 8.6875 -39.4375 L 11.453125 -19.5625 L 11.65625 -15.46875 L 11.765625 -15.46875 L 12.03125 -19.5625 L 14.78125 -39.4375 L 22.09375 -39.4375 L 22.09375 0 L 16.375 0 L 16.375 -16.109375 L 16.90625 -28.140625 L 16.796875 -28.140625 L 16.328125 -24.328125 L 13.734375 -5.984375 L 9.75 -5.984375 L 7.109375 -24.328125 L 6.671875 -28.140625 L 6.578125 -28.140625 L 7.109375 -16.109375 L 7.109375 0 Z M 1.375 0 "/></g></g></g><g fill="#231f20" fill-opacity="1"><g transform="translate(205.668712, 235.602114)"><g><path d="M 0.21875 0 L 4.984375 -39.4375 L 13.359375 -39.4375 L 18.171875 0 L 12.1875 0 L 11.5 -6.578125 L 6.84375 -6.578125 L 6.140625 0 Z M 7.359375 -11.546875 L 11.03125 -11.546875 L 9.546875 -26.125 L 9.21875 -30.953125 L 9.109375 -30.953125 L 8.84375 -26.125 Z M 7.359375 -11.546875 "/></g></g></g><g fill="#231f20" fill-opacity="1"><g transform="translate(223.52701, 235.602114)"><g><path d="M 4.609375 0 L 4.609375 -33.96875 L 0.3125 -33.96875 L 0.3125 -39.4375 L 14.78125 -39.4375 L 14.78125 -33.96875 L 10.5 -33.96875 L 10.5 0 Z M 4.609375 0 "/></g></g></g><g fill="#231f20" fill-opacity="1"><g transform="translate(238.099789, 235.602114)"><g><path d="M 1.375 0 L 1.375 -39.4375 L 13.5625 -39.4375 L 13.5625 -34.1875 L 7.265625 -34.1875 L 7.265625 -22.734375 L 12.828125 -22.734375 L 12.828125 -17.703125 L 7.265625 -17.703125 L 7.265625 -5.25 L 13.78125 -5.25 L 13.78125 0 Z M 1.375 0 "/></g></g></g><g fill="#231f20" fill-opacity="1"><g transform="translate(251.983692, 235.602114)"><g><path d="M 1.375 0 L 1.375 -39.4375 L 8.6875 -39.4375 L 11.453125 -19.5625 L 11.65625 -15.46875 L 11.765625 -15.46875 L 12.03125 -19.5625 L 14.78125 -39.4375 L 22.09375 -39.4375 L 22.09375 0 L 16.375 0 L 16.375 -16.109375 L 16.90625 -28.140625 L 16.796875 -28.140625 L 16.328125 -24.328125 L 13.734375 -5.984375 L 9.75 -5.984375 L 7.109375 -24.328125 L 6.671875 -28.140625 L 6.578125 -28.140625 L 7.109375 -16.109375 L 7.109375 0 Z M 1.375 0 "/></g></g></g><g fill="#231f20" fill-opacity="1"><g transform="translate(274.929232, 235.602114)"><g><path d="M 0.21875 0 L 4.984375 -39.4375 L 13.359375 -39.4375 L 18.171875 0 L 12.1875 0 L 11.5 -6.578125 L 6.84375 -6.578125 L 6.140625 0 Z M 7.359375 -11.546875 L 11.03125 -11.546875 L 9.546875 -26.125 L 9.21875 -30.953125 L 9.109375 -30.953125 L 8.84375 -26.125 Z M 7.359375 -11.546875 "/></g></g></g><g fill="#231f20" fill-opacity="1"><g transform="translate(292.78753, 235.602114)"><g><path d="M 4.609375 0 L 4.609375 -33.96875 L 0.3125 -33.96875 L 0.3125 -39.4375 L 14.78125 -39.4375 L 14.78125 -33.96875 L 10.5 -33.96875 L 10.5 0 Z M 4.609375 0 "/></g></g></g><g fill="#231f20" fill-opacity="1"><g transform="translate(307.360321, 235.602114)"><g><path d="M 1.375 0 L 1.375 -39.4375 L 7.265625 -39.4375 L 7.265625 0 Z M 1.640625 -44.046875 C 1.640625 -45.703125 2.5625 -46.53125 4.40625 -46.53125 C 6.238281 -46.53125 7.15625 -45.703125 7.15625 -44.046875 C 7.15625 -42.421875 6.238281 -41.609375 4.40625 -41.609375 C 2.5625 -41.609375 1.640625 -42.421875 1.640625 -44.046875 Z M 1.640625 -44.046875 "/></g></g></g><g fill="#231f20" fill-opacity="1"><g transform="translate(315.468047, 235.602114)"><g><path d="M 1.375 0 L 1.375 -39.4375 L 7.265625 -39.4375 L 7.265625 -22.796875 L 8.265625 -22.796875 L 11.03125 -39.4375 L 17.21875 -39.4375 L 13.03125 -20.359375 L 13.03125 -20.1875 L 17.59375 0 L 11.390625 0 L 8.265625 -17.75 L 7.265625 -17.75 L 7.265625 0 Z M 1.375 0 "/></g></g></g><g fill="#231f20" fill-opacity="1"><g transform="translate(90.971474, 259.493772)"><g><path d="M 0.953125 0 L 0.953125 -8.5 L 2.671875 -8.5 L 4.5625 -3.25 L 4.6875 -2.796875 L 4.71875 -2.796875 L 4.84375 -3.25 L 6.75 -8.5 L 8.453125 -8.5 L 8.453125 0 L 7.171875 0 L 7.171875 -5.5625 L 7.1875 -6.421875 L 7.171875 -6.421875 L 7.03125 -6.046875 L 5.234375 -1.1875 L 4.15625 -1.1875 L 2.375 -6.046875 L 2.234375 -6.421875 L 2.21875 -6.421875 L 2.234375 -5.5625 L 2.234375 0 Z M 0.953125 0 "/></g></g></g><g fill="#231f20" fill-opacity="1"><g transform="translate(103.10892, 259.493772)"><g><path d="M 0.140625 0 L 2.796875 -8.5 L 4.484375 -8.5 L 7.140625 0 L 5.78125 0 L 5.1875 -2.015625 L 2.09375 -2.015625 L 1.5 0 Z M 2.40625 -3.09375 L 4.875 -3.09375 L 3.796875 -6.75 L 3.65625 -7.34375 L 3.625 -7.34375 L 3.484375 -6.75 Z M 2.40625 -3.09375 "/></g></g></g><g fill="#231f20" fill-opacity="1"><g transform="translate(113.130433, 259.493772)"><g><path d="M 2.296875 0 L 2.296875 -7.375 L 0.0625 -7.375 L 0.0625 -8.5 L 5.84375 -8.5 L 5.84375 -7.375 L 3.609375 -7.375 L 3.609375 0 Z M 2.296875 0 "/></g></g></g><g fill="#231f20" fill-opacity="1"><g transform="translate(121.768013, 259.493772)"><g><path d="M 0.953125 0 L 0.953125 -8.5 L 5.90625 -8.5 L 5.90625 -7.375 L 2.25 -7.375 L 2.25 -4.890625 L 5.484375 -4.890625 L 5.484375 -3.796875 L 2.25 -3.796875 L 2.25 -1.125 L 5.953125 -1.125 L 5.953125 0 Z M 0.953125 0 "/></g></g></g><g fill="#231f20" fill-opacity="1"><g transform="translate(130.794462, 259.493772)"><g><path d="M 0.953125 0 L 0.953125 -8.5 L 2.671875 -8.5 L 4.5625 -3.25 L 4.6875 -2.796875 L 4.71875 -2.796875 L 4.84375 -3.25 L 6.75 -8.5 L 8.453125 -8.5 L 8.453125 0 L 7.171875 0 L 7.171875 -5.5625 L 7.1875 -6.421875 L 7.171875 -6.421875 L 7.03125 -6.046875 L 5.234375 -1.1875 L 4.15625 -1.1875 L 2.375 -6.046875 L 2.234375 -6.421875 L 2.21875 -6.421875 L 2.234375 -5.5625 L 2.234375 0 Z M 0.953125 0 "/></g></g></g><g fill="#231f20" fill-opacity="1"><g transform="translate(142.931905, 259.493772)"><g><path d="M 0.140625 0 L 2.796875 -8.5 L 4.484375 -8.5 L 7.140625 0 L 5.78125 0 L 5.1875 -2.015625 L 2.09375 -2.015625 L 1.5 0 Z M 2.40625 -3.09375 L 4.875 -3.09375 L 3.796875 -6.75 L 3.65625 -7.34375 L 3.625 -7.34375 L 3.484375 -6.75 Z M 2.40625 -3.09375 "/></g></g></g><g fill="#231f20" fill-opacity="1"><g transform="translate(152.953415, 259.493772)"><g><path d="M 2.296875 0 L 2.296875 -7.375 L 0.0625 -7.375 L 0.0625 -8.5 L 5.84375 -8.5 L 5.84375 -7.375 L 3.609375 -7.375 L 3.609375 0 Z M 2.296875 0 "/></g></g></g><g fill="#231f20" fill-opacity="1"><g transform="translate(161.590992, 259.493772)"><g><path d="M 0.953125 0 L 0.953125 -8.5 L 2.25 -8.5 L 2.25 0 Z M 1.015625 -9.59375 C 1.015625 -9.925781 1.21875 -10.09375 1.625 -10.09375 C 1.832031 -10.09375 1.976562 -10.050781 2.0625 -9.96875 C 2.15625 -9.882812 2.203125 -9.757812 2.203125 -9.59375 C 2.203125 -9.425781 2.15625 -9.300781 2.0625 -9.21875 C 1.976562 -9.132812 1.832031 -9.09375 1.625 -9.09375 C 1.40625 -9.09375 1.25 -9.132812 1.15625 -9.21875 C 1.0625 -9.300781 1.015625 -9.425781 1.015625 -9.59375 Z M 1.015625 -9.59375 "/></g></g></g><g fill="#231f20" fill-opacity="1"><g transform="translate(167.529319, 259.493772)"><g><path d="M 0.953125 0 L 0.953125 -8.5 L 2.25 -8.5 L 2.25 -4.90625 L 3.4375 -4.90625 L 5.140625 -8.5 L 6.609375 -8.5 L 4.515625 -4.390625 L 4.515625 -4.328125 L 6.96875 0 L 5.5 0 L 3.4375 -3.796875 L 2.25 -3.796875 L 2.25 0 Z M 0.953125 0 "/></g></g></g><g fill="#231f20" fill-opacity="1"><g transform="translate(177.402137, 259.493772)"><g><path d="M 2.296875 0 L 2.296875 -7.375 L 0.0625 -7.375 L 0.0625 -8.5 L 5.84375 -8.5 L 5.84375 -7.375 L 3.609375 -7.375 L 3.609375 0 Z M 2.296875 0 "/></g></g></g><g fill="#231f20" fill-opacity="1"><g transform="translate(186.039713, 259.493772)"><g><path d="M 0.953125 0 L 0.953125 -8.5 L 5.90625 -8.5 L 5.90625 -7.375 L 2.25 -7.375 L 2.25 -4.890625 L 5.484375 -4.890625 L 5.484375 -3.796875 L 2.25 -3.796875 L 2.25 -1.125 L 5.953125 -1.125 L 5.953125 0 Z M 0.953125 0 "/></g></g></g><g fill="#231f20" fill-opacity="1"><g transform="translate(195.06616, 259.493772)"><g/></g></g><g fill="#231f20" fill-opacity="1"><g transform="translate(200.890115, 259.493772)"><g><path d="M 3.359375 0.15625 C 2.367188 0.15625 1.628906 -0.0859375 1.140625 -0.578125 C 0.648438 -1.066406 0.398438 -1.734375 0.390625 -2.578125 L 1.671875 -2.578125 C 1.671875 -2.328125 1.71875 -2.070312 1.8125 -1.8125 C 1.90625 -1.5625 2.070312 -1.351562 2.3125 -1.1875 C 2.5625 -1.019531 2.910156 -0.9375 3.359375 -0.9375 C 3.878906 -0.9375 4.257812 -1.054688 4.5 -1.296875 C 4.75 -1.535156 4.875 -1.863281 4.875 -2.28125 C 4.875 -2.644531 4.800781 -2.925781 4.65625 -3.125 C 4.519531 -3.320312 4.3125 -3.484375 4.03125 -3.609375 C 3.75 -3.734375 3.394531 -3.859375 2.96875 -3.984375 C 2.457031 -4.140625 2.03125 -4.3125 1.6875 -4.5 C 1.34375 -4.695312 1.078125 -4.945312 0.890625 -5.25 C 0.710938 -5.5625 0.625 -5.960938 0.625 -6.453125 C 0.625 -7.117188 0.851562 -7.648438 1.3125 -8.046875 C 1.78125 -8.441406 2.441406 -8.640625 3.296875 -8.640625 C 4.242188 -8.640625 4.941406 -8.394531 5.390625 -7.90625 C 5.847656 -7.425781 6.082031 -6.800781 6.09375 -6.03125 L 4.859375 -6.03125 C 4.847656 -6.300781 4.796875 -6.550781 4.703125 -6.78125 C 4.617188 -7.007812 4.46875 -7.191406 4.25 -7.328125 C 4.03125 -7.472656 3.71875 -7.546875 3.3125 -7.546875 C 2.820312 -7.546875 2.46875 -7.4375 2.25 -7.21875 C 2.039062 -7 1.9375 -6.738281 1.9375 -6.4375 C 1.9375 -6.144531 2 -5.910156 2.125 -5.734375 C 2.25 -5.566406 2.425781 -5.429688 2.65625 -5.328125 C 2.894531 -5.222656 3.179688 -5.125 3.515625 -5.03125 C 4.117188 -4.875 4.613281 -4.679688 5 -4.453125 C 5.394531 -4.222656 5.691406 -3.929688 5.890625 -3.578125 C 6.085938 -3.234375 6.1875 -2.796875 6.1875 -2.265625 C 6.1875 -1.503906 5.9375 -0.910156 5.4375 -0.484375 C 4.945312 -0.0546875 4.253906 0.15625 3.359375 0.15625 Z M 3.359375 0.15625 "/></g></g></g><g fill="#231f20" fill-opacity="1"><g transform="translate(210.25969, 259.493772)"><g><path d="M 3.75 0.15625 C 1.632812 0.15625 0.578125 -1.140625 0.578125 -3.734375 L 0.578125 -4.78125 C 0.578125 -7.351562 1.628906 -8.640625 3.734375 -8.640625 C 5.859375 -8.640625 6.921875 -7.351562 6.921875 -4.78125 L 6.921875 -3.734375 C 6.921875 -1.140625 5.863281 0.15625 3.75 0.15625 Z M 1.875 -3.671875 C 1.875 -2.742188 2.035156 -2.0625 2.359375 -1.625 C 2.679688 -1.195312 3.144531 -0.984375 3.75 -0.984375 C 4.363281 -0.984375 4.828125 -1.195312 5.140625 -1.625 C 5.453125 -2.0625 5.609375 -2.742188 5.609375 -3.671875 L 5.609375 -4.84375 C 5.609375 -5.75 5.453125 -6.414062 5.140625 -6.84375 C 4.828125 -7.28125 4.363281 -7.5 3.75 -7.5 C 3.144531 -7.5 2.679688 -7.28125 2.359375 -6.84375 C 2.035156 -6.414062 1.875 -5.75 1.875 -4.84375 Z M 1.875 -3.671875 "/></g></g></g><g fill="#231f20" fill-opacity="1"><g transform="translate(220.487068, 259.493772)"><g><path d="M 0.953125 0 L 0.953125 -8.5 L 2.40625 -8.5 L 5.5625 -2.6875 L 5.84375 -2.15625 L 5.859375 -2.15625 L 5.859375 -8.5 L 7.140625 -8.5 L 7.140625 0 L 5.671875 0 L 2.53125 -5.8125 L 2.25 -6.34375 L 2.234375 -6.34375 L 2.234375 0 Z M 0.953125 0 "/></g></g></g><g fill="#231f20" fill-opacity="1"><g transform="translate(231.32064, 259.493772)"><g/></g></g><g fill="#231f20" fill-opacity="1"><g transform="translate(237.144595, 259.493772)"><g><path d="M 0.953125 0 L 0.953125 -8.5 L 2.40625 -8.5 L 5.5625 -2.6875 L 5.84375 -2.15625 L 5.859375 -2.15625 L 5.859375 -8.5 L 7.140625 -8.5 L 7.140625 0 L 5.671875 0 L 2.53125 -5.8125 L 2.25 -6.34375 L 2.234375 -6.34375 L 2.234375 0 Z M 0.953125 0 "/></g></g></g><g fill="#231f20" fill-opacity="1"><g transform="translate(247.978167, 259.493772)"><g><path d="M 3.75 0.15625 C 1.632812 0.15625 0.578125 -1.140625 0.578125 -3.734375 L 0.578125 -4.78125 C 0.578125 -7.351562 1.628906 -8.640625 3.734375 -8.640625 C 5.859375 -8.640625 6.921875 -7.351562 6.921875 -4.78125 L 6.921875 -3.734375 C 6.921875 -1.140625 5.863281 0.15625 3.75 0.15625 Z M 1.875 -3.671875 C 1.875 -2.742188 2.035156 -2.0625 2.359375 -1.625 C 2.679688 -1.195312 3.144531 -0.984375 3.75 -0.984375 C 4.363281 -0.984375 4.828125 -1.195312 5.140625 -1.625 C 5.453125 -2.0625 5.609375 -2.742188 5.609375 -3.671875 L 5.609375 -4.84375 C 5.609375 -5.75 5.453125 -6.414062 5.140625 -6.84375 C 4.828125 -7.28125 4.363281 -7.5 3.75 -7.5 C 3.144531 -7.5 2.679688 -7.28125 2.359375 -6.84375 C 2.035156 -6.414062 1.875 -5.75 1.875 -4.84375 Z M 1.875 -3.671875 "/></g></g></g><g fill="#231f20" fill-opacity="1"><g transform="translate(258.205545, 259.493772)"><g><path d="M 0.953125 0 L 0.953125 -8.5 L 2.25 -8.5 L 2.25 -4.90625 L 3.4375 -4.90625 L 5.140625 -8.5 L 6.609375 -8.5 L 4.515625 -4.390625 L 4.515625 -4.328125 L 6.96875 0 L 5.5 0 L 3.4375 -3.796875 L 2.25 -3.796875 L 2.25 0 Z M 0.953125 0 "/></g></g></g><g fill="#231f20" fill-opacity="1"><g transform="translate(268.078362, 259.493772)"><g><path d="M 2.296875 0 L 2.296875 -7.375 L 0.0625 -7.375 L 0.0625 -8.5 L 5.84375 -8.5 L 5.84375 -7.375 L 3.609375 -7.375 L 3.609375 0 Z M 2.296875 0 "/></g></g></g><g fill="#231f20" fill-opacity="1"><g transform="translate(276.715939, 259.493772)"><g><path d="M 0.140625 0 L 2.796875 -8.5 L 4.484375 -8.5 L 7.140625 0 L 5.78125 0 L 5.1875 -2.015625 L 2.09375 -2.015625 L 1.5 0 Z M 2.40625 -3.09375 L 4.875 -3.09375 L 3.796875 -6.75 L 3.65625 -7.34375 L 3.625 -7.34375 L 3.484375 -6.75 Z M 2.40625 -3.09375 "/></g></g></g></svg>