<?xml version="1.0" encoding="utf-8"?>
<!-- Generator: Adobe Illustrator 28.1.0, SVG Export Plug-In . SVG Version: 6.00 Build 0)  -->
<svg version="1.1" id="Layer_1" xmlns="http://www.w3.org/2000/svg" xmlns:xlink="http://www.w3.org/1999/xlink" x="0px" y="0px"
	 viewBox="0 0 841.9 167" style="enable-background:new 0 0 841.9 167;" xml:space="preserve">
<style type="text/css">
	.st0{fill:#54AE46;}
</style>
<g>
	<path class="st0" d="M80.3,29.3c0-2.6,2.1-4.7,4.7-4.7h10.9c2.6,0,4.7,2.1,4.7,4.7v10.9c0,2.6-2.1,4.7-4.7,4.7H85
		c-2.6,0-4.7-2.1-4.7-4.7V29.3z M80.3,61.5c0-2.6,2.1-4.7,4.7-4.7h10.9c2.6,0,4.7,2.1,4.7,4.7v10.9c0,2.6-2.1,4.7-4.7,4.7H85
		c-2.6,0-4.7-2.1-4.7-4.7V61.5z"/>
	<path d="M277.6,24.6h-32.3c-9,0-13.5,3.3-13.5,9.9v114.1l0.7,0.7h35.9c16.3,0,28.2-1.9,35.6-5.6c20.2-9,30.4-28.7,30.4-59.1V84
		c0-14.8-2.8-26.7-8.2-35.6C315.9,32.5,299.7,24.6,277.6,24.6z M314.3,109c-6.7,17.2-18.8,25.8-36.3,25.8h-29.3v-96H279
		c5.1,0,10.3,0.9,15.4,2.6c15.4,5.6,23.1,20.4,23.1,44.5C317.6,94.4,316.5,102.1,314.3,109z M216.7,70.6c6.1,8.1,9.1,15.5,9.1,22
		L211.6,93c-0.9-4-1.6-6.6-2.5-8.2c-3.6-8.7-10.8-13-21.4-13l-7.5,1c-11.6,4.6-17.4,14.7-17.4,30.3l0.4,7.2
		c2.1,15.2,8.8,23.9,20.2,26v-7.6c0-1.6,1.3-2.9,2.9-2.9h6.8c1.6,0,2.9,1.3,2.9,2.9v7.4c4-1,7.3-3,9.9-5.9l0.3,15.8
		c-4.2,2.3-9.2,3.4-15.1,3.4h-4.7c-6.9,0-13.5-1.8-19.8-5.4c-12.6-9-18.9-21.5-18.9-37.7v-5.7c0-5.4,1.1-11.1,3.2-17.3
		c6.7-16,19-24,36.9-24C200.2,59.3,209.9,63.1,216.7,70.6z M141.9,24.6l0.7,0.7v67.3c0,21.9-4.2,36.4-12.7,43.4
		c-8.7,9-21.7,13.4-38.9,13.4c-24.3,0-40.5-8.3-48.5-24.8c-3-7.1-4.5-14.4-4.5-22V25.3l0.7-0.7h16.2l0.7,0.7v75.9
		c0,15.4,6.4,25.7,19.2,31c4.7,1.6,9.6,2.4,14.5,2.4h3.4c9.7,0,17.3-2.7,23.1-8.2c6-6.1,9-14.4,9-24.8V25.3l0.7-0.7H141.9z
		 M690.9,59.5h-4.4c-5.8,0-11.8,1.7-17.9,5c-13.6,9.2-20.5,21.7-20.5,37.4v2.8c0,5.4,0.9,11.4,2.8,18c6.4,17.8,19.2,26.7,38.4,26.7
		c9-0.4,13.8-1.3,14.5-2.8v-12.9l-0.4-0.4c-4.2,2.3-8.7,3.5-13.5,3.5c-4.6,0-8.7-0.9-12.2-2.6c-9.7-4.3-14.5-12.6-14.5-24.8v-0.6
		h64.1l0.3-0.4c0-8.2-1.1-15.6-3.2-22.3C717.3,68.3,706.1,59.5,690.9,59.5z M663.2,95.9l1-5.4c3.9-12.3,11.7-18.5,23.3-18.5
		c5.4,0,10.3,1.6,14.7,4.7c6.7,5.7,10.1,12.1,10.1,19.1H663.2z M619.2,82.7v-0.4c12.5-5.6,18.7-14.7,18.7-27.6c0-8.2-2.3-14.9-7-20
		c-5-7.5-15.9-11.3-32.9-11.3h-42c-8,0-12,3.5-12,10.4v114.8l0.7,0.7H601c9.7,0,17-1.3,21.9-4c13.6-7.3,20.4-18.1,20.4-32.3
		c0-7.6-2.3-14.6-7-21C630.1,86.3,624.4,83.2,619.2,82.7z M561,37.8h35.4c5.4,0,10,0.6,13.6,1.7c7.3,2.9,11,8.9,11,18
		c0,4.4-1.1,8.3-3.3,11.7c-2.7,5.6-11.9,8.3-27.6,8.3H561V37.8z M625.9,114l-0.4,4.6c-3.2,10.7-10.2,16-21,16H561V91.8h39.3
		c3.7,0,7.3,0.4,11,1.3c9.8,3.3,14.7,9.1,14.7,17.3V114z M803.9,122.2c0,11.8-6.1,19.9-18.3,24.3c-5.6,1.9-11.8,2.8-18.5,2.8
		c-17.8,0-29.3-6.1-34.7-18.3l0.4-1h15.7c3.3,3.3,7.7,5.4,13.3,6.3v-7.7c0-1.6,1.3-2.9,2.9-2.9h6.8c1.6,0,2.9,1.3,2.9,2.9v7.7
		c6.7-0.9,11-3.4,13.1-7.5c0.6-1.1,1-2.4,1-4.1v-2.2c0-6.9-10.9-12.1-32.8-15.4c-15.5-4.2-23.3-11.3-23.3-21.4v-3.8
		c0-9.3,6.2-16.2,18.6-20.7c4.2-1.3,7.9-1.9,11.3-1.9h5c16.1,0,26.4,5.8,30.9,17.3l1,3.8l-14.5,0.4c-4.3-5-7.8-7.5-10.7-7.5
		c-2.4-0.9-5.2-1.3-8.3-1.3c-8.9,0-14.8,2.3-17.6,6.9l-0.6,3.8c0,7,8.3,11.7,24.9,14.2c12.1,2.9,19.7,5.6,22.9,8.2
		C801.1,109.4,803.9,115.2,803.9,122.2z M473.6,59.3l0.7,0.6v14.2c0,0.4-0.3,0.6-1,0.6c-17,0-26.9,7.8-29.9,23.4
		c-0.6,4.6-1,9.7-1,15.4v35.1l-0.6,0.6h-13.3l-0.6-0.6v-35.1c0-24.3,6.3-40.2,19-47.6c7.1-4.5,14.5-6.8,22.2-6.8H473.6z
		 M525.2,135.8h6.9c0,1-2.6,5.5-7.6,13.5h-0.4c-13.4,0-20.7-2.3-22-6.9c-1.8-2.5-2.7-6.7-2.7-12.6V74.7h-17.1l-0.6-0.6V59.9l0.6-0.6
		h17.1V42.1l0.7-0.6h13.9l0.7,0.6v87c0,3.5,1.3,5.6,3.9,6.3L525.2,135.8z M383.2,51.2v-6.8c0-1.6,1.3-2.9,2.9-2.9h6.8
		c1.6,0,2.9,1.3,2.9,2.9v6.8c0,1.6-1.3,2.9-2.9,2.9h-6.8C384.5,54.2,383.2,52.8,383.2,51.2z M364.8,51.2v-6.8c0-1.6,1.3-2.9,2.9-2.9
		h6.8c1.6,0,2.9,1.3,2.9,2.9v6.8c0,1.6-1.3,2.9-2.9,2.9h-6.8C366.1,54.2,364.8,52.8,364.8,51.2z M380.3,58.3
		c-23.5,0-42.6,20.4-42.6,45.5c0,25.1,19.1,45.5,42.6,45.5c23.5,0,42.6-20.4,42.6-45.5C422.9,78.7,403.9,58.3,380.3,58.3z
		 M380.3,136.3c-14.9,0-27-14.5-27-32.5c0-17.9,12.1-32.5,27-32.5c14.9,0,27,14.5,27,32.5C407.3,121.8,395.2,136.3,380.3,136.3z"/>
</g>
</svg>
