<?xml version="1.0" encoding="utf-8"?>
<!-- Generator: Adobe Illustrator 28.1.0, SVG Export Plug-In . SVG Version: 6.00 Build 0)  -->
<svg version="1.1" id="Layer_1" xmlns="http://www.w3.org/2000/svg" xmlns:xlink="http://www.w3.org/1999/xlink" x="0px" y="0px"
	 viewBox="0 0 400 100" style="enable-background:new 0 0 400 100;" xml:space="preserve">
<g>
	<polygon points="291.9,62.4 297,62.4 294.5,41.6 	"/>
	<path d="M326,32.9c-1.2-0.1-4.8,0-4.8,0v18.6h5.1c0.9,0,1.3-0.3,1.3-1.2c0-0.9-0.4-14.5-0.4-15.7C327.3,33.5,327.2,33,326,32.9z"/>
	<polygon points="165.5,62.7 170.7,62.7 168.1,43.2 	"/>
	<path d="M374.2,41.1c0-11.8-2-33.8-27.1-32.7C322,9.5,25.3,14.7,25.3,14.7v3.9l87.6-1.3l-11.1,66H25.3v3.3c0,0,312.1,4.8,323.9,5
		c11.8,0.2,25.9-4.8,25.5-27.7C374.2,41.1,374.2,52.8,374.2,41.1z M135.2,75.3V62.6l-10.8-36.3h11.1l4.7,23l5.2-23h10.3l-9.3,36.6
		l0.2,12.4H135.2z M173.1,76.4l-1.3-5.7h-7.5l-0.8,5.7h-10.3l9-50.1H173l10,50.1H173.1z M200.8,76.1h-11.4V62.9l-10.8-37.6h11.1
		l4.7,23.9l5.2-23.9h10.3l-9.3,37.9L200.8,76.1z M223.5,75.3h-11v-49h11V75.3z M242.9,76.4l-6.2-21.3l0.3,21.3h-9.6l-0.8-51.1h9.5
		l5.7,20.6V25.3h10l1.3,51.1H242.9z M275.6,77h-18.1l-1-51.7h9.8l1,41.8h9.6L275.6,77z M299.5,77l-1.3-6.1h-7.3L290,77H280l8.8-53.5
		h10.5L309,77H299.5z M328.2,77.6l-5-17.8l-1.7-0.1l0.7,17.3H312l-0.6-53.5h18.3c4.1,0,7.2,0.2,7.3,8c0.2,7.8,0.7,21.7,0.5,24.3
		c-0.2,2.5-1.7,3.8-4.4,4.2l5.7,17L328.2,77.6z M352.1,77.6h-9.9V23h9.9V77.6z"/>
	<polygon points="25.3,27.1 25.3,75.3 36.3,75.3 36.3,56 42.5,56 42.5,75.3 52.8,75.3 52.8,27.1 42.3,27.1 42.3,47.4 35.6,47.4 
		35.6,27.1 	"/>
	<rect x="57.3" y="26.3" width="10.9" height="49"/>
	<polygon points="94.7,75.3 96.7,66.5 86.4,66.3 97.7,26.3 74.3,26.3 71.9,35.3 83.5,35.3 71.9,75.3 	"/>
</g>
</svg>
